<svg id="图层_7" data-name="图层 7" xmlns="http://www.w3.org/2000/svg" viewBox="0 0 544.39804 295.10797"><defs><style>.cls-1{fill:#0f6;stroke:#000;stroke-miterlimit:10;stroke-width:3px;}</style></defs><path class="cls-1" d="M56.0683,169.73219,33.79215,155.813s-1.89145-.44445-2.11367-4.55556,5.46546-11.897,7.498-14.99437S51.3698,118.50174,59.801,110.91442,81.20626,90.99015,90.78959,90.23491s30.97407,11.29231,30.97407,11.29231,16.12375,9.32968,23.44984,15.22439,2.57127,13.42121-1.0121,20.71122S126.292,176.928,121.91867,190.40965s-11.69959,39.75846-13.50539,48.664-3.29812,15.168-2.37757,17.77312,6.63246,7.64858,6.99882,10.863,1.03284,7.17554-2.91161,13.36164S93.06737,295.28264,88.4007,295.90893s-16.95561-4.96049-24.25977-7.04486-33.57077-8.63441-46.46106-9.88441-2.11009-26.55483-2.11009-26.55483,3.83616-9.20111,8.33423-11.85591a27.69393,27.69393,0,0,1,10.594-3.95454,7.856,7.856,0,0,1,2.70823-.09305s-.02778-5.375.52777-11.48611,3.75914-23.70821,8.24471-34.402S56.0683,169.73219,56.0683,169.73219Z" transform="translate(-9.84753 -8.47745)"/><path class="cls-1" d="M138.36034,150.18158s-5.90408,1.46475-6.82075,6.21475,2.24386,12.06271,2.81455,15.53368,1.44726,11.04965,1.44726,11.04965l-19.45625,5.72223s-2.38889.44444-1.88889,5.11111,3.20037,23.68006,3.20037,23.68006,1.54131,7.85961,5.7538,10.71477,6.60283,2.51993,10.43822,1.27833,15.493-5.02642,15.493-5.02642l8.713,35.44118s.34173,7.46264,9.946,5.90761,35.49608-6.74905,36.61476-7.65007-1.23685-16.22665-3.1702-23.86939a140.54168,140.54168,0,0,0-5.37961-16.04094l26.61614-8.67716s2.12887-1.008,1.91-4.508-3.71863-19.428-6.88539-27.79734-4.23673-10.81277-8.40029-10.42668-30.70341,8.95729-30.70341,8.95729-8.31306-29.89994-10.56306-32.98327-6.41667-2.566-6.41667-2.566Z" transform="translate(-9.84753 -8.47745)"/><path class="cls-1" d="M218.11965,178.39749s-3.66339,2.08217-6.41339.49884-1.25911-12.07862-1.25911-12.07862,8.87768-18.76457,14.06168-26.90313,11.04777-18.89481,16.3726-21.16486S277.01708,121.01,277.01708,121.01s5.18083.59022,8.6225,3.63414,3.25568,7.6688,3.22275,13.77939.92124,35.30246,3.54907,49.36992,10.47162,45.74344,12.9158,50.17114a43.87681,43.87681,0,0,0,7.30087,8.9322,11.34321,11.34321,0,0,1,1.73442,8.24959c-.90623,4.66667-4.1313,11.35457-6.1021,12.59395s-5.41562,1.19309-8.693.51716-8.79765-1.43544-16.95393,1.103-28.82385,8.9498-28.82385,8.9498-8.51087,1.50773-14.36618-1.33061-11.21715-5.67158-13.46715-11.79412-1.46578-10.15517,5.22544-12.80553,8.44768-6.57546,8.83334-12.40457-5.93956-41.72476-7.77968-49.60723-2.13357-11.65459-6.17856-13.091S218.11965,178.39749,218.11965,178.39749Z" transform="translate(-9.84753 -8.47745)"/><path class="cls-1" d="M315.97418,148.47966V169.063s-.14292,6.20653,9.60708,6.3116,40.28044-19.11092,42.53243-22.34627,7.50923-11.38623,3.59257-14.23828S315.97418,148.47966,315.97418,148.47966Z" transform="translate(-9.84753 -8.47745)"/><path class="cls-1" d="M321.45612,196.70473l-.248,17.27493s.44968,3.52689,7.04333,4.29123,11.70476,2.055,25.03809,2.71523,21.94693.22413,24.14013-2.905,2.91543-23.26807,1.4432-27.21252-3.36866-5.80211-7.05933-6.42883-6.53315-.24455-23.57284,4.64582S321.45612,196.70473,321.45612,196.70473Z" transform="translate(-9.84753 -8.47745)"/><path class="cls-1" d="M452.90034,131.08153s-31.88506,31.0648-34.05347,32.50925-4.2795,5.5-15.00172-3.05556-37.4811-43.22222-41.76833-61.38889,48.9085-57.04008,70.41846-71.28819,28.00605-20.33236,38.52518-16.98042S504.51353,35.5694,523.92934,53.469s34.11554,26.56532,26.98789,46.82967-31.96928,81.3528-40.00679,92.85024S461.234,223.34775,461.234,223.34775l71.24068,19.04615s4.10662.7941,1.77328,6.87743-34.14359,48.41713-34.14359,48.41713-3.5709,7.12454-12.22669,3.23565-79.67138-38.19767-87.25472-60.82106,3.98432-40.7345,23.90883-53.51227,41.4798-24.62068,41.4798-24.62068,2.45641-1.51608-1.02505-8.0848Z" transform="translate(-9.84753 -8.47745)"/><line class="cls-1" x1="443.05281" y1="122.60408" x2="488.94206" y2="81.16888"/></svg>