<svg xmlns="http://www.w3.org/2000/svg" width="1778.728" height="68.38" viewBox="0 0 1778.728 68.38">
  <g id="组_59" data-name="组 59" transform="translate(730.833 -1548.596)">
    <path id="路径_704" data-name="路径 704" d="M-730.333,1552.061q0-2.965.949-2.965h53.253q1.007,0,1.008,2.965t-1.008,2.964h-53.253Q-730.333,1555.026-730.333,1552.061Zm0,7.887q0-2.965.949-2.965h13.817q1.009,0,1.008,2.965t-1.008,2.965h-13.817Q-730.333,1562.914-730.333,1559.948Zm15.774,23.661q0-2.966.949-2.967h13.818q1.007,0,1.008,2.967t-1.008,2.965H-713.61Q-714.559,1586.575-714.559,1583.61Zm0,7.886q0-2.964.949-2.965h13.818q1.007,0,1.008,2.965t-1.008,2.965H-713.61Q-714.559,1594.461-714.559,1591.5Zm0,7.888q0-2.966.949-2.965h13.818q1.007,0,1.008,2.965t-1.008,2.965H-713.61Q-714.559,1602.349-714.559,1599.384Zm7.887-23.661q0-2.966.949-2.965h13.817q1.009,0,1.008,2.965t-1.008,2.964h-13.817Q-706.672,1578.687-706.672,1575.723Zm7.887-7.888q0-2.964.948-2.965h13.818q1.008,0,1.008,2.965t-1.008,2.965h-13.818Q-698.785,1570.8-698.784,1567.834Zm7.887-7.886q0-2.965.949-2.965h13.818q1.007,0,1.008,2.965t-1.008,2.965h-13.818Q-690.9,1562.914-690.9,1559.948Z" transform="translate(0 0)" fill="#ff3c00" stroke="#000" stroke-width="1"/>
    <path id="路径_705" data-name="路径 705" d="M-644.769,1552.061q0-2.965.949-2.965h45.366q1.008,0,1.007,2.965t-1.007,2.964H-643.82Q-644.769,1555.026-644.769,1552.061Zm0,7.887q0-2.965.949-2.965H-630q1.008,0,1.008,2.965t-1.008,2.965H-643.82Q-644.769,1562.914-644.769,1559.948Zm0,7.886q0-2.964.949-2.965h45.366q1.008,0,1.007,2.965t-1.007,2.965H-643.82Q-644.769,1570.8-644.769,1567.834Zm0,23.661q0-2.964.949-2.965H-630q1.008,0,1.008,2.965t-1.008,2.965H-643.82Q-644.769,1594.461-644.769,1591.5Zm7.888,7.888q0-2.966.949-2.965h37.478q1.008,0,1.007,2.965t-1.007,2.965h-37.478Q-636.882,1602.349-636.881,1599.384Zm31.548-23.661q0-2.966.949-2.965h13.818q1.007,0,1.008,2.965t-1.008,2.964h-13.818Q-605.333,1578.687-605.333,1575.723Zm0,7.887q0-2.966.949-2.967h13.818q1.007,0,1.008,2.967t-1.008,2.965h-13.818Q-605.333,1586.575-605.333,1583.61Zm0,7.886q0-2.964.949-2.965h13.818q1.007,0,1.008,2.965t-1.008,2.965h-13.818Q-605.333,1594.461-605.333,1591.5Z" transform="translate(-22.468 0)" fill="#ff3c00" stroke="#000" stroke-width="1"/>
    <path id="路径_706" data-name="路径 706" d="M-548.508,1584.148q0-2.966.949-2.965h13.817q1.009,0,1.008,2.965t-1.008,2.964h-13.817Q-548.509,1587.113-548.508,1584.148Zm0,7.887q0-2.966.949-2.967h13.817q1.009,0,1.008,2.967t-1.008,2.965h-13.817Q-548.509,1595-548.508,1592.036Zm0,15.774q0-2.966.949-2.965h5.93q1.008,0,1.008,2.965t-1.008,2.965h-5.93Q-548.509,1610.774-548.508,1607.809Zm7.887-7.888q0-2.964.949-2.965h5.93q1.009,0,1.008,2.965t-1.008,2.965h-5.93Q-540.621,1602.886-540.621,1599.921Z" transform="translate(-47.745 -8.426)" fill="#ff3c00" stroke="#000" stroke-width="1"/>
    <path id="路径_707" data-name="路径 707" d="M-473.719,1567.834q0-2.964.949-2.965h13.817q1.008,0,1.009,2.965t-1.009,2.965H-472.77Q-473.719,1570.8-473.719,1567.834Zm0,7.888q0-2.966.949-2.965h13.817q1.008,0,1.009,2.965t-1.009,2.964H-472.77Q-473.719,1578.687-473.719,1575.723Zm0,7.887q0-2.966.949-2.967h13.817q1.008,0,1.009,2.967t-1.009,2.965H-472.77Q-473.719,1586.575-473.719,1583.61Zm7.887-23.661q0-2.965.949-2.965h5.93q1.008,0,1.009,2.965t-1.009,2.965h-5.93Q-465.832,1562.914-465.832,1559.948Zm0,31.547q0-2.964.949-2.965h13.818q1.008,0,1.008,2.965t-1.008,2.965h-13.818Q-465.832,1594.461-465.832,1591.5Zm7.888-39.435q0-2.965.948-2.965h21.7q1.008,0,1.009,2.965t-1.009,2.964H-457Q-457.946,1555.026-457.944,1552.061Zm0,47.323q0-2.966.948-2.965h21.7q1.008,0,1.009,2.965t-1.009,2.965H-457Q-457.946,1602.349-457.944,1599.384Zm15.773-39.435q0-2.965.949-2.965H-427.4q1.008,0,1.008,2.965t-1.008,2.965h-13.818Q-442.171,1562.914-442.171,1559.948Zm7.888,7.886q0-2.964.948-2.965h13.818q1.009,0,1.008,2.965t-1.008,2.965h-13.818Q-434.284,1570.8-434.283,1567.834Zm0,7.888q0-2.966.948-2.965h13.818q1.009,0,1.008,2.965t-1.008,2.964h-13.818Q-434.284,1578.687-434.283,1575.723Zm0,7.887q0-2.966.948-2.967h13.818q1.009,0,1.008,2.967t-1.008,2.965h-13.818Q-434.284,1586.575-434.283,1583.61Zm0,7.886q0-2.964.948-2.965h5.931q1.008,0,1.008,2.965t-1.008,2.965h-5.931Q-434.284,1594.461-434.283,1591.5Z" transform="translate(-67.383 0)" fill="#ff3c00" stroke="#000" stroke-width="1"/>
    <path id="路径_708" data-name="路径 708" d="M-388.154,1567.834q0-2.964.948-2.965h13.817q1.009,0,1.009,2.965t-1.009,2.965h-13.817Q-388.155,1570.8-388.154,1567.834Zm0,7.888q0-2.966.948-2.965h13.817q1.009,0,1.009,2.965t-1.009,2.964h-13.817Q-388.155,1578.687-388.154,1575.723Zm0,7.887q0-2.966.948-2.967h13.817q1.009,0,1.009,2.967t-1.009,2.965h-13.817Q-388.155,1586.575-388.154,1583.61Zm7.887-23.661q0-2.965.949-2.965h5.93q1.009,0,1.009,2.965t-1.009,2.965h-5.93Q-380.267,1562.914-380.267,1559.948Zm0,31.547q0-2.964.949-2.965H-365.5q1.008,0,1.008,2.965t-1.008,2.965h-13.818Q-380.267,1594.461-380.267,1591.5Zm7.887-39.435q0-2.965.948-2.965h21.7q1.009,0,1.009,2.965t-1.009,2.964h-21.7Q-372.381,1555.026-372.38,1552.061Zm0,47.323q0-2.966.948-2.965h21.7q1.009,0,1.009,2.965t-1.009,2.965h-21.7Q-372.381,1602.349-372.38,1599.384Zm15.774-39.435q0-2.965.949-2.965h13.818q1.008,0,1.008,2.965t-1.008,2.965h-13.818Q-356.606,1562.914-356.606,1559.948Zm7.887,7.886q0-2.964.948-2.965h13.818q1.008,0,1.008,2.965t-1.008,2.965H-347.77Q-348.719,1570.8-348.719,1567.834Zm0,7.888q0-2.966.948-2.965h13.818q1.008,0,1.008,2.965t-1.008,2.964H-347.77Q-348.719,1578.687-348.719,1575.723Zm0,7.887q0-2.966.948-2.967h13.818q1.008,0,1.008,2.967t-1.008,2.965H-347.77Q-348.719,1586.575-348.719,1583.61Zm0,7.886q0-2.964.948-2.965h5.931q1.008,0,1.008,2.965t-1.008,2.965h-5.931Q-348.719,1594.461-348.719,1591.5Z" transform="translate(-89.852 0)" fill="#ff3c00" stroke="#000" stroke-width="1"/>
    <path id="路径_709" data-name="路径 709" d="M-302.59,1567.834q0-2.964.949-2.965h13.817q1.008,0,1.009,2.965t-1.009,2.965h-13.817Q-302.59,1570.8-302.59,1567.834Zm0,7.888q0-2.966.949-2.965h13.817q1.008,0,1.009,2.965t-1.009,2.964h-13.817Q-302.59,1578.687-302.59,1575.723Zm0,7.887q0-2.966.949-2.967h13.817q1.008,0,1.009,2.967t-1.009,2.965h-13.817Q-302.59,1586.575-302.59,1583.61Zm7.887-23.661q0-2.965.948-2.965h5.93q1.008,0,1.009,2.965t-1.009,2.965h-5.93Q-294.7,1562.914-294.7,1559.948Zm0,31.547q0-2.964.948-2.965h13.818q1.009,0,1.008,2.965t-1.008,2.965h-13.818Q-294.7,1594.461-294.7,1591.5Zm7.887-39.435q0-2.965.948-2.965h21.7q1.008,0,1.009,2.965t-1.009,2.964h-21.7Q-286.816,1555.026-286.815,1552.061Zm0,47.323q0-2.966.948-2.965h21.7q1.008,0,1.009,2.965t-1.009,2.965h-21.7Q-286.816,1602.349-286.815,1599.384Zm15.774-39.435q0-2.965.948-2.965h13.818q1.009,0,1.008,2.965t-1.008,2.965h-13.818Q-271.041,1562.914-271.041,1559.948Zm7.887,7.886q0-2.964.948-2.965h13.818q1.008,0,1.008,2.965t-1.008,2.965h-13.818Q-263.155,1570.8-263.154,1567.834Zm0,7.888q0-2.966.948-2.965h13.818q1.008,0,1.008,2.965t-1.008,2.964h-13.818Q-263.155,1578.687-263.154,1575.723Zm0,7.887q0-2.966.948-2.967h13.818q1.008,0,1.008,2.967t-1.008,2.965h-13.818Q-263.155,1586.575-263.154,1583.61Zm0,7.886q0-2.964.948-2.965h5.93q1.009,0,1.008,2.965t-1.008,2.965h-5.93Q-263.155,1594.461-263.154,1591.5Z" transform="translate(-112.32 0)" fill="#ff3c00" stroke="#000" stroke-width="1"/>
    <path id="路径_710" data-name="路径 710" d="M-131.46,1567.834q0-2.964.949-2.965h13.816q1.009,0,1.009,2.965t-1.009,2.965h-13.816Q-131.46,1570.8-131.46,1567.834Zm0,7.888q0-2.966.949-2.965h13.816q1.009,0,1.009,2.965t-1.009,2.964h-13.816Q-131.46,1578.687-131.46,1575.723Zm0,7.887q0-2.966.949-2.967h13.816q1.009,0,1.009,2.967t-1.009,2.965h-13.816Q-131.46,1586.575-131.46,1583.61Zm7.887-23.661q0-2.965.949-2.965h13.818q1.008,0,1.008,2.965t-1.008,2.965h-13.818Q-123.573,1562.914-123.573,1559.948Zm0,31.547q0-2.964.949-2.965h13.818q1.008,0,1.008,2.965t-1.008,2.965h-13.818Q-123.573,1594.461-123.573,1591.5Zm7.887-39.435q0-2.965.948-2.965h29.592q1.008,0,1.008,2.965t-1.008,2.964h-29.592Q-115.687,1555.026-115.686,1552.061Zm0,47.323q0-2.966.948-2.965h29.592q1.008,0,1.008,2.965t-1.008,2.965h-29.592Q-115.687,1602.349-115.686,1599.384Zm23.661-39.435q0-2.965.948-2.965h13.818q1.008,0,1.008,2.965t-1.008,2.965H-91.076Q-92.025,1562.914-92.025,1559.948Zm0,31.547q0-2.964.948-2.965h13.818q1.008,0,1.008,2.965t-1.008,2.965H-91.076Q-92.025,1594.461-92.025,1591.5Z" transform="translate(-157.256 0)" fill="#ff3c00" stroke="#000" stroke-width="1"/>
    <path id="路径_711" data-name="路径 711" d="M-45.9,1552.061q0-2.965.949-2.965H-31.13q1.008,0,1.009,2.965t-1.009,2.964H-44.947Q-45.9,1555.026-45.9,1552.061Zm0,7.887q0-2.965.949-2.965H-31.13q1.008,0,1.009,2.965t-1.009,2.965H-44.947Q-45.9,1562.914-45.9,1559.948Zm0,7.886q0-2.964.949-2.965H-31.13q1.008,0,1.009,2.965t-1.009,2.965H-44.947Q-45.9,1570.8-45.9,1567.834Zm0,7.888q0-2.966.949-2.965H8.306q1.008,0,1.008,2.965t-1.008,2.964H-44.947Q-45.9,1578.687-45.9,1575.723Zm0,7.887q0-2.966.949-2.967H-31.13q1.008,0,1.009,2.967t-1.009,2.965H-44.947Q-45.9,1586.575-45.9,1583.61Zm0,7.886q0-2.964.949-2.965H-31.13q1.008,0,1.009,2.965t-1.009,2.965H-44.947Q-45.9,1594.461-45.9,1591.5Zm0,7.888q0-2.966.949-2.965H-31.13q1.008,0,1.009,2.965t-1.009,2.965H-44.947Q-45.9,1602.349-45.9,1599.384Zm39.436-47.323q0-2.965.948-2.965H8.306q1.008,0,1.008,2.965t-1.008,2.964H-5.512Q-6.461,1555.026-6.46,1552.061Zm0,7.887q0-2.965.948-2.965H8.306q1.008,0,1.008,2.965t-1.008,2.965H-5.512Q-6.461,1562.914-6.46,1559.948Zm0,7.886q0-2.964.948-2.965H8.306q1.008,0,1.008,2.965T8.306,1570.8H-5.512Q-6.461,1570.8-6.46,1567.834Zm0,15.776q0-2.966.948-2.967H8.306q1.008,0,1.008,2.967t-1.008,2.965H-5.512Q-6.461,1586.575-6.46,1583.61Zm0,7.886q0-2.964.948-2.965H8.306q1.008,0,1.008,2.965t-1.008,2.965H-5.512Q-6.461,1594.461-6.46,1591.5Zm0,7.888q0-2.966.948-2.965H8.306q1.008,0,1.008,2.965t-1.008,2.965H-5.512Q-6.461,1602.349-6.46,1599.384Z" transform="translate(-179.724 0)" fill="#ff3c00" stroke="#000" stroke-width="1"/>
    <path id="路径_712" data-name="路径 712" d="M39.749,1552.061q0-2.965.949-2.965H93.952q1.007,0,1.008,2.965t-1.008,2.964H40.7Q39.749,1555.026,39.749,1552.061Zm0,7.887q0-2.965.949-2.965H54.516q1.008,0,1.008,2.965t-1.008,2.965H40.7Q39.749,1562.914,39.749,1559.948Zm0,7.886q0-2.964.949-2.965H54.516q1.008,0,1.008,2.965t-1.008,2.965H40.7Q39.749,1570.8,39.749,1567.834Zm0,7.888q0-2.966.949-2.965H86.064q1.009,0,1.008,2.965t-1.008,2.964H40.7Q39.749,1578.687,39.749,1575.723Zm0,7.887q0-2.966.949-2.967H54.516q1.008,0,1.008,2.967t-1.008,2.965H40.7Q39.749,1586.575,39.749,1583.61Zm0,7.886q0-2.964.949-2.965H54.516q1.008,0,1.008,2.965t-1.008,2.965H40.7Q39.749,1594.461,39.749,1591.5Zm0,7.888q0-2.966.949-2.965H93.952q1.007,0,1.008,2.965t-1.008,2.965H40.7Q39.749,1602.349,39.749,1599.384Z" transform="translate(-202.213 0)" fill="#ff3c00" stroke="#000" stroke-width="1"/>
    <path id="路径_713" data-name="路径 713" d="M125.234,1567.834q0-2.964.949-2.965H140q1.008,0,1.009,2.965T140,1570.8H126.183Q125.234,1570.8,125.234,1567.834Zm0,7.888q0-2.966.949-2.965H140q1.008,0,1.009,2.965T140,1578.687H126.183Q125.234,1578.687,125.234,1575.723Zm0,7.887q0-2.966.949-2.967h53.252q1.009,0,1.008,2.967t-1.008,2.965H126.183Q125.234,1586.575,125.234,1583.61Zm0,7.886q0-2.964.949-2.965H140q1.008,0,1.009,2.965T140,1594.461H126.183Q125.234,1594.461,125.234,1591.5Zm0,7.888q0-2.966.949-2.965H140q1.008,0,1.009,2.965T140,1602.349H126.183Q125.234,1602.349,125.234,1599.384Zm7.887-39.435q0-2.965.949-2.965h13.818q1.008,0,1.008,2.965t-1.008,2.965H134.07Q133.121,1562.914,133.121,1559.948Zm7.888-7.887q0-2.965.948-2.965h21.705q1.008,0,1.009,2.965t-1.009,2.964H141.956Q141.007,1555.026,141.009,1552.061Zm15.773,7.887q0-2.965.949-2.965h13.818q1.008,0,1.008,2.965t-1.008,2.965H157.731Q156.782,1562.914,156.782,1559.948Zm7.888,7.886q0-2.964.948-2.965h13.818q1.009,0,1.008,2.965t-1.008,2.965H165.618Q164.669,1570.8,164.67,1567.834Zm0,7.888q0-2.966.948-2.965h13.818q1.009,0,1.008,2.965t-1.008,2.964H165.618Q164.669,1578.687,164.67,1575.723Zm0,15.773q0-2.964.948-2.965h13.818q1.009,0,1.008,2.965t-1.008,2.965H165.618Q164.669,1594.461,164.67,1591.5Zm0,7.888q0-2.966.948-2.965h13.818q1.009,0,1.008,2.965t-1.008,2.965H165.618Q164.669,1602.349,164.67,1599.384Z" transform="translate(-224.66 0)" fill="#ff3c00" stroke="#000" stroke-width="1"/>
    <path id="路径_714" data-name="路径 714" d="M210.8,1552.061q0-2.965.948-2.965h45.366q1.008,0,1.008,2.965t-1.008,2.964H211.747Q210.8,1555.026,210.8,1552.061Zm0,7.887q0-2.965.948-2.965h13.817q1.009,0,1.009,2.965t-1.009,2.965H211.747Q210.8,1562.914,210.8,1559.948Zm0,7.886q0-2.964.948-2.965h13.817q1.009,0,1.009,2.965t-1.009,2.965H211.747Q210.8,1570.8,210.8,1567.834Zm0,7.888q0-2.966.948-2.965h13.817q1.009,0,1.009,2.965t-1.009,2.964H211.747Q210.8,1578.687,210.8,1575.723Zm0,7.887q0-2.966.948-2.967h45.366q1.008,0,1.008,2.967t-1.008,2.965H211.747Q210.8,1586.575,210.8,1583.61Zm0,7.886q0-2.964.948-2.965h13.817q1.009,0,1.009,2.965t-1.009,2.965H211.747Q210.8,1594.461,210.8,1591.5Zm0,7.888q0-2.966.948-2.965h13.817q1.009,0,1.009,2.965t-1.009,2.965H211.747Q210.8,1602.349,210.8,1599.384Zm39.435-39.435q0-2.965.948-2.965H265q1.008,0,1.008,2.965T265,1562.914H251.183Q250.234,1562.914,250.234,1559.948Zm0,7.886q0-2.964.948-2.965H265q1.008,0,1.008,2.965T265,1570.8H251.183Q250.234,1570.8,250.234,1567.834Zm0,7.888q0-2.966.948-2.965H265q1.008,0,1.008,2.965T265,1578.687H251.183Q250.234,1578.687,250.234,1575.723Z" transform="translate(-247.129 0)" fill="#ff3c00" stroke="#000" stroke-width="1"/>
    <path id="路径_715" data-name="路径 715" d="M382.008,1552.061q0-2.965.949-2.965h13.818q1.008,0,1.008,2.965t-1.008,2.964H382.957Q382.008,1555.026,382.008,1552.061Zm0,7.887q0-2.965.949-2.965h13.818q1.008,0,1.008,2.965t-1.008,2.965H382.957Q382.008,1562.914,382.008,1559.948Zm0,7.886q0-2.964.949-2.965h13.818q1.008,0,1.008,2.965t-1.008,2.965H382.957Q382.008,1570.8,382.008,1567.834Zm0,7.888q0-2.966.949-2.965h13.818q1.008,0,1.008,2.965t-1.008,2.964H382.957Q382.008,1578.687,382.008,1575.723Zm0,7.887q0-2.966.949-2.967h13.818q1.008,0,1.008,2.967t-1.008,2.965H382.957Q382.008,1586.575,382.008,1583.61Zm0,7.886q0-2.964.949-2.965h13.818q1.008,0,1.008,2.965t-1.008,2.965H382.957Q382.008,1594.461,382.008,1591.5Zm0,7.888q0-2.966.949-2.965h53.254q1.007,0,1.007,2.965t-1.007,2.965H382.957Q382.008,1602.349,382.008,1599.384Z" transform="translate(-292.086 0)" fill="#ff3c00" stroke="#000" stroke-width="1"/>
    <path id="路径_716" data-name="路径 716" d="M467.493,1567.834q0-2.964.949-2.965h13.816q1.009,0,1.009,2.965t-1.009,2.965H468.442Q467.493,1570.8,467.493,1567.834Zm0,7.888q0-2.966.949-2.965h13.816q1.009,0,1.009,2.965t-1.009,2.964H468.442Q467.493,1578.687,467.493,1575.723Zm0,7.887q0-2.966.949-2.967h53.252q1.008,0,1.008,2.967t-1.008,2.965H468.442Q467.493,1586.575,467.493,1583.61Zm0,7.886q0-2.964.949-2.965h13.816q1.009,0,1.009,2.965t-1.009,2.965H468.442Q467.493,1594.461,467.493,1591.5Zm0,7.888q0-2.966.949-2.965h13.816q1.009,0,1.009,2.965t-1.009,2.965H468.442Q467.493,1602.349,467.493,1599.384Zm7.887-39.435q0-2.965.949-2.965h13.818q1.008,0,1.008,2.965t-1.008,2.965H476.329Q475.38,1562.914,475.38,1559.948Zm7.887-7.887q0-2.965.948-2.965h21.7q1.009,0,1.009,2.965t-1.009,2.964h-21.7Q483.266,1555.026,483.267,1552.061Zm15.774,7.887q0-2.965.949-2.965h13.818q1.008,0,1.008,2.965t-1.008,2.965H499.99Q499.041,1562.914,499.041,1559.948Zm7.887,7.886q0-2.964.948-2.965h13.818q1.008,0,1.008,2.965t-1.008,2.965H507.877Q506.928,1570.8,506.928,1567.834Zm0,7.888q0-2.966.948-2.965h13.818q1.008,0,1.008,2.965t-1.008,2.964H507.877Q506.928,1578.687,506.928,1575.723Zm0,15.773q0-2.964.948-2.965h13.818q1.008,0,1.008,2.965t-1.008,2.965H507.877Q506.928,1594.461,506.928,1591.5Zm0,7.888q0-2.966.948-2.965h13.818q1.008,0,1.008,2.965t-1.008,2.965H507.877Q506.928,1602.349,506.928,1599.384Z" transform="translate(-314.533 0)" fill="#ff3c00" stroke="#000" stroke-width="1"/>
    <path id="路径_717" data-name="路径 717" d="M553.057,1552.061q0-2.965.949-2.965h45.366q1.008,0,1.008,2.965t-1.008,2.964H554.006Q553.057,1555.026,553.057,1552.061Zm0,7.887q0-2.965.949-2.965h13.817q1.008,0,1.009,2.965t-1.009,2.965H554.006Q553.057,1562.914,553.057,1559.948Zm0,7.886q0-2.964.949-2.965h13.817q1.008,0,1.009,2.965t-1.009,2.965H554.006Q553.057,1570.8,553.057,1567.834Zm0,7.888q0-2.966.949-2.965h45.366q1.008,0,1.008,2.965t-1.008,2.964H554.006Q553.057,1578.687,553.057,1575.723Zm0,7.887q0-2.966.949-2.967h13.817q1.008,0,1.009,2.967t-1.009,2.965H554.006Q553.057,1586.575,553.057,1583.61Zm0,7.886q0-2.964.949-2.965h13.817q1.008,0,1.009,2.965t-1.009,2.965H554.006Q553.057,1594.461,553.057,1591.5Zm0,7.888q0-2.966.949-2.965h45.366q1.008,0,1.008,2.965t-1.008,2.965H554.006Q553.057,1602.349,553.057,1599.384Zm39.436-39.435q0-2.965.948-2.965h13.818q1.008,0,1.008,2.965t-1.008,2.965H593.441Q592.492,1562.914,592.493,1559.948Zm0,7.886q0-2.964.948-2.965h13.818q1.008,0,1.008,2.965t-1.008,2.965H593.441Q592.492,1570.8,592.493,1567.834Zm0,15.776q0-2.966.948-2.967h13.818q1.008,0,1.008,2.967t-1.008,2.965H593.441Q592.492,1586.575,592.493,1583.61Zm0,7.886q0-2.964.948-2.965h13.818q1.008,0,1.008,2.965t-1.008,2.965H593.441Q592.492,1594.461,592.493,1591.5Z" transform="translate(-337.001 0)" fill="#ff3c00" stroke="#000" stroke-width="1"/>
    <path id="路径_718" data-name="路径 718" d="M638.622,1559.948q0-2.965.949-2.965h13.817q1.008,0,1.009,2.965t-1.009,2.965H639.571Q638.622,1562.914,638.622,1559.948Zm0,7.886q0-2.964.949-2.965h13.817q1.008,0,1.009,2.965t-1.009,2.965H639.571Q638.622,1570.8,638.622,1567.834Zm0,7.888q0-2.966.949-2.965h13.817q1.008,0,1.009,2.965t-1.009,2.964H639.571Q638.622,1578.687,638.622,1575.723Zm0,7.887q0-2.966.949-2.967h13.817q1.008,0,1.009,2.967t-1.009,2.965H639.571Q638.622,1586.575,638.622,1583.61Zm0,7.886q0-2.964.949-2.965h13.817q1.008,0,1.009,2.965t-1.009,2.965H639.571Q638.622,1594.461,638.622,1591.5Zm7.887-39.435q0-2.965.949-2.965h37.479q1.009,0,1.008,2.965t-1.008,2.964H647.458Q646.509,1555.026,646.509,1552.061Zm0,47.323q0-2.966.949-2.965h37.479q1.009,0,1.008,2.965t-1.008,2.965H647.458Q646.509,1602.349,646.509,1599.384Zm31.549-39.435q0-2.965.948-2.965h13.818q1.008,0,1.008,2.965t-1.008,2.965H679.007Q678.057,1562.914,678.058,1559.948Zm0,7.886q0-2.964.948-2.965h13.818q1.008,0,1.008,2.965t-1.008,2.965H679.007Q678.057,1570.8,678.058,1567.834Zm0,7.888q0-2.966.948-2.965h13.818q1.008,0,1.008,2.965t-1.008,2.964H679.007Q678.057,1578.687,678.058,1575.723Zm0,7.887q0-2.966.948-2.967h13.818q1.008,0,1.008,2.967t-1.008,2.965H679.007Q678.057,1586.575,678.058,1583.61Zm0,7.886q0-2.964.948-2.965h13.818q1.008,0,1.008,2.965t-1.008,2.965H679.007Q678.057,1594.461,678.058,1591.5Z" transform="translate(-359.469 0)" fill="#ff3c00" stroke="#000" stroke-width="1"/>
    <path id="路径_719" data-name="路径 719" d="M724.187,1552.061q0-2.965.949-2.965h13.817q1.008,0,1.009,2.965t-1.009,2.964H725.136Q724.187,1555.026,724.187,1552.061Zm0,7.887q0-2.965.949-2.965h13.817q1.008,0,1.009,2.965t-1.009,2.965H725.136Q724.187,1562.914,724.187,1559.948Zm0,7.886q0-2.964.949-2.965h13.817q1.008,0,1.009,2.965t-1.009,2.965H725.136Q724.187,1570.8,724.187,1567.834Zm0,7.888q0-2.966.949-2.965h13.817q1.008,0,1.009,2.965t-1.009,2.964H725.136Q724.187,1578.687,724.187,1575.723Zm0,7.887q0-2.966.949-2.967h13.817q1.008,0,1.009,2.967t-1.009,2.965H725.136Q724.187,1586.575,724.187,1583.61Zm0,7.886q0-2.964.949-2.965h13.817q1.008,0,1.009,2.965t-1.009,2.965H725.136Q724.187,1594.461,724.187,1591.5Zm7.887,7.888q0-2.966.949-2.965H770.5q1.008,0,1.008,2.965t-1.008,2.965H733.023Q732.074,1602.349,732.074,1599.384Zm31.549-47.323q0-2.965.948-2.965h13.818q1.009,0,1.008,2.965t-1.008,2.964H764.571Q763.623,1555.026,763.623,1552.061Zm0,7.887q0-2.965.948-2.965h13.818q1.009,0,1.008,2.965t-1.008,2.965H764.571Q763.623,1562.914,763.623,1559.948Zm0,7.886q0-2.964.948-2.965h13.818q1.009,0,1.008,2.965t-1.008,2.965H764.571Q763.623,1570.8,763.623,1567.834Zm0,7.888q0-2.966.948-2.965h13.818q1.009,0,1.008,2.965t-1.008,2.964H764.571Q763.623,1578.687,763.623,1575.723Zm0,7.887q0-2.966.948-2.967h13.818q1.009,0,1.008,2.967t-1.008,2.965H764.571Q763.623,1586.575,763.623,1583.61Zm0,7.886q0-2.964.948-2.965h13.818q1.009,0,1.008,2.965t-1.008,2.965H764.571Q763.623,1594.461,763.623,1591.5Z" transform="translate(-381.937 0)" fill="#ff3c00" stroke="#000" stroke-width="1"/>
    <path id="路径_720" data-name="路径 720" d="M809.752,1552.061q0-2.965.948-2.965h45.366q1.008,0,1.008,2.965t-1.008,2.964H810.7Q809.752,1555.026,809.752,1552.061Zm0,7.887q0-2.965.948-2.965h13.817q1.009,0,1.009,2.965t-1.009,2.965H810.7Q809.752,1562.914,809.752,1559.948Zm0,7.886q0-2.964.948-2.965h13.817q1.009,0,1.009,2.965t-1.009,2.965H810.7Q809.752,1570.8,809.752,1567.834Zm0,7.888q0-2.966.948-2.965h13.817q1.009,0,1.009,2.965t-1.009,2.964H810.7Q809.752,1578.687,809.752,1575.723Zm0,7.887q0-2.966.948-2.967h37.478q1.009,0,1.009,2.967t-1.009,2.965H810.7Q809.752,1586.575,809.752,1583.61Zm0,7.886q0-2.964.948-2.965h13.817q1.009,0,1.009,2.965t-1.009,2.965H810.7Q809.752,1594.461,809.752,1591.5Zm0,7.888q0-2.966.948-2.965h13.817q1.009,0,1.009,2.965t-1.009,2.965H810.7Q809.752,1602.349,809.752,1599.384Zm23.661-7.888q0-2.964.949-2.965h21.7q1.008,0,1.008,2.965t-1.008,2.965h-21.7Q833.413,1594.461,833.413,1591.5Zm7.887-15.773q0-2.966.949-2.965h21.7q1.008,0,1.008,2.965t-1.008,2.964h-21.7Q841.3,1578.687,841.3,1575.723Zm0,23.661q0-2.966.949-2.965h21.7q1.008,0,1.008,2.965t-1.008,2.965h-21.7Q841.3,1602.349,841.3,1599.384Zm7.887-39.435q0-2.965.948-2.965h13.818q1.008,0,1.008,2.965t-1.008,2.965H850.136Q849.187,1562.914,849.187,1559.948Zm0,7.886q0-2.964.948-2.965h13.818q1.008,0,1.008,2.965t-1.008,2.965H850.136Q849.187,1570.8,849.187,1567.834Z" transform="translate(-404.406 0)" fill="#ff3c00" stroke="#000" stroke-width="1"/>
    <path id="路径_721" data-name="路径 721" d="M895.316,1559.948q0-2.965.949-2.965h13.817q1.008,0,1.009,2.965t-1.009,2.965H896.265Q895.316,1562.914,895.316,1559.948Zm0,7.886q0-2.964.949-2.965h13.817q1.008,0,1.009,2.965t-1.009,2.965H896.265Q895.316,1570.8,895.316,1567.834Zm0,23.661q0-2.964.949-2.965h13.817q1.008,0,1.009,2.965t-1.009,2.965H896.265Q895.316,1594.461,895.316,1591.5Zm7.887-39.435q0-2.965.949-2.965h29.591q1.008,0,1.009,2.965t-1.009,2.964H904.152Q903.2,1555.026,903.2,1552.061Zm0,23.661q0-2.966.949-2.965h37.478q1.009,0,1.008,2.965t-1.008,2.964H904.152Q903.2,1578.687,903.2,1575.723Zm0,23.661q0-2.966.949-2.965h37.478q1.009,0,1.008,2.965t-1.008,2.965H904.152Q903.2,1602.349,903.2,1599.384Zm23.661-39.435q0-2.965.949-2.965h13.817q1.009,0,1.008,2.965t-1.008,2.965H927.814Q926.865,1562.914,926.865,1559.948Zm7.887,23.661q0-2.966.948-2.967h13.818q1.008,0,1.008,2.967t-1.008,2.965H935.7Q934.751,1586.575,934.752,1583.61Zm0,7.886q0-2.964.948-2.965h13.818q1.008,0,1.008,2.965t-1.008,2.965H935.7Q934.751,1594.461,934.752,1591.5Z" transform="translate(-426.874 0)" fill="#ff3c00" stroke="#000" stroke-width="1"/>
    <path id="路径_722" data-name="路径 722" d="M1000.139,1608.781c0-.9.144-1.357.434-1.357h24.368q.461,0,.461,1.357t-.461,1.357h-24.368C1000.283,1610.138,1000.139,1609.685,1000.139,1608.781Zm0,3.609c0-.9.144-1.357.434-1.357h6.322q.461,0,.462,1.357t-.462,1.357h-6.322C1000.283,1613.747,1000.139,1613.294,1000.139,1612.39Zm0,3.609c0-.9.144-1.357.434-1.357h6.322q.461,0,.462,1.357t-.462,1.357h-6.322C1000.283,1617.355,1000.139,1616.9,1000.139,1616Zm0,3.609c0-.9.144-1.357.434-1.357h20.758q.461,0,.462,1.357t-.462,1.357h-20.758C1000.283,1620.964,1000.139,1620.512,1000.139,1619.608Zm0,3.61c0-.9.144-1.358.434-1.358h6.322q.461,0,.462,1.358t-.462,1.357h-6.322C1000.283,1624.574,1000.139,1624.121,1000.139,1623.217Zm0,3.608c0-.9.144-1.356.434-1.356h6.322q.461,0,.462,1.356c0,.906-.154,1.357-.462,1.357h-6.322C1000.283,1628.182,1000.139,1627.731,1000.139,1626.825Zm0,3.61c0-.9.144-1.357.434-1.357h6.322q.461,0,.462,1.357t-.462,1.357h-6.322C1000.283,1631.792,1000.139,1631.339,1000.139,1630.435Z" transform="translate(-454.399 -15.316)" fill="#fff" stroke="#000" stroke-width="1"/>
    <path id="路径_723" data-name="路径 723" d="M1039.255,1608.781q0-1.357.434-1.357h20.758q.461,0,.462,1.357t-.462,1.357h-20.758Q1039.255,1610.138,1039.255,1608.781Zm0,3.609q0-1.356.434-1.357h6.323q.461,0,.461,1.357t-.461,1.357h-6.323Q1039.255,1613.747,1039.255,1612.39Zm0,3.609q0-1.357.434-1.357h6.323q.461,0,.461,1.357t-.461,1.357h-6.323Q1039.255,1617.355,1039.255,1616Zm0,3.609q0-1.356.434-1.357h6.323q.461,0,.461,1.357t-.461,1.357h-6.323Q1039.255,1620.964,1039.255,1619.608Zm0,3.61q0-1.357.434-1.358h17.15q.461,0,.461,1.358t-.461,1.357h-17.15Q1039.255,1624.574,1039.255,1623.217Zm0,3.608q0-1.356.434-1.356h6.323q.461,0,.461,1.356c0,.906-.153,1.357-.461,1.357h-6.323C1039.4,1628.182,1039.255,1627.731,1039.255,1626.825Zm0,3.61q0-1.357.434-1.357h6.323q.461,0,.461,1.357t-.461,1.357h-6.323Q1039.255,1631.792,1039.255,1630.435Zm10.827-3.61q0-1.356.434-1.356h9.931q.461,0,.462,1.356c0,.906-.154,1.357-.462,1.357h-9.931C1050.227,1628.182,1050.082,1627.731,1050.082,1626.825Zm3.609-7.218q0-1.356.434-1.357h9.932q.461,0,.462,1.357t-.462,1.357h-9.932Q1053.691,1620.964,1053.691,1619.608Zm0,10.827q0-1.357.434-1.357h9.932q.461,0,.462,1.357t-.462,1.357h-9.932Q1053.691,1631.792,1053.691,1630.435Zm3.609-18.045q0-1.356.434-1.357h6.323q.461,0,.462,1.357t-.462,1.357h-6.323Q1057.3,1613.747,1057.3,1612.39Zm0,3.609q0-1.357.434-1.357h6.323q.461,0,.462,1.357t-.462,1.357h-6.323Q1057.3,1617.355,1057.3,1616Z" transform="translate(-464.67 -15.316)" fill="#fff" stroke="#000" stroke-width="1"/>
    <path id="路径_724" data-name="路径 724" d="M1078.408,1612.39q0-1.356.434-1.357h6.323q.461,0,.461,1.357t-.461,1.357h-6.323Q1078.409,1613.747,1078.408,1612.39Zm0,3.609q0-1.357.434-1.357h6.323q.461,0,.461,1.357t-.461,1.357h-6.323Q1078.409,1617.355,1078.408,1616Zm0,3.609q0-1.356.434-1.357h6.323q.461,0,.461,1.357t-.461,1.357h-6.323Q1078.409,1620.964,1078.408,1619.608Zm0,3.61q0-1.357.434-1.358h6.323q.461,0,.461,1.358t-.461,1.357h-6.323Q1078.409,1624.574,1078.408,1623.217Zm0,3.608q0-1.356.434-1.356h6.323q.461,0,.461,1.356c0,.906-.153,1.357-.461,1.357h-6.323C1078.553,1628.182,1078.408,1627.731,1078.408,1626.825Zm3.61-18.045q0-1.357.434-1.357H1099.6q.461,0,.462,1.357t-.462,1.357h-17.149Q1082.016,1610.138,1082.018,1608.781Zm0,21.654q0-1.357.434-1.357H1099.6q.461,0,.462,1.357t-.462,1.357h-17.149Q1082.016,1631.792,1082.018,1630.435Zm14.436-18.045q0-1.356.434-1.357h6.323q.461,0,.462,1.357t-.462,1.357h-6.323Q1096.453,1613.747,1096.453,1612.39Zm0,3.609q0-1.357.434-1.357h6.323q.461,0,.462,1.357t-.462,1.357h-6.323Q1096.453,1617.355,1096.453,1616Zm0,3.609q0-1.356.434-1.357h6.323q.461,0,.462,1.357t-.462,1.357h-6.323Q1096.453,1620.964,1096.453,1619.608Zm0,3.61q0-1.357.434-1.358h6.323q.461,0,.462,1.358t-.462,1.357h-6.323Q1096.453,1624.574,1096.453,1623.217Zm0,3.608q0-1.356.434-1.356h6.323q.461,0,.462,1.356c0,.906-.154,1.357-.462,1.357h-6.323C1096.6,1628.182,1096.453,1627.731,1096.453,1626.825Z" transform="translate(-474.951 -15.316)" fill="#fff" stroke="#000" stroke-width="1"/>
    <path id="路径_725" data-name="路径 725" d="M1117.562,1608.781q0-1.357.434-1.357h6.323q.461,0,.461,1.357t-.461,1.357H1118Q1117.562,1610.138,1117.562,1608.781Zm0,3.609q0-1.356.434-1.357h9.931q.461,0,.462,1.357t-.462,1.357H1118Q1117.562,1613.747,1117.562,1612.39Zm0,3.609q0-1.357.434-1.357h24.368q.46,0,.461,1.357t-.461,1.357H1118Q1117.562,1617.355,1117.562,1616Zm0,3.609q0-1.356.434-1.357h24.368q.46,0,.461,1.357t-.461,1.357H1118Q1117.562,1620.964,1117.562,1619.608Zm0,3.61q0-1.357.434-1.358h6.323q.461,0,.461,1.358t-.461,1.357H1118Q1117.562,1624.574,1117.562,1623.217Zm0,3.608q0-1.356.434-1.356h6.323q.461,0,.461,1.356c0,.906-.153,1.357-.461,1.357H1118C1117.707,1628.182,1117.562,1627.731,1117.562,1626.825Zm0,3.61q0-1.357.434-1.357h6.323q.461,0,.461,1.357t-.461,1.357H1118Q1117.562,1631.792,1117.562,1630.435Zm10.827-7.218q0-1.357.434-1.358h2.714q.461,0,.462,1.358t-.462,1.357h-2.714Q1128.39,1624.574,1128.389,1623.217Zm3.61-10.828q0-1.356.434-1.357h9.932q.46,0,.461,1.357t-.461,1.357h-9.932Q1132,1613.747,1132,1612.39Zm3.608-3.609q0-1.357.434-1.357h6.323q.46,0,.461,1.357t-.461,1.357h-6.323Q1135.607,1610.138,1135.606,1608.781Zm0,14.436q0-1.357.434-1.358h6.323q.46,0,.461,1.358t-.461,1.357h-6.323Q1135.607,1624.574,1135.606,1623.217Zm0,3.608q0-1.356.434-1.356h6.323q.46,0,.461,1.356c0,.906-.154,1.357-.461,1.357h-6.323C1135.752,1628.182,1135.606,1627.731,1135.606,1626.825Zm0,3.61q0-1.357.434-1.357h6.323q.46,0,.461,1.357t-.461,1.357h-6.323Q1135.607,1631.792,1135.606,1630.435Z" transform="translate(-485.232 -15.316)" fill="#fff" stroke="#000" stroke-width="1"/>
    <path id="路径_726" data-name="路径 726" d="M1200.763,1608.781c0-.9.144-1.357.434-1.357h20.758q.461,0,.462,1.357t-.462,1.357H1201.2C1200.907,1610.138,1200.763,1609.685,1200.763,1608.781Zm7.218,3.609q0-1.356.434-1.357h6.323q.461,0,.461,1.357t-.461,1.357h-6.323Q1207.98,1613.747,1207.981,1612.39Zm0,3.609q0-1.357.434-1.357h6.323q.461,0,.461,1.357t-.461,1.357h-6.323Q1207.98,1617.355,1207.981,1616Zm0,3.609q0-1.356.434-1.357h6.323q.461,0,.461,1.357t-.461,1.357h-6.323Q1207.98,1620.964,1207.981,1619.608Zm0,3.61q0-1.357.434-1.358h6.323q.461,0,.461,1.358t-.461,1.357h-6.323Q1207.98,1624.574,1207.981,1623.217Zm0,3.608q0-1.356.434-1.356h6.323q.461,0,.461,1.356c0,.906-.153,1.357-.461,1.357h-6.323C1208.125,1628.182,1207.981,1627.731,1207.981,1626.825Zm0,3.61q0-1.357.434-1.357h6.323q.461,0,.461,1.357t-.461,1.357h-6.323Q1207.98,1631.792,1207.981,1630.435Z" transform="translate(-507.08 -15.316)" fill="#fff" stroke="#000" stroke-width="1"/>
    <path id="路径_727" data-name="路径 727" d="M1235.022,1608.781q0-1.357.434-1.357h6.323q.461,0,.461,1.357t-.461,1.357h-6.323Q1235.022,1610.138,1235.022,1608.781Zm0,3.609q0-1.356.434-1.357h6.323q.461,0,.461,1.357t-.461,1.357h-6.323Q1235.022,1613.747,1235.022,1612.39Zm0,3.609q0-1.357.434-1.357h6.323q.461,0,.461,1.357t-.461,1.357h-6.323Q1235.022,1617.355,1235.022,1616Zm0,3.609q0-1.356.434-1.357h24.367q.461,0,.462,1.357t-.462,1.357h-24.367Q1235.022,1620.964,1235.022,1619.608Zm0,3.61q0-1.357.434-1.358h6.323q.461,0,.461,1.358t-.461,1.357h-6.323Q1235.022,1624.574,1235.022,1623.217Zm0,3.608q0-1.356.434-1.356h6.323q.461,0,.461,1.356c0,.906-.153,1.357-.461,1.357h-6.323C1235.167,1628.182,1235.022,1627.731,1235.022,1626.825Zm0,3.61q0-1.357.434-1.357h6.323q.461,0,.461,1.357t-.461,1.357h-6.323Q1235.022,1631.792,1235.022,1630.435Zm18.045-21.654q0-1.357.434-1.357h6.323q.461,0,.462,1.357t-.462,1.357H1253.5Q1253.067,1610.138,1253.066,1608.781Zm0,3.609q0-1.356.434-1.357h6.323q.461,0,.462,1.357t-.462,1.357H1253.5Q1253.067,1613.747,1253.066,1612.39Zm0,3.609q0-1.357.434-1.357h6.323q.461,0,.462,1.357t-.462,1.357H1253.5Q1253.067,1617.355,1253.066,1616Zm0,7.219q0-1.357.434-1.358h6.323q.461,0,.462,1.358t-.462,1.357H1253.5Q1253.067,1624.574,1253.066,1623.217Zm0,3.608q0-1.356.434-1.356h6.323q.461,0,.462,1.356c0,.906-.154,1.357-.462,1.357H1253.5C1253.212,1628.182,1253.066,1627.731,1253.066,1626.825Zm0,3.61q0-1.357.434-1.357h6.323q.461,0,.462,1.357t-.462,1.357H1253.5Q1253.067,1631.792,1253.066,1630.435Z" transform="translate(-516.076 -15.316)" fill="#fff" stroke="#000" stroke-width="1"/>
    <path id="路径_728" data-name="路径 728" d="M1279.07,1608.781q0-1.357.434-1.357h20.759q.461,0,.462,1.357t-.462,1.357H1279.5Q1279.069,1610.138,1279.07,1608.781Zm0,21.654q0-1.357.434-1.357h20.759q.461,0,.462,1.357t-.462,1.357H1279.5Q1279.069,1631.792,1279.07,1630.435Zm7.218-18.045q0-1.356.434-1.357h6.323q.461,0,.461,1.357t-.461,1.357h-6.323Q1286.288,1613.747,1286.288,1612.39Zm0,3.609q0-1.357.434-1.357h6.323q.461,0,.461,1.357t-.461,1.357h-6.323Q1286.288,1617.355,1286.288,1616Zm0,3.609q0-1.356.434-1.357h6.323q.461,0,.461,1.357t-.461,1.357h-6.323Q1286.288,1620.964,1286.288,1619.608Zm0,3.61q0-1.357.434-1.358h6.323q.461,0,.461,1.358t-.461,1.357h-6.323Q1286.288,1624.574,1286.288,1623.217Zm0,3.608q0-1.356.434-1.356h6.323q.461,0,.461,1.356c0,.906-.153,1.357-.461,1.357h-6.323C1286.432,1628.182,1286.288,1627.731,1286.288,1626.825Z" transform="translate(-527.642 -15.316)" fill="#fff" stroke="#000" stroke-width="1"/>
    <path id="路径_729" data-name="路径 729" d="M1313.328,1608.781q0-1.357.434-1.357h20.759q.461,0,.462,1.357t-.462,1.357h-20.759Q1313.329,1610.138,1313.328,1608.781Zm0,3.609q0-1.356.434-1.357h6.323q.461,0,.461,1.357t-.461,1.357h-6.323Q1313.329,1613.747,1313.328,1612.39Zm0,3.609q0-1.357.434-1.357h6.323q.461,0,.461,1.357t-.461,1.357h-6.323Q1313.329,1617.355,1313.328,1616Zm0,3.609q0-1.356.434-1.357h6.323q.461,0,.461,1.357t-.461,1.357h-6.323Q1313.329,1620.964,1313.328,1619.608Zm0,3.61q0-1.357.434-1.358h17.15q.461,0,.461,1.358t-.461,1.357h-17.15Q1313.329,1624.574,1313.328,1623.217Zm0,3.608q0-1.356.434-1.356h6.323q.461,0,.461,1.356c0,.906-.153,1.357-.461,1.357h-6.323C1313.473,1628.182,1313.328,1627.731,1313.328,1626.825Zm0,3.61q0-1.357.434-1.357h6.323q.461,0,.461,1.357t-.461,1.357h-6.323Q1313.329,1631.792,1313.328,1630.435Zm10.827-3.61q0-1.356.434-1.356h9.932q.461,0,.462,1.356c0,.906-.154,1.357-.462,1.357h-9.932C1324.3,1628.182,1324.155,1627.731,1324.155,1626.825Zm3.609-7.218q0-1.356.434-1.357h9.932q.461,0,.462,1.357t-.462,1.357H1328.2Q1327.764,1620.964,1327.764,1619.608Zm0,10.827q0-1.357.434-1.357h9.932q.461,0,.462,1.357t-.462,1.357H1328.2Q1327.764,1631.792,1327.764,1630.435Zm3.609-18.045q0-1.356.434-1.357h6.323q.461,0,.462,1.357t-.462,1.357h-6.323Q1331.373,1613.747,1331.373,1612.39Zm0,3.609q0-1.357.434-1.357h6.323q.461,0,.462,1.357t-.462,1.357h-6.323Q1331.373,1617.355,1331.373,1616Z" transform="translate(-536.638 -15.316)" fill="#fff" stroke="#000" stroke-width="1"/>
    <path id="路径_730" data-name="路径 730" d="M1352.482,1608.781q0-1.357.435-1.357h17.149q.461,0,.461,1.357t-.461,1.357h-17.149Q1352.481,1610.138,1352.482,1608.781Zm0,3.609q0-1.356.435-1.357h6.323q.461,0,.461,1.357t-.461,1.357h-6.323Q1352.481,1613.747,1352.482,1612.39Zm0,3.609q0-1.357.435-1.357h6.323q.461,0,.461,1.357t-.461,1.357h-6.323Q1352.481,1617.355,1352.482,1616Zm0,3.609q0-1.356.435-1.357h6.323q.461,0,.461,1.357t-.461,1.357h-6.323Q1352.481,1620.964,1352.482,1619.608Zm0,3.61q0-1.357.435-1.358h6.323q.461,0,.461,1.358t-.461,1.357h-6.323Q1352.481,1624.574,1352.482,1623.217Zm0,3.608q0-1.356.435-1.356h6.323q.461,0,.461,1.356c0,.906-.153,1.357-.461,1.357h-6.323C1352.626,1628.182,1352.482,1627.731,1352.482,1626.825Zm0,3.61q0-1.357.435-1.357h17.149q.461,0,.461,1.357t-.461,1.357h-17.149Q1352.481,1631.792,1352.482,1630.435Zm14.436-18.045q0-1.356.434-1.357h6.322q.461,0,.462,1.357t-.462,1.357h-6.322Q1366.917,1613.747,1366.918,1612.39Zm0,14.436q0-1.356.434-1.356h6.322q.461,0,.462,1.356c0,.906-.154,1.357-.462,1.357h-6.322C1367.062,1628.182,1366.918,1627.731,1366.918,1626.825Zm3.608-10.827q0-1.357.434-1.357h6.323q.461,0,.462,1.357t-.462,1.357h-6.323Q1370.527,1617.355,1370.527,1616Zm0,3.609q0-1.356.434-1.357h6.323q.461,0,.462,1.357t-.462,1.357h-6.323Q1370.527,1620.964,1370.527,1619.608Zm0,3.61q0-1.357.434-1.358h6.323q.461,0,.462,1.358t-.462,1.357h-6.323Q1370.527,1624.574,1370.527,1623.217Z" transform="translate(-546.919 -15.316)" fill="#fff" stroke="#000" stroke-width="1"/>
    <path id="路径_731" data-name="路径 731" d="M1430.788,1608.781q0-1.357.434-1.357h6.323q.461,0,.461,1.357t-.461,1.357h-6.323Q1430.789,1610.138,1430.788,1608.781Zm0,3.609q0-1.356.434-1.357h6.323q.461,0,.461,1.357t-.461,1.357h-6.323Q1430.789,1613.747,1430.788,1612.39Zm0,3.609q0-1.357.434-1.357h6.323q.461,0,.461,1.357t-.461,1.357h-6.323Q1430.789,1617.355,1430.788,1616Zm0,3.609q0-1.356.434-1.357h6.323q.461,0,.461,1.357t-.461,1.357h-6.323Q1430.789,1620.964,1430.788,1619.608Zm0,3.61q0-1.357.434-1.358h24.368q.461,0,.462,1.358t-.462,1.357h-24.368Q1430.789,1624.574,1430.788,1623.217Zm0,3.608q0-1.356.434-1.356h9.932q.461,0,.462,1.356c0,.906-.154,1.357-.462,1.357h-9.932C1430.933,1628.182,1430.788,1627.731,1430.788,1626.825Zm0,3.61q0-1.357.434-1.357h6.323q.461,0,.461,1.357t-.461,1.357h-6.323Q1430.789,1631.792,1430.788,1630.435Zm10.828-10.827q0-1.356.434-1.357h2.713q.461,0,.462,1.357t-.462,1.357h-2.713Q1441.615,1620.964,1441.615,1619.608Zm3.609,7.218q0-1.356.434-1.356h9.931q.461,0,.462,1.356c0,.906-.154,1.357-.462,1.357h-9.931C1445.369,1628.182,1445.224,1627.731,1445.224,1626.825Zm3.609-18.045q0-1.357.434-1.357h6.322q.461,0,.462,1.357t-.462,1.357h-6.322Q1448.833,1610.138,1448.833,1608.781Zm0,3.609q0-1.356.434-1.357h6.322q.461,0,.462,1.357t-.462,1.357h-6.322Q1448.833,1613.747,1448.833,1612.39Zm0,3.609q0-1.357.434-1.357h6.322q.461,0,.462,1.357t-.462,1.357h-6.322Q1448.833,1617.355,1448.833,1616Zm0,3.609q0-1.356.434-1.357h6.322q.461,0,.462,1.357t-.462,1.357h-6.322Q1448.833,1620.964,1448.833,1619.608Zm0,10.827q0-1.357.434-1.357h6.322q.461,0,.462,1.357t-.462,1.357h-6.322Q1448.833,1631.792,1448.833,1630.435Z" transform="translate(-567.481 -15.316)" fill="#fff" stroke="#000" stroke-width="1"/>
    <path id="路径_732" data-name="路径 732" d="M1469.942,1612.39q0-1.356.433-1.357h6.323q.461,0,.461,1.357t-.461,1.357h-6.323Q1469.942,1613.747,1469.942,1612.39Zm0,3.609q0-1.357.433-1.357h6.323q.461,0,.461,1.357t-.461,1.357h-6.323Q1469.942,1617.355,1469.942,1616Zm0,3.609q0-1.356.433-1.357h6.323q.461,0,.461,1.357t-.461,1.357h-6.323Q1469.942,1620.964,1469.942,1619.608Zm0,3.61q0-1.357.433-1.358h6.323q.461,0,.461,1.358t-.461,1.357h-6.323Q1469.942,1624.574,1469.942,1623.217Zm0,3.608q0-1.356.433-1.356h6.323q.461,0,.461,1.356c0,.906-.154,1.357-.461,1.357h-6.323C1470.086,1628.182,1469.942,1627.731,1469.942,1626.825Zm3.609-18.045c0-.9.144-1.357.434-1.357h17.149q.461,0,.462,1.357t-.462,1.357h-17.149C1473.695,1610.138,1473.551,1609.685,1473.551,1608.781Zm0,21.654c0-.9.144-1.357.434-1.357h17.149q.461,0,.462,1.357t-.462,1.357h-17.149C1473.695,1631.792,1473.551,1631.339,1473.551,1630.435Zm14.436-18.045q0-1.356.434-1.357h6.323q.461,0,.462,1.357t-.462,1.357h-6.323Q1487.987,1613.747,1487.987,1612.39Zm0,3.609q0-1.357.434-1.357h6.323q.461,0,.462,1.357t-.462,1.357h-6.323Q1487.987,1617.355,1487.987,1616Zm0,3.609q0-1.356.434-1.357h6.323q.461,0,.462,1.357t-.462,1.357h-6.323Q1487.987,1620.964,1487.987,1619.608Zm0,3.61q0-1.357.434-1.358h6.323q.461,0,.462,1.358t-.462,1.357h-6.323Q1487.987,1624.574,1487.987,1623.217Zm0,3.608q0-1.356.434-1.356h6.323q.461,0,.462,1.356c0,.906-.154,1.357-.462,1.357h-6.323C1488.132,1628.182,1487.987,1627.731,1487.987,1626.825Z" transform="translate(-577.763 -15.316)" fill="#fff" stroke="#000" stroke-width="1"/>
    <path id="路径_733" data-name="路径 733" d="M1509.095,1608.781q0-1.357.434-1.357h20.758q.461,0,.462,1.357t-.462,1.357h-20.758Q1509.095,1610.138,1509.095,1608.781Zm0,3.609q0-1.356.434-1.357h6.323q.461,0,.461,1.357t-.461,1.357h-6.323Q1509.095,1613.747,1509.095,1612.39Zm0,3.609q0-1.357.434-1.357h6.323q.461,0,.461,1.357t-.461,1.357h-6.323Q1509.095,1617.355,1509.095,1616Zm0,3.609q0-1.356.434-1.357h6.323q.461,0,.461,1.357t-.461,1.357h-6.323Q1509.095,1620.964,1509.095,1619.608Zm0,3.61q0-1.357.434-1.358h17.15q.461,0,.461,1.358t-.461,1.357h-17.15Q1509.095,1624.574,1509.095,1623.217Zm0,3.608q0-1.356.434-1.356h6.323q.461,0,.461,1.356c0,.906-.153,1.357-.461,1.357h-6.323C1509.24,1628.182,1509.095,1627.731,1509.095,1626.825Zm0,3.61q0-1.357.434-1.357h6.323q.461,0,.461,1.357t-.461,1.357h-6.323Q1509.095,1631.792,1509.095,1630.435Zm10.827-3.61q0-1.356.434-1.356h9.932q.461,0,.462,1.356c0,.906-.154,1.357-.462,1.357h-9.932C1520.067,1628.182,1519.922,1627.731,1519.922,1626.825Zm3.609-7.218q0-1.356.434-1.357h9.932q.461,0,.462,1.357t-.462,1.357h-9.932Q1523.53,1620.964,1523.531,1619.608Zm0,10.827q0-1.357.434-1.357h9.932q.461,0,.462,1.357t-.462,1.357h-9.932Q1523.53,1631.792,1523.531,1630.435Zm3.609-18.045q0-1.356.434-1.357h6.323q.461,0,.462,1.357t-.462,1.357h-6.323Q1527.14,1613.747,1527.14,1612.39Zm0,3.609q0-1.357.434-1.357h6.323q.461,0,.462,1.357t-.462,1.357h-6.323Q1527.14,1617.355,1527.14,1616Z" transform="translate(-588.044 -15.316)" fill="#fff" stroke="#000" stroke-width="1"/>
    <path id="路径_734" data-name="路径 734" d="M1548.285,1608.781q0-1.357.434-1.357h6.322q.461,0,.462,1.357t-.462,1.357h-6.322Q1548.285,1610.138,1548.285,1608.781Zm0,3.609q0-1.356.434-1.357h6.322q.461,0,.462,1.357t-.462,1.357h-6.322Q1548.285,1613.747,1548.285,1612.39Zm0,3.609q0-1.357.434-1.357h6.322q.461,0,.462,1.357t-.462,1.357h-6.322Q1548.285,1617.355,1548.285,1616Zm0,3.609q0-1.356.434-1.357h6.322q.461,0,.462,1.357t-.462,1.357h-6.322Q1548.285,1620.964,1548.285,1619.608Zm0,3.61q0-1.357.434-1.358h6.322q.461,0,.462,1.358t-.462,1.357h-6.322Q1548.285,1624.574,1548.285,1623.217Zm0,3.608q0-1.356.434-1.356h6.322q.461,0,.462,1.356c0,.906-.154,1.357-.462,1.357h-6.322C1548.43,1628.182,1548.285,1627.731,1548.285,1626.825Zm0,3.61q0-1.357.434-1.357h24.368q.461,0,.461,1.357t-.461,1.357h-24.368Q1548.285,1631.792,1548.285,1630.435Z" transform="translate(-598.335 -15.316)" fill="#fff" stroke="#000" stroke-width="1"/>
    <path id="路径_735" data-name="路径 735" d="M1587.4,1608.781q0-1.357.434-1.357h17.15q.461,0,.461,1.357t-.461,1.357h-17.15Q1587.4,1610.138,1587.4,1608.781Zm0,3.609q0-1.356.434-1.357h6.323q.461,0,.461,1.357t-.461,1.357h-6.323Q1587.4,1613.747,1587.4,1612.39Zm0,3.609q0-1.357.434-1.357h6.323q.461,0,.461,1.357t-.461,1.357h-6.323Q1587.4,1617.355,1587.4,1616Zm0,3.609q0-1.356.434-1.357h6.323q.461,0,.461,1.357t-.461,1.357h-6.323Q1587.4,1620.964,1587.4,1619.608Zm0,3.61q0-1.357.434-1.358h6.323q.461,0,.461,1.358t-.461,1.357h-6.323Q1587.4,1624.574,1587.4,1623.217Zm0,3.608q0-1.356.434-1.356h6.323q.461,0,.461,1.356c0,.906-.153,1.357-.461,1.357h-6.323C1587.546,1628.182,1587.4,1627.731,1587.4,1626.825Zm0,3.61q0-1.357.434-1.357h17.15q.461,0,.461,1.357t-.461,1.357h-17.15Q1587.4,1631.792,1587.4,1630.435Zm14.436-18.045q0-1.356.434-1.357h6.322q.461,0,.462,1.357t-.462,1.357h-6.322Q1601.837,1613.747,1601.838,1612.39Zm0,14.436q0-1.356.434-1.356h6.322q.461,0,.462,1.356c0,.906-.154,1.357-.462,1.357h-6.322C1601.982,1628.182,1601.838,1627.731,1601.838,1626.825Zm3.608-10.827q0-1.357.434-1.357h6.323q.462,0,.462,1.357t-.462,1.357h-6.323Q1605.447,1617.355,1605.446,1616Zm0,3.609q0-1.356.434-1.357h6.323q.462,0,.462,1.357t-.462,1.357h-6.323Q1605.447,1620.964,1605.446,1619.608Zm0,3.61q0-1.357.434-1.358h6.323q.462,0,.462,1.358t-.462,1.357h-6.323Q1605.447,1624.574,1605.446,1623.217Z" transform="translate(-608.606 -15.316)" fill="#fff" stroke="#000" stroke-width="1"/>
    <path id="路径_736" data-name="路径 736" d="M1626.555,1612.39q0-1.356.434-1.357h6.323q.461,0,.461,1.357t-.461,1.357h-6.323Q1626.555,1613.747,1626.555,1612.39Zm0,3.609q0-1.357.434-1.357h6.323q.461,0,.461,1.357t-.461,1.357h-6.323Q1626.555,1617.355,1626.555,1616Zm0,10.827q0-1.356.434-1.356h6.323q.461,0,.461,1.356c0,.906-.153,1.357-.461,1.357h-6.323C1626.7,1628.182,1626.555,1627.731,1626.555,1626.825Zm3.609-18.045q0-1.357.435-1.357h13.541q.461,0,.461,1.357t-.461,1.357H1630.6Q1630.163,1610.138,1630.164,1608.781Zm0,10.827q0-1.356.435-1.357h17.149q.461,0,.462,1.357t-.462,1.357H1630.6Q1630.163,1620.964,1630.164,1619.608Zm0,10.827q0-1.357.435-1.357h17.149q.461,0,.462,1.357t-.462,1.357H1630.6Q1630.163,1631.792,1630.164,1630.435Zm10.828-18.045q0-1.356.434-1.357h6.322q.461,0,.462,1.357t-.462,1.357h-6.322Q1640.99,1613.747,1640.991,1612.39Zm3.609,10.828q0-1.357.434-1.358h6.323q.461,0,.462,1.358t-.462,1.357h-6.323Q1644.6,1624.574,1644.6,1623.217Zm0,3.608q0-1.356.434-1.356h6.323q.461,0,.462,1.356c0,.906-.154,1.357-.462,1.357h-6.323C1644.745,1628.182,1644.6,1627.731,1644.6,1626.825Z" transform="translate(-618.887 -15.316)" fill="#fff" stroke="#000" stroke-width="1"/>
    <path id="路径_737" data-name="路径 737" d="M1670.639,1633.251q0-1.356.435-1.356h6.323q.461,0,.462,1.356c0,.906-.154,1.357-.462,1.357h-6.323C1670.783,1634.608,1670.639,1634.157,1670.639,1633.251Zm0,3.61q0-1.357.435-1.357h6.323q.461,0,.462,1.357t-.462,1.357h-6.323Q1670.638,1638.218,1670.639,1636.861Z" transform="translate(-630.463 -21.742)" fill="#fff" stroke="#000" stroke-width="1"/>
    <rect id="矩形_26" data-name="矩形 26" width="1253.453" height="5.162" transform="translate(-730.333 1611.314)" fill="#ff3c00" stroke="#000" stroke-width="1"/>
  </g>
</svg>
