<svg xmlns="http://www.w3.org/2000/svg" width="1503.509" height="44.5" viewBox="0 0 1503.509 44.5">
  <g id="组_56" data-name="组 56" transform="translate(-193.733 -1389.311)">
    <path id="路径_633" data-name="路径 633" d="M194.233,1391.65q0-1.839.589-1.839h33.046q.624,0,.625,1.839t-.625,1.84H194.822Q194.234,1393.49,194.233,1391.65Zm0,4.9q0-1.841.589-1.84H203.4q.626,0,.626,1.84t-.626,1.84h-8.574Q194.234,1398.385,194.233,1396.545Zm9.789,14.683q0-1.841.589-1.841h8.574q.626,0,.626,1.841t-.626,1.839h-8.574Q204.022,1413.067,204.022,1411.228Zm0,4.893q0-1.839.589-1.84h8.574q.626,0,.626,1.84t-.626,1.84h-8.574Q204.022,1417.961,204.022,1416.121Zm0,4.9q0-1.841.589-1.84h8.574q.626,0,.626,1.84t-.626,1.839h-8.574Q204.022,1422.855,204.022,1421.016Zm4.894-14.683q0-1.841.589-1.84h8.574q.626,0,.626,1.84t-.626,1.84h-8.574Q208.915,1408.173,208.916,1406.333Zm4.9-4.9q0-1.839.588-1.839h8.574q.625,0,.626,1.839c0,1.228-.209,1.84-.626,1.84H214.4C214.006,1403.278,213.811,1402.666,213.811,1401.438Zm4.894-4.893q0-1.841.588-1.84h8.575q.624,0,.625,1.84t-.625,1.84h-8.575Q218.705,1398.385,218.705,1396.545Z" fill="#ff3c00" stroke="#000" stroke-width="1"/>
    <path id="路径_634" data-name="路径 634" d="M233.387,1391.65q0-1.839.589-1.839h28.15q.625,0,.626,1.839t-.626,1.84h-28.15Q233.386,1393.49,233.387,1391.65Zm0,4.9q0-1.841.589-1.84h8.574q.625,0,.625,1.84t-.625,1.84h-8.574Q233.386,1398.385,233.387,1396.545Zm0,4.893q0-1.839.589-1.839h28.15q.625,0,.626,1.839c0,1.228-.209,1.84-.626,1.84h-28.15C233.583,1403.278,233.387,1402.666,233.387,1401.438Zm0,14.683q0-1.839.589-1.84h8.574q.625,0,.625,1.84t-.625,1.84h-8.574Q233.386,1417.961,233.387,1416.121Zm4.894,4.9q0-1.841.589-1.84h23.256q.625,0,.626,1.84t-.626,1.839H238.87Q238.281,1422.855,238.281,1421.016Zm19.577-14.683q0-1.841.589-1.84h8.574q.624,0,.625,1.84t-.625,1.84h-8.574Q257.857,1408.173,257.858,1406.333Zm0,4.9q0-1.841.589-1.841h8.574q.624,0,.625,1.841t-.625,1.839h-8.574Q257.857,1413.067,257.858,1411.228Zm0,4.893q0-1.839.589-1.84h8.574q.624,0,.625,1.84t-.625,1.84h-8.574Q257.857,1417.961,257.858,1416.121Z" fill="#ff3c00" stroke="#000" stroke-width="1"/>
    <path id="路径_635" data-name="路径 635" d="M277.435,1406.333q0-1.841.588-1.84H286.6q.626,0,.626,1.84t-.626,1.84h-8.574Q277.434,1408.173,277.435,1406.333Zm0,4.9q0-1.841.588-1.841H286.6q.626,0,.626,1.841t-.626,1.839h-8.574Q277.434,1413.067,277.435,1411.228Zm0,9.788q0-1.841.588-1.84h3.68q.625,0,.626,1.84t-.626,1.839h-3.68Q277.434,1422.855,277.435,1421.016Zm4.894-4.9q0-1.839.588-1.84h3.68q.626,0,.626,1.84t-.626,1.84h-3.68Q282.329,1417.961,282.329,1416.121Z" fill="#ff3c00" stroke="#000" stroke-width="1"/>
    <path id="路径_636" data-name="路径 636" d="M311.657,1401.438q0-1.839.589-1.839h8.573q.625,0,.626,1.839c0,1.228-.209,1.84-.626,1.84h-8.573C311.853,1403.278,311.657,1402.666,311.657,1401.438Zm0,4.9q0-1.841.589-1.84h8.573q.625,0,.626,1.84t-.626,1.84h-8.573Q311.656,1408.173,311.657,1406.333Zm0,4.9q0-1.841.589-1.841h8.573q.625,0,.626,1.841t-.626,1.839h-8.573Q311.656,1413.067,311.657,1411.228Zm4.894-14.683q0-1.841.589-1.84h3.679q.625,0,.626,1.84t-.626,1.84H317.14Q316.551,1398.385,316.551,1396.545Zm0,19.576q0-1.839.589-1.84h8.574q.626,0,.625,1.84t-.625,1.84H317.14Q316.551,1417.961,316.551,1416.121Zm4.894-24.471q0-1.839.589-1.839H335.5q.625,0,.626,1.839t-.626,1.84H322.034Q321.444,1393.49,321.445,1391.65Zm0,29.366q0-1.841.589-1.84H335.5q.625,0,.626,1.84t-.626,1.839H322.034Q321.444,1422.855,321.445,1421.016Zm9.788-24.471q0-1.841.589-1.84H340.4q.625,0,.626,1.84t-.626,1.84h-8.574Q331.234,1398.385,331.233,1396.545Zm4.895,4.893q0-1.839.588-1.839h8.575q.626,0,.625,1.839c0,1.228-.208,1.84-.625,1.84h-8.575C336.324,1403.278,336.128,1402.666,336.128,1401.438Zm0,4.9q0-1.841.588-1.84h8.575q.626,0,.625,1.84t-.625,1.84h-8.575Q336.128,1408.173,336.128,1406.333Zm0,4.9q0-1.841.588-1.841h8.575q.626,0,.625,1.841t-.625,1.839h-8.575Q336.128,1413.067,336.128,1411.228Zm0,4.893q0-1.839.588-1.84h3.68q.625,0,.626,1.84t-.626,1.84h-3.68Q336.128,1417.961,336.128,1416.121Z" fill="#ff3c00" stroke="#000" stroke-width="1"/>
    <path id="路径_637" data-name="路径 637" d="M350.81,1401.438q0-1.839.589-1.839h8.574q.626,0,.626,1.839c0,1.228-.209,1.84-.626,1.84H351.4C351.006,1403.278,350.81,1402.666,350.81,1401.438Zm0,4.9q0-1.841.589-1.84h8.574q.626,0,.626,1.84t-.626,1.84H351.4Q350.81,1408.173,350.81,1406.333Zm0,4.9q0-1.841.589-1.841h8.574q.626,0,.626,1.841t-.626,1.839H351.4Q350.81,1413.067,350.81,1411.228Zm4.894-14.683q0-1.841.589-1.84h3.68q.626,0,.626,1.84t-.626,1.84h-3.68Q355.7,1398.385,355.7,1396.545Zm0,19.576q0-1.839.589-1.84h8.574q.625,0,.626,1.84t-.626,1.84h-8.574Q355.7,1417.961,355.7,1416.121Zm4.895-24.471q0-1.839.588-1.839h13.468q.625,0,.626,1.839t-.626,1.84H361.187Q360.6,1393.49,360.6,1391.65Zm0,29.366q0-1.841.588-1.84h13.468q.625,0,.626,1.84t-.626,1.839H361.187Q360.6,1422.855,360.6,1421.016Zm9.788-24.471q0-1.841.589-1.84h8.574q.626,0,.625,1.84t-.625,1.84h-8.574Q370.387,1398.385,370.387,1396.545Zm4.894,4.893q0-1.839.589-1.839h8.574q.625,0,.625,1.839c0,1.228-.208,1.84-.625,1.84H375.87C375.477,1403.278,375.281,1402.666,375.281,1401.438Zm0,4.9q0-1.841.589-1.84h8.574q.625,0,.625,1.84t-.625,1.84H375.87Q375.28,1408.173,375.281,1406.333Zm0,4.9q0-1.841.589-1.841h8.574q.625,0,.625,1.841t-.625,1.839H375.87Q375.28,1413.067,375.281,1411.228Zm0,4.893q0-1.839.589-1.84h3.68q.626,0,.625,1.84t-.625,1.84h-3.68Q375.28,1417.961,375.281,1416.121Z" fill="#ff3c00" stroke="#000" stroke-width="1"/>
    <path id="路径_638" data-name="路径 638" d="M389.963,1401.438q0-1.839.589-1.839h8.574q.625,0,.626,1.839c0,1.228-.209,1.84-.626,1.84h-8.574C390.16,1403.278,389.963,1402.666,389.963,1401.438Zm0,4.9q0-1.841.589-1.84h8.574q.625,0,.626,1.84t-.626,1.84h-8.574Q389.964,1408.173,389.963,1406.333Zm0,4.9q0-1.841.589-1.841h8.574q.625,0,.626,1.841t-.626,1.839h-8.574Q389.964,1413.067,389.963,1411.228Zm4.894-14.683q0-1.841.589-1.84h3.68q.625,0,.626,1.84t-.626,1.84h-3.68Q394.858,1398.385,394.857,1396.545Zm0,19.576q0-1.839.589-1.84h8.575q.624,0,.625,1.84t-.625,1.84h-8.575Q394.858,1417.961,394.857,1416.121Zm4.9-24.471q0-1.839.588-1.839h13.469q.626,0,.626,1.839t-.626,1.84H400.34Q399.752,1393.49,399.752,1391.65Zm0,29.366q0-1.841.588-1.84h13.469q.626,0,.626,1.84t-.626,1.839H400.34Q399.752,1422.855,399.752,1421.016Zm9.788-24.471q0-1.841.589-1.84H418.7q.625,0,.626,1.84t-.626,1.84h-8.574Q409.539,1398.385,409.54,1396.545Zm4.895,4.893q0-1.839.588-1.839H423.6q.626,0,.626,1.839c0,1.228-.209,1.84-.626,1.84h-8.574C414.63,1403.278,414.435,1402.666,414.435,1401.438Zm0,4.9q0-1.841.588-1.84H423.6q.626,0,.626,1.84t-.626,1.84h-8.574Q414.434,1408.173,414.435,1406.333Zm0,4.9q0-1.841.588-1.841H423.6q.626,0,.626,1.841t-.626,1.839h-8.574Q414.434,1413.067,414.435,1411.228Zm0,4.893q0-1.839.588-1.84h3.68q.625,0,.626,1.84t-.626,1.84h-3.68Q414.434,1417.961,414.435,1416.121Z" fill="#ff3c00" stroke="#000" stroke-width="1"/>
    <path id="路径_639" data-name="路径 639" d="M468.27,1401.438q0-1.839.589-1.839h8.574q.625,0,.626,1.839c0,1.228-.209,1.84-.626,1.84h-8.574C468.466,1403.278,468.27,1402.666,468.27,1401.438Zm0,4.9q0-1.841.589-1.84h8.574q.625,0,.626,1.84t-.626,1.84h-8.574Q468.27,1408.173,468.27,1406.333Zm0,4.9q0-1.841.589-1.841h8.574q.625,0,.626,1.841t-.626,1.839h-8.574Q468.27,1413.067,468.27,1411.228Zm4.894-14.683q0-1.841.589-1.84h8.574q.625,0,.626,1.84t-.626,1.84h-8.574Q473.163,1398.385,473.164,1396.545Zm0,19.576q0-1.839.589-1.84h8.574q.625,0,.626,1.84t-.626,1.84h-8.574Q473.163,1417.961,473.164,1416.121Zm4.895-24.471q0-1.839.588-1.839H497.01q.625,0,.625,1.839t-.625,1.84H478.647Q478.057,1393.49,478.059,1391.65Zm0,29.366q0-1.841.588-1.84H497.01q.625,0,.625,1.84t-.625,1.839H478.647Q478.057,1422.855,478.059,1421.016Zm14.682-24.471q0-1.841.589-1.84H501.9q.626,0,.625,1.84t-.625,1.84H493.33Q492.741,1398.385,492.741,1396.545Zm0,19.576q0-1.839.589-1.84H501.9q.626,0,.625,1.84t-.625,1.84H493.33Q492.741,1417.961,492.741,1416.121Z" fill="#ff3c00" stroke="#000" stroke-width="1"/>
    <path id="路径_640" data-name="路径 640" d="M507.423,1391.65q0-1.839.589-1.839h8.574q.625,0,.626,1.839t-.626,1.84h-8.574Q507.424,1393.49,507.423,1391.65Zm0,4.9q0-1.841.589-1.84h8.574q.625,0,.626,1.84t-.626,1.84h-8.574Q507.424,1398.385,507.423,1396.545Zm0,4.893q0-1.839.589-1.839h8.574q.625,0,.626,1.839c0,1.228-.209,1.84-.626,1.84h-8.574C507.62,1403.278,507.423,1402.666,507.423,1401.438Zm0,4.9q0-1.841.589-1.84h33.045q.625,0,.626,1.84t-.626,1.84H508.012Q507.424,1408.173,507.423,1406.333Zm0,4.9q0-1.841.589-1.841h8.574q.625,0,.626,1.841t-.626,1.839h-8.574Q507.424,1413.067,507.423,1411.228Zm0,4.893q0-1.839.589-1.84h8.574q.625,0,.626,1.84t-.626,1.84h-8.574Q507.424,1417.961,507.423,1416.121Zm0,4.9q0-1.841.589-1.84h8.574q.625,0,.626,1.84t-.626,1.839h-8.574Q507.424,1422.855,507.423,1421.016ZM531.9,1391.65q0-1.839.588-1.839h8.574q.625,0,.626,1.839t-.626,1.84h-8.574Q531.894,1393.49,531.9,1391.65Zm0,4.9q0-1.841.588-1.84h8.574q.625,0,.626,1.84t-.626,1.84h-8.574Q531.894,1398.385,531.9,1396.545Zm0,4.893q0-1.839.588-1.839h8.574q.625,0,.626,1.839c0,1.228-.209,1.84-.626,1.84h-8.574C532.09,1403.278,531.9,1402.666,531.9,1401.438Zm0,9.79q0-1.841.588-1.841h8.574q.625,0,.626,1.841t-.626,1.839h-8.574Q531.894,1413.067,531.9,1411.228Zm0,4.893q0-1.839.588-1.84h8.574q.625,0,.626,1.84t-.626,1.84h-8.574Q531.894,1417.961,531.9,1416.121Zm0,4.9q0-1.841.588-1.84h8.574q.625,0,.626,1.84t-.626,1.839h-8.574Q531.894,1422.855,531.9,1421.016Z" fill="#ff3c00" stroke="#000" stroke-width="1"/>
    <path id="路径_641" data-name="路径 641" d="M546.613,1391.65q0-1.839.589-1.839h33.046q.624,0,.625,1.839t-.625,1.84H547.2Q546.614,1393.49,546.613,1391.65Zm0,4.9q0-1.841.589-1.84h8.574q.625,0,.626,1.84t-.626,1.84H547.2Q546.614,1398.385,546.613,1396.545Zm0,4.893q0-1.839.589-1.839h8.574q.625,0,.626,1.839c0,1.228-.209,1.84-.626,1.84H547.2C546.81,1403.278,546.613,1402.666,546.613,1401.438Zm0,4.9q0-1.841.589-1.84h28.151q.625,0,.626,1.84t-.626,1.84H547.2Q546.614,1408.173,546.613,1406.333Zm0,4.9q0-1.841.589-1.841h8.574q.625,0,.626,1.841t-.626,1.839H547.2Q546.614,1413.067,546.613,1411.228Zm0,4.893q0-1.839.589-1.84h8.574q.625,0,.626,1.84t-.626,1.84H547.2Q546.614,1417.961,546.613,1416.121Zm0,4.9q0-1.841.589-1.84h33.046q.624,0,.625,1.84t-.625,1.839H547.2Q546.614,1422.855,546.613,1421.016Z" fill="#ff3c00" stroke="#000" stroke-width="1"/>
    <path id="路径_642" data-name="路径 642" d="M585.73,1401.438q0-1.839.589-1.839h8.574q.625,0,.626,1.839c0,1.228-.209,1.84-.626,1.84h-8.574C585.926,1403.278,585.73,1402.666,585.73,1401.438Zm0,4.9q0-1.841.589-1.84h8.574q.625,0,.626,1.84t-.626,1.84h-8.574Q585.73,1408.173,585.73,1406.333Zm0,4.9q0-1.841.589-1.841h33.045q.625,0,.625,1.841t-.625,1.839H586.319Q585.73,1413.067,585.73,1411.228Zm0,4.893q0-1.839.589-1.84h8.574q.625,0,.626,1.84t-.626,1.84h-8.574Q585.73,1417.961,585.73,1416.121Zm0,4.9q0-1.841.589-1.84h8.574q.625,0,.626,1.84t-.626,1.839h-8.574Q585.73,1422.855,585.73,1421.016Zm4.894-24.471q0-1.841.589-1.84h8.574q.625,0,.626,1.84t-.626,1.84h-8.574Q590.624,1398.385,590.624,1396.545Zm4.895-4.9q0-1.839.588-1.839h13.468q.625,0,.626,1.839t-.626,1.84H596.107Q595.517,1393.49,595.519,1391.65Zm9.788,4.9q0-1.841.589-1.84h8.574q.626,0,.625,1.84t-.625,1.84H605.9Q605.306,1398.385,605.307,1396.545Zm4.894,4.893q0-1.839.589-1.839h8.574q.625,0,.625,1.839c0,1.228-.208,1.84-.625,1.84H610.79C610.4,1403.278,610.2,1402.666,610.2,1401.438Zm0,4.9q0-1.841.589-1.84h8.574q.625,0,.625,1.84t-.625,1.84H610.79Q610.2,1408.173,610.2,1406.333Zm0,9.788q0-1.839.589-1.84h8.574q.625,0,.625,1.84t-.625,1.84H610.79Q610.2,1417.961,610.2,1416.121Zm0,4.9q0-1.841.589-1.84h8.574q.625,0,.625,1.84t-.625,1.839H610.79Q610.2,1422.855,610.2,1421.016Z" fill="#ff3c00" stroke="#000" stroke-width="1"/>
    <path id="路径_643" data-name="路径 643" d="M624.883,1391.65q0-1.839.589-1.839h28.151q.625,0,.626,1.839t-.626,1.84H625.472Q624.884,1393.49,624.883,1391.65Zm0,4.9q0-1.841.589-1.84h8.574q.625,0,.626,1.84t-.626,1.84h-8.574Q624.884,1398.385,624.883,1396.545Zm0,4.893q0-1.839.589-1.839h8.574q.625,0,.626,1.839c0,1.228-.209,1.84-.626,1.84h-8.574C625.08,1403.278,624.883,1402.666,624.883,1401.438Zm0,4.9q0-1.841.589-1.84h8.574q.625,0,.626,1.84t-.626,1.84h-8.574Q624.884,1408.173,624.883,1406.333Zm0,4.9q0-1.841.589-1.841h28.151q.625,0,.626,1.841t-.626,1.839H625.472Q624.884,1413.067,624.883,1411.228Zm0,4.893q0-1.839.589-1.84h8.574q.625,0,.626,1.84t-.626,1.84h-8.574Q624.884,1417.961,624.883,1416.121Zm0,4.9q0-1.841.589-1.84h8.574q.625,0,.626,1.84t-.626,1.839h-8.574Q624.884,1422.855,624.883,1421.016Zm24.471-24.471q0-1.841.589-1.84h8.574q.625,0,.626,1.84t-.626,1.84h-8.574Q649.353,1398.385,649.354,1396.545Zm0,4.893q0-1.839.589-1.839h8.574q.625,0,.626,1.839c0,1.228-.209,1.84-.626,1.84h-8.574C649.55,1403.278,649.354,1402.666,649.354,1401.438Zm0,4.9q0-1.841.589-1.84h8.574q.625,0,.626,1.84t-.626,1.84h-8.574Q649.353,1408.173,649.354,1406.333Z" fill="#ff3c00" stroke="#000" stroke-width="1"/>
    <path id="路径_644" data-name="路径 644" d="M703.227,1391.65q0-1.839.588-1.839h8.575q.625,0,.625,1.839t-.625,1.84h-8.575Q703.227,1393.49,703.227,1391.65Zm0,4.9q0-1.841.588-1.84h8.575q.625,0,.625,1.84t-.625,1.84h-8.575Q703.227,1398.385,703.227,1396.545Zm0,4.893q0-1.839.588-1.839h8.575q.625,0,.625,1.839c0,1.228-.208,1.84-.625,1.84h-8.575C703.423,1403.278,703.227,1402.666,703.227,1401.438Zm0,4.9q0-1.841.588-1.84h8.575q.625,0,.625,1.84t-.625,1.84h-8.575Q703.227,1408.173,703.227,1406.333Zm0,4.9q0-1.841.588-1.841h8.575q.625,0,.625,1.841t-.625,1.839h-8.575Q703.227,1413.067,703.227,1411.228Zm0,4.893q0-1.839.588-1.84h8.575q.625,0,.625,1.84t-.625,1.84h-8.575Q703.227,1417.961,703.227,1416.121Zm0,4.9q0-1.841.588-1.84h33.046q.624,0,.625,1.84t-.625,1.839H703.815Q703.227,1422.855,703.227,1421.016Z" fill="#ff3c00" stroke="#000" stroke-width="1"/>
    <path id="路径_645" data-name="路径 645" d="M742.343,1401.438q0-1.839.589-1.839h8.574q.625,0,.626,1.839c0,1.228-.209,1.84-.626,1.84h-8.574C742.54,1403.278,742.343,1402.666,742.343,1401.438Zm0,4.9q0-1.841.589-1.84h8.574q.625,0,.626,1.84t-.626,1.84h-8.574Q742.344,1408.173,742.343,1406.333Zm0,4.9q0-1.841.589-1.841h33.045q.625,0,.626,1.841t-.626,1.839H742.932Q742.344,1413.067,742.343,1411.228Zm0,4.893q0-1.839.589-1.84h8.574q.625,0,.626,1.84t-.626,1.84h-8.574Q742.344,1417.961,742.343,1416.121Zm0,4.9q0-1.841.589-1.84h8.574q.625,0,.626,1.84t-.626,1.839h-8.574Q742.344,1422.855,742.343,1421.016Zm4.894-24.471q0-1.841.589-1.84H756.4q.625,0,.626,1.84t-.626,1.84h-8.574Q747.238,1398.385,747.237,1396.545Zm4.9-4.9q0-1.839.588-1.839h13.468q.625,0,.626,1.839t-.626,1.84H752.72Q752.132,1393.49,752.132,1391.65Zm9.788,4.9q0-1.841.589-1.84h8.574q.625,0,.625,1.84t-.625,1.84h-8.574Q761.92,1398.385,761.92,1396.545Zm4.894,4.893q0-1.839.589-1.839h8.574q.625,0,.626,1.839c0,1.228-.209,1.84-.626,1.84H767.4C767.01,1403.278,766.814,1402.666,766.814,1401.438Zm0,4.9q0-1.841.589-1.84h8.574q.625,0,.626,1.84t-.626,1.84H767.4Q766.814,1408.173,766.814,1406.333Zm0,9.788q0-1.839.589-1.84h8.574q.625,0,.626,1.84t-.626,1.84H767.4Q766.814,1417.961,766.814,1416.121Zm0,4.9q0-1.841.589-1.84h8.574q.625,0,.626,1.84t-.626,1.839H767.4Q766.814,1422.855,766.814,1421.016Z" fill="#ff3c00" stroke="#000" stroke-width="1"/>
    <path id="路径_646" data-name="路径 646" d="M781.5,1391.65q0-1.839.588-1.839h28.151q.625,0,.626,1.839t-.626,1.84H782.085Q781.5,1393.49,781.5,1391.65Zm0,4.9q0-1.841.588-1.84h8.574q.625,0,.626,1.84t-.626,1.84h-8.574Q781.5,1398.385,781.5,1396.545Zm0,4.893q0-1.839.588-1.839h8.574q.625,0,.626,1.839c0,1.228-.209,1.84-.626,1.84h-8.574C781.693,1403.278,781.5,1402.666,781.5,1401.438Zm0,4.9q0-1.841.588-1.84h28.151q.625,0,.626,1.84t-.626,1.84H782.085Q781.5,1408.173,781.5,1406.333Zm0,4.9q0-1.841.588-1.841h8.574q.625,0,.626,1.841t-.626,1.839h-8.574Q781.5,1413.067,781.5,1411.228Zm0,4.893q0-1.839.588-1.84h8.574q.625,0,.626,1.84t-.626,1.84h-8.574Q781.5,1417.961,781.5,1416.121Zm0,4.9q0-1.841.588-1.84h28.151q.625,0,.626,1.84t-.626,1.839H782.085Q781.5,1422.855,781.5,1421.016Zm24.471-24.471q0-1.841.588-1.84h8.574q.625,0,.626,1.84t-.626,1.84h-8.574Q805.968,1398.385,805.968,1396.545Zm0,4.893q0-1.839.588-1.839h8.574q.625,0,.626,1.839c0,1.228-.209,1.84-.626,1.84h-8.574C806.164,1403.278,805.968,1402.666,805.968,1401.438Zm0,9.79q0-1.841.588-1.841h8.574q.625,0,.626,1.841t-.626,1.839h-8.574Q805.968,1413.067,805.968,1411.228Zm0,4.893q0-1.839.588-1.84h8.574q.625,0,.626,1.84t-.626,1.84h-8.574Q805.968,1417.961,805.968,1416.121Z" fill="#ff3c00" stroke="#000" stroke-width="1"/>
    <path id="路径_647" data-name="路径 647" d="M820.65,1396.545q0-1.841.589-1.84h8.573q.625,0,.626,1.84t-.626,1.84h-8.573Q820.65,1398.385,820.65,1396.545Zm0,4.893q0-1.839.589-1.839h8.573q.625,0,.626,1.839c0,1.228-.209,1.84-.626,1.84h-8.573C820.846,1403.278,820.65,1402.666,820.65,1401.438Zm0,4.9q0-1.841.589-1.84h8.573q.625,0,.626,1.84t-.626,1.84h-8.573Q820.65,1408.173,820.65,1406.333Zm0,4.9q0-1.841.589-1.841h8.573q.625,0,.626,1.841t-.626,1.839h-8.573Q820.65,1413.067,820.65,1411.228Zm0,4.893q0-1.839.589-1.84h8.573q.625,0,.626,1.84t-.626,1.84h-8.573Q820.65,1417.961,820.65,1416.121Zm4.894-24.471q0-1.839.589-1.839H849.39q.625,0,.625,1.839t-.625,1.84H826.133Q825.543,1393.49,825.544,1391.65Zm0,29.366q0-1.841.589-1.84H849.39q.625,0,.625,1.84t-.625,1.839H826.133Q825.543,1422.855,825.544,1421.016Zm19.577-24.471q0-1.841.588-1.84h8.575q.625,0,.625,1.84t-.625,1.84h-8.575Q845.121,1398.385,845.121,1396.545Zm0,4.893q0-1.839.588-1.839h8.575q.625,0,.625,1.839c0,1.228-.208,1.84-.625,1.84h-8.575C845.317,1403.278,845.121,1402.666,845.121,1401.438Zm0,4.9q0-1.841.588-1.84h8.575q.625,0,.625,1.84t-.625,1.84h-8.575Q845.121,1408.173,845.121,1406.333Zm0,4.9q0-1.841.588-1.841h8.575q.625,0,.625,1.841t-.625,1.839h-8.575Q845.121,1413.067,845.121,1411.228Zm0,4.893q0-1.839.588-1.84h8.575q.625,0,.625,1.84t-.625,1.84h-8.575Q845.121,1417.961,845.121,1416.121Z" fill="#ff3c00" stroke="#000" stroke-width="1"/>
    <path id="路径_648" data-name="路径 648" d="M859.8,1391.65q0-1.839.589-1.839h8.574q.625,0,.626,1.839t-.626,1.84h-8.574Q859.8,1393.49,859.8,1391.65Zm0,4.9q0-1.841.589-1.84h8.574q.625,0,.626,1.84t-.626,1.84h-8.574Q859.8,1398.385,859.8,1396.545Zm0,4.893q0-1.839.589-1.839h8.574q.625,0,.626,1.839c0,1.228-.209,1.84-.626,1.84h-8.574C860,1403.278,859.8,1402.666,859.8,1401.438Zm0,4.9q0-1.841.589-1.84h8.574q.625,0,.626,1.84t-.626,1.84h-8.574Q859.8,1408.173,859.8,1406.333Zm0,4.9q0-1.841.589-1.841h8.574q.625,0,.626,1.841t-.626,1.839h-8.574Q859.8,1413.067,859.8,1411.228Zm0,4.893q0-1.839.589-1.84h8.574q.625,0,.626,1.84t-.626,1.84h-8.574Q859.8,1417.961,859.8,1416.121Zm4.894,4.9q0-1.841.589-1.84h23.257q.625,0,.625,1.84t-.625,1.839H865.286Q864.7,1422.855,864.7,1421.016Zm19.577-29.366q0-1.839.589-1.839h8.574q.625,0,.625,1.839t-.625,1.84h-8.574Q884.273,1393.49,884.274,1391.65Zm0,4.9q0-1.841.589-1.84h8.574q.625,0,.625,1.84t-.625,1.84h-8.574Q884.273,1398.385,884.274,1396.545Zm0,4.893q0-1.839.589-1.839h8.574q.625,0,.625,1.839c0,1.228-.208,1.84-.625,1.84h-8.574C884.47,1403.278,884.274,1402.666,884.274,1401.438Zm0,4.9q0-1.841.589-1.84h8.574q.625,0,.625,1.84t-.625,1.84h-8.574Q884.273,1408.173,884.274,1406.333Zm0,4.9q0-1.841.589-1.841h8.574q.625,0,.625,1.841t-.625,1.839h-8.574Q884.273,1413.067,884.274,1411.228Zm0,4.893q0-1.839.589-1.84h8.574q.625,0,.625,1.84t-.625,1.84h-8.574Q884.273,1417.961,884.274,1416.121Z" fill="#ff3c00" stroke="#000" stroke-width="1"/>
    <path id="路径_649" data-name="路径 649" d="M898.957,1391.65q0-1.839.588-1.839H927.7q.625,0,.626,1.839t-.626,1.84H899.545Q898.957,1393.49,898.957,1391.65Zm0,4.9q0-1.841.588-1.84h8.574q.625,0,.626,1.84t-.626,1.84h-8.574Q898.957,1398.385,898.957,1396.545Zm0,4.893q0-1.839.588-1.839h8.574q.625,0,.626,1.839c0,1.228-.209,1.84-.626,1.84h-8.574C899.153,1403.278,898.957,1402.666,898.957,1401.438Zm0,4.9q0-1.841.588-1.84h8.574q.625,0,.626,1.84t-.626,1.84h-8.574Q898.957,1408.173,898.957,1406.333Zm0,4.9q0-1.841.588-1.841H922.8q.625,0,.626,1.841t-.626,1.839H899.545Q898.957,1413.067,898.957,1411.228Zm0,4.893q0-1.839.588-1.84h8.574q.625,0,.626,1.84t-.626,1.84h-8.574Q898.957,1417.961,898.957,1416.121Zm0,4.9q0-1.841.588-1.84h8.574q.625,0,.626,1.84t-.626,1.839h-8.574Q898.957,1422.855,898.957,1421.016Zm14.682-4.9q0-1.839.589-1.84H927.7q.625,0,.626,1.84t-.626,1.84H914.228Q913.639,1417.961,913.639,1416.121Zm4.894-9.788q0-1.841.589-1.84H932.59q.625,0,.626,1.84t-.626,1.84H919.122Q918.533,1408.173,918.533,1406.333Zm0,14.683q0-1.841.589-1.84H932.59q.625,0,.626,1.84t-.626,1.839H919.122Q918.533,1422.855,918.533,1421.016Zm4.895-24.471q0-1.841.588-1.84h8.574q.625,0,.626,1.84t-.626,1.84h-8.574Q923.428,1398.385,923.428,1396.545Zm0,4.893q0-1.839.588-1.839h8.574q.625,0,.626,1.839c0,1.228-.209,1.84-.626,1.84h-8.574C923.624,1403.278,923.428,1402.666,923.428,1401.438Z" fill="#ff3c00" stroke="#000" stroke-width="1"/>
    <path id="路径_650" data-name="路径 650" d="M938.11,1396.545q0-1.841.589-1.84h8.573q.626,0,.626,1.84t-.626,1.84H938.7Q938.11,1398.385,938.11,1396.545Zm0,4.893q0-1.839.589-1.839h8.573q.626,0,.626,1.839c0,1.228-.209,1.84-.626,1.84H938.7C938.306,1403.278,938.11,1402.666,938.11,1401.438Zm0,14.683q0-1.839.589-1.84h8.573q.626,0,.626,1.84t-.626,1.84H938.7Q938.11,1417.961,938.11,1416.121ZM943,1391.65q0-1.839.589-1.839h18.362q.625,0,.626,1.839t-.626,1.84H943.593Q943,1393.49,943,1391.65Zm0,14.683q0-1.841.589-1.84H966.85q.626,0,.625,1.84t-.625,1.84H943.593Q943,1408.173,943,1406.333Zm0,14.683q0-1.841.589-1.84H966.85q.626,0,.625,1.84t-.625,1.839H943.593Q943,1422.855,943,1421.016Zm14.683-24.471q0-1.841.588-1.84h8.575q.626,0,.625,1.84t-.625,1.84h-8.575Q957.687,1398.385,957.687,1396.545Zm4.894,14.683q0-1.841.588-1.841h8.575q.625,0,.625,1.841t-.625,1.839h-8.575Q962.581,1413.067,962.581,1411.228Zm0,4.893q0-1.839.588-1.84h8.575q.625,0,.625,1.84t-.625,1.84h-8.575Q962.581,1417.961,962.581,1416.121Z" fill="#ff3c00" stroke="#000" stroke-width="1"/>
    <path id="路径_651" data-name="路径 651" d="M1016.453,1391.65q0-1.839.589-1.839h33.045q.625,0,.625,1.839t-.625,1.84h-33.045Q1016.451,1393.49,1016.453,1391.65Zm0,4.9q0-1.841.589-1.84h8.573q.625,0,.626,1.84t-.626,1.84h-8.573Q1016.451,1398.385,1016.453,1396.545Zm0,4.893q0-1.839.589-1.839h8.573q.625,0,.626,1.839c0,1.228-.209,1.84-.626,1.84h-8.573C1016.648,1403.278,1016.453,1402.666,1016.453,1401.438Zm0,4.9q0-1.841.589-1.84h28.15q.625,0,.626,1.84t-.626,1.84h-28.15Q1016.451,1408.173,1016.453,1406.333Zm0,4.9q0-1.841.589-1.841h8.573q.625,0,.626,1.841t-.626,1.839h-8.573Q1016.451,1413.067,1016.453,1411.228Zm0,4.893q0-1.839.589-1.84h8.573q.625,0,.626,1.84t-.626,1.84h-8.573Q1016.451,1417.961,1016.453,1416.121Zm0,4.9q0-1.841.589-1.84h8.573q.625,0,.626,1.84t-.626,1.839h-8.573Q1016.451,1422.855,1016.453,1421.016Z" fill="#fff" stroke="#000" stroke-width="1"/>
    <path id="路径_652" data-name="路径 652" d="M1055.569,1391.65q0-1.839.589-1.839h28.151q.625,0,.626,1.839t-.626,1.84h-28.151Q1055.57,1393.49,1055.569,1391.65Zm0,4.9q0-1.841.589-1.84h8.574q.625,0,.625,1.84t-.625,1.84h-8.574Q1055.57,1398.385,1055.569,1396.545Zm0,4.893q0-1.839.589-1.839h8.574q.625,0,.625,1.839c0,1.228-.208,1.84-.625,1.84h-8.574C1055.766,1403.278,1055.569,1402.666,1055.569,1401.438Zm0,4.9q0-1.841.589-1.84h8.574q.625,0,.625,1.84t-.625,1.84h-8.574Q1055.57,1408.173,1055.569,1406.333Zm0,4.9q0-1.841.589-1.841h23.257q.625,0,.625,1.841t-.625,1.839h-23.257Q1055.57,1413.067,1055.569,1411.228Zm0,4.893q0-1.839.589-1.84h8.574q.625,0,.625,1.84t-.625,1.84h-8.574Q1055.57,1417.961,1055.569,1416.121Zm0,4.9q0-1.841.589-1.84h8.574q.625,0,.625,1.84t-.625,1.839h-8.574Q1055.57,1422.855,1055.569,1421.016Zm14.683-4.9q0-1.839.589-1.84h13.468q.625,0,.626,1.84t-.626,1.84h-13.468Q1070.252,1417.961,1070.252,1416.121Zm4.894-9.788q0-1.841.589-1.84H1089.2q.625,0,.626,1.84t-.626,1.84h-13.468Q1075.146,1408.173,1075.146,1406.333Zm0,14.683q0-1.841.589-1.84H1089.2q.625,0,.626,1.84t-.626,1.839h-13.468Q1075.146,1422.855,1075.146,1421.016Zm4.894-24.471q0-1.841.589-1.84h8.574q.625,0,.626,1.84t-.626,1.84h-8.574Q1080.039,1398.385,1080.04,1396.545Zm0,4.893q0-1.839.589-1.839h8.574q.625,0,.626,1.839c0,1.228-.209,1.84-.626,1.84h-8.574C1080.236,1403.278,1080.04,1402.666,1080.04,1401.438Z" fill="#fff" stroke="#000" stroke-width="1"/>
    <path id="路径_653" data-name="路径 653" d="M1094.723,1396.545q0-1.841.589-1.84h8.574q.625,0,.625,1.84t-.625,1.84h-8.574Q1094.722,1398.385,1094.723,1396.545Zm0,4.893q0-1.839.589-1.839h8.574q.625,0,.625,1.839c0,1.228-.208,1.84-.625,1.84h-8.574C1094.919,1403.278,1094.723,1402.666,1094.723,1401.438Zm0,4.9q0-1.841.589-1.84h8.574q.625,0,.625,1.84t-.625,1.84h-8.574Q1094.722,1408.173,1094.723,1406.333Zm0,4.9q0-1.841.589-1.841h8.574q.625,0,.625,1.841t-.625,1.839h-8.574Q1094.722,1413.067,1094.723,1411.228Zm0,4.893q0-1.839.589-1.84h8.574q.625,0,.625,1.84t-.625,1.84h-8.574Q1094.722,1417.961,1094.723,1416.121Zm4.894-24.471q0-1.839.589-1.839h23.256q.625,0,.626,1.839t-.626,1.84h-23.256Q1099.616,1393.49,1099.617,1391.65Zm0,29.366q0-1.841.589-1.84h23.256q.625,0,.626,1.84t-.626,1.839h-23.256Q1099.616,1422.855,1099.617,1421.016Zm19.576-24.471q0-1.841.589-1.84h8.574q.625,0,.626,1.84t-.626,1.84h-8.574Q1119.194,1398.385,1119.193,1396.545Zm0,4.893q0-1.839.589-1.839h8.574q.625,0,.626,1.839c0,1.228-.209,1.84-.626,1.84h-8.574C1119.39,1403.278,1119.193,1402.666,1119.193,1401.438Zm0,4.9q0-1.841.589-1.84h8.574q.625,0,.626,1.84t-.626,1.84h-8.574Q1119.194,1408.173,1119.193,1406.333Zm0,4.9q0-1.841.589-1.841h8.574q.625,0,.626,1.841t-.626,1.839h-8.574Q1119.194,1413.067,1119.193,1411.228Zm0,4.893q0-1.839.589-1.84h8.574q.625,0,.626,1.84t-.626,1.84h-8.574Q1119.194,1417.961,1119.193,1416.121Z" fill="#fff" stroke="#000" stroke-width="1"/>
    <path id="路径_654" data-name="路径 654" d="M1133.876,1391.65q0-1.839.589-1.839h8.574q.626,0,.625,1.839t-.625,1.84h-8.574Q1133.876,1393.49,1133.876,1391.65Zm0,4.9q0-1.841.589-1.84h13.468q.625,0,.626,1.84t-.626,1.84h-13.468Q1133.876,1398.385,1133.876,1396.545Zm0,4.893q0-1.839.589-1.839h33.045q.625,0,.626,1.839c0,1.228-.209,1.84-.626,1.84h-33.045C1134.072,1403.278,1133.876,1402.666,1133.876,1401.438Zm0,4.9q0-1.841.589-1.84h33.045q.625,0,.626,1.84t-.626,1.84h-33.045Q1133.876,1408.173,1133.876,1406.333Zm0,4.9q0-1.841.589-1.841h8.574q.626,0,.625,1.841t-.625,1.839h-8.574Q1133.876,1413.067,1133.876,1411.228Zm0,4.893q0-1.839.589-1.84h8.574q.626,0,.625,1.84t-.625,1.84h-8.574Q1133.876,1417.961,1133.876,1416.121Zm0,4.9q0-1.841.589-1.84h8.574q.626,0,.625,1.84t-.625,1.839h-8.574Q1133.876,1422.855,1133.876,1421.016Zm14.683-9.788q0-1.841.588-1.841h3.68q.625,0,.626,1.841t-.626,1.839h-3.68Q1148.559,1413.067,1148.559,1411.228Zm4.894-14.683c0-1.227.195-1.84.589-1.84h13.468q.625,0,.626,1.84t-.626,1.84h-13.468C1153.648,1398.385,1153.453,1397.771,1153.453,1396.545Zm4.894-4.9q0-1.839.589-1.839h8.574q.625,0,.626,1.839t-.626,1.84h-8.574Q1158.346,1393.49,1158.347,1391.65Zm0,19.578q0-1.841.589-1.841h8.574q.625,0,.626,1.841t-.626,1.839h-8.574Q1158.346,1413.067,1158.347,1411.228Zm0,4.893q0-1.839.589-1.84h8.574q.625,0,.626,1.84t-.626,1.84h-8.574Q1158.346,1417.961,1158.347,1416.121Zm0,4.9q0-1.841.589-1.84h8.574q.625,0,.626,1.84t-.626,1.839h-8.574Q1158.346,1422.855,1158.347,1421.016Z" fill="#fff" stroke="#000" stroke-width="1"/>
    <path id="路径_655" data-name="路径 655" d="M1217.077,1391.65c0-1.226.195-1.839.589-1.839h28.15q.625,0,.626,1.839t-.626,1.84h-28.15C1217.272,1393.49,1217.077,1392.877,1217.077,1391.65Zm9.788,4.9q0-1.841.589-1.84h8.574q.625,0,.625,1.84t-.625,1.84h-8.574Q1226.866,1398.385,1226.865,1396.545Zm0,4.893q0-1.839.589-1.839h8.574q.625,0,.625,1.839c0,1.228-.208,1.84-.625,1.84h-8.574C1227.062,1403.278,1226.865,1402.666,1226.865,1401.438Zm0,4.9q0-1.841.589-1.84h8.574q.625,0,.625,1.84t-.625,1.84h-8.574Q1226.866,1408.173,1226.865,1406.333Zm0,4.9q0-1.841.589-1.841h8.574q.625,0,.625,1.841t-.625,1.839h-8.574Q1226.866,1413.067,1226.865,1411.228Zm0,4.893q0-1.839.589-1.84h8.574q.625,0,.625,1.84t-.625,1.84h-8.574Q1226.866,1417.961,1226.865,1416.121Zm0,4.9q0-1.841.589-1.84h8.574q.625,0,.625,1.84t-.625,1.839h-8.574Q1226.866,1422.855,1226.865,1421.016Z" fill="#fff" stroke="#000" stroke-width="1"/>
    <path id="路径_656" data-name="路径 656" d="M1251.336,1391.65q0-1.839.589-1.839h8.574q.625,0,.625,1.839t-.625,1.84h-8.574Q1251.335,1393.49,1251.336,1391.65Zm0,4.9q0-1.841.589-1.84h8.574q.625,0,.625,1.84t-.625,1.84h-8.574Q1251.335,1398.385,1251.336,1396.545Zm0,4.893q0-1.839.589-1.839h8.574q.625,0,.625,1.839c0,1.228-.208,1.84-.625,1.84h-8.574C1251.532,1403.278,1251.336,1402.666,1251.336,1401.438Zm0,4.9q0-1.841.589-1.84h33.045q.625,0,.626,1.84t-.626,1.84h-33.045Q1251.335,1408.173,1251.336,1406.333Zm0,4.9q0-1.841.589-1.841h8.574q.625,0,.625,1.841t-.625,1.839h-8.574Q1251.335,1413.067,1251.336,1411.228Zm0,4.893q0-1.839.589-1.84h8.574q.625,0,.625,1.84t-.625,1.84h-8.574Q1251.335,1417.961,1251.336,1416.121Zm0,4.9q0-1.841.589-1.84h8.574q.625,0,.625,1.84t-.625,1.839h-8.574Q1251.335,1422.855,1251.336,1421.016Zm24.471-29.366q0-1.839.589-1.839h8.574q.625,0,.626,1.839t-.626,1.84H1276.4Q1275.807,1393.49,1275.807,1391.65Zm0,4.9q0-1.841.589-1.84h8.574q.625,0,.626,1.84t-.626,1.84H1276.4Q1275.807,1398.385,1275.807,1396.545Zm0,4.893q0-1.839.589-1.839h8.574q.625,0,.626,1.839c0,1.228-.209,1.84-.626,1.84H1276.4C1276,1403.278,1275.807,1402.666,1275.807,1401.438Zm0,9.79q0-1.841.589-1.841h8.574q.625,0,.626,1.841t-.626,1.839H1276.4Q1275.807,1413.067,1275.807,1411.228Zm0,4.893q0-1.839.589-1.84h8.574q.625,0,.626,1.84t-.626,1.84H1276.4Q1275.807,1417.961,1275.807,1416.121Zm0,4.9q0-1.841.589-1.84h8.574q.625,0,.626,1.84t-.626,1.839H1276.4Q1275.807,1422.855,1275.807,1421.016Z" fill="#fff" stroke="#000" stroke-width="1"/>
    <path id="路径_657" data-name="路径 657" d="M1295.384,1391.65c0-1.226.195-1.839.589-1.839h28.15q.625,0,.626,1.839t-.626,1.84h-28.15C1295.579,1393.49,1295.384,1392.877,1295.384,1391.65Zm0,29.366c0-1.227.195-1.84.589-1.84h28.15q.625,0,.626,1.84t-.626,1.839h-28.15C1295.579,1422.855,1295.384,1422.242,1295.384,1421.016Zm9.788-24.471q0-1.841.589-1.84h8.574q.625,0,.625,1.84t-.625,1.84h-8.574Q1305.172,1398.385,1305.172,1396.545Zm0,4.893q0-1.839.589-1.839h8.574q.625,0,.625,1.839c0,1.228-.208,1.84-.625,1.84h-8.574C1305.368,1403.278,1305.172,1402.666,1305.172,1401.438Zm0,4.9q0-1.841.589-1.84h8.574q.625,0,.625,1.84t-.625,1.84h-8.574Q1305.172,1408.173,1305.172,1406.333Zm0,4.9q0-1.841.589-1.841h8.574q.625,0,.625,1.841t-.625,1.839h-8.574Q1305.172,1413.067,1305.172,1411.228Zm0,4.893q0-1.839.589-1.84h8.574q.625,0,.625,1.84t-.625,1.84h-8.574Q1305.172,1417.961,1305.172,1416.121Z" fill="#fff" stroke="#000" stroke-width="1"/>
    <path id="路径_658" data-name="路径 658" d="M1329.643,1391.65q0-1.839.588-1.839h28.151q.625,0,.626,1.839t-.626,1.84h-28.151Q1329.643,1393.49,1329.643,1391.65Zm0,4.9q0-1.841.588-1.84h8.575q.625,0,.625,1.84t-.625,1.84h-8.575Q1329.643,1398.385,1329.643,1396.545Zm0,4.893q0-1.839.588-1.839h8.575q.625,0,.625,1.839c0,1.228-.208,1.84-.625,1.84h-8.575C1329.839,1403.278,1329.643,1402.666,1329.643,1401.438Zm0,4.9q0-1.841.588-1.84h8.575q.625,0,.625,1.84t-.625,1.84h-8.575Q1329.643,1408.173,1329.643,1406.333Zm0,4.9q0-1.841.588-1.841h23.257q.625,0,.625,1.841t-.625,1.839h-23.257Q1329.643,1413.067,1329.643,1411.228Zm0,4.893q0-1.839.588-1.84h8.575q.625,0,.625,1.84t-.625,1.84h-8.575Q1329.643,1417.961,1329.643,1416.121Zm0,4.9q0-1.841.588-1.84h8.575q.625,0,.625,1.84t-.625,1.839h-8.575Q1329.643,1422.855,1329.643,1421.016Zm14.682-4.9q0-1.839.589-1.84h13.468q.625,0,.626,1.84t-.626,1.84h-13.468Q1344.325,1417.961,1344.325,1416.121Zm4.9-9.788q0-1.841.589-1.84h13.467q.625,0,.626,1.84t-.626,1.84h-13.467Q1349.218,1408.173,1349.22,1406.333Zm0,14.683q0-1.841.589-1.84h13.467q.625,0,.626,1.84t-.626,1.839h-13.467Q1349.218,1422.855,1349.22,1421.016Zm4.893-24.471q0-1.841.589-1.84h8.574q.625,0,.626,1.84t-.626,1.84H1354.7Q1354.114,1398.385,1354.113,1396.545Zm0,4.893q0-1.839.589-1.839h8.574q.625,0,.626,1.839c0,1.228-.209,1.84-.626,1.84H1354.7C1354.31,1403.278,1354.113,1402.666,1354.113,1401.438Z" fill="#fff" stroke="#000" stroke-width="1"/>
    <path id="路径_659" data-name="路径 659" d="M1368.8,1391.65q0-1.839.589-1.839h23.257q.625,0,.625,1.839t-.625,1.84h-23.257Q1368.8,1393.49,1368.8,1391.65Zm0,4.9q0-1.841.589-1.84h8.574q.625,0,.625,1.84t-.625,1.84h-8.574Q1368.8,1398.385,1368.8,1396.545Zm0,4.893q0-1.839.589-1.839h8.574q.625,0,.625,1.839c0,1.228-.208,1.84-.625,1.84h-8.574C1368.992,1403.278,1368.8,1402.666,1368.8,1401.438Zm0,4.9q0-1.841.589-1.84h8.574q.625,0,.625,1.84t-.625,1.84h-8.574Q1368.8,1408.173,1368.8,1406.333Zm0,4.9q0-1.841.589-1.841h8.574q.625,0,.625,1.841t-.625,1.839h-8.574Q1368.8,1413.067,1368.8,1411.228Zm0,4.893q0-1.839.589-1.84h8.574q.625,0,.625,1.84t-.625,1.84h-8.574Q1368.8,1417.961,1368.8,1416.121Zm0,4.9q0-1.841.589-1.84h23.257q.625,0,.625,1.84t-.625,1.839h-23.257Q1368.8,1422.855,1368.8,1421.016Zm19.577-24.471c0-1.227.195-1.84.589-1.84h8.573q.625,0,.626,1.84t-.626,1.84h-8.573C1388.568,1398.385,1388.373,1397.771,1388.373,1396.545Zm0,19.576c0-1.226.195-1.84.589-1.84h8.573q.625,0,.626,1.84t-.626,1.84h-8.573C1388.568,1417.961,1388.373,1417.349,1388.373,1416.121Zm4.894-14.683q0-1.839.588-1.839h8.575q.625,0,.626,1.839c0,1.228-.209,1.84-.626,1.84h-8.575C1393.463,1403.278,1393.267,1402.666,1393.267,1401.438Zm0,4.9q0-1.841.588-1.84h8.575q.625,0,.626,1.84t-.626,1.84h-8.575Q1393.267,1408.173,1393.267,1406.333Zm0,4.9q0-1.841.588-1.841h8.575q.625,0,.626,1.841t-.626,1.839h-8.575Q1393.267,1413.067,1393.267,1411.228Z" fill="#fff" stroke="#000" stroke-width="1"/>
    <path id="路径_660" data-name="路径 660" d="M1447.1,1391.65q0-1.839.588-1.839h8.575q.625,0,.625,1.839t-.625,1.84h-8.575Q1447.1,1393.49,1447.1,1391.65Zm0,4.9q0-1.841.588-1.84h8.575q.625,0,.625,1.84t-.625,1.84h-8.575Q1447.1,1398.385,1447.1,1396.545Zm0,4.893q0-1.839.588-1.839h8.575q.625,0,.625,1.839c0,1.228-.208,1.84-.625,1.84h-8.575C1447.3,1403.278,1447.1,1402.666,1447.1,1401.438Zm0,4.9q0-1.841.588-1.84h8.575q.625,0,.625,1.84t-.625,1.84h-8.575Q1447.1,1408.173,1447.1,1406.333Zm0,4.9q0-1.841.588-1.841h33.045q.625,0,.626,1.841t-.626,1.839h-33.045Q1447.1,1413.067,1447.1,1411.228Zm0,4.893q0-1.839.588-1.84h13.468q.625,0,.626,1.84t-.626,1.84h-13.468Q1447.1,1417.961,1447.1,1416.121Zm0,4.9q0-1.841.588-1.84h8.575q.625,0,.625,1.84t-.625,1.839h-8.575Q1447.1,1422.855,1447.1,1421.016Zm14.682-14.683q0-1.841.589-1.84h3.68q.625,0,.626,1.84t-.626,1.84h-3.68Q1461.784,1408.173,1461.785,1406.333Zm4.9,9.788c0-1.226.195-1.84.589-1.84h13.467q.625,0,.626,1.84t-.626,1.84h-13.467C1466.875,1417.961,1466.68,1417.349,1466.68,1416.121Zm4.893-24.471q0-1.839.589-1.839h8.574q.625,0,.626,1.839t-.626,1.84h-8.574Q1471.574,1393.49,1471.573,1391.65Zm0,4.9q0-1.841.589-1.84h8.574q.625,0,.626,1.84t-.626,1.84h-8.574Q1471.574,1398.385,1471.573,1396.545Zm0,4.893q0-1.839.589-1.839h8.574q.625,0,.626,1.839c0,1.228-.209,1.84-.626,1.84h-8.574C1471.77,1403.278,1471.573,1402.666,1471.573,1401.438Zm0,4.9q0-1.841.589-1.84h8.574q.625,0,.626,1.84t-.626,1.84h-8.574Q1471.574,1408.173,1471.573,1406.333Zm0,14.683q0-1.841.589-1.84h8.574q.625,0,.626,1.84t-.626,1.839h-8.574Q1471.574,1422.855,1471.573,1421.016Z" fill="#fff" stroke="#000" stroke-width="1"/>
    <path id="路径_661" data-name="路径 661" d="M1486.256,1396.545q0-1.841.589-1.84h8.574q.626,0,.625,1.84t-.625,1.84h-8.574Q1486.256,1398.385,1486.256,1396.545Zm0,4.893q0-1.839.589-1.839h8.574q.626,0,.625,1.839c0,1.228-.208,1.84-.625,1.84h-8.574C1486.452,1403.278,1486.256,1402.666,1486.256,1401.438Zm0,4.9q0-1.841.589-1.84h8.574q.626,0,.625,1.84t-.625,1.84h-8.574Q1486.256,1408.173,1486.256,1406.333Zm0,4.9q0-1.841.589-1.841h8.574q.626,0,.625,1.841t-.625,1.839h-8.574Q1486.256,1413.067,1486.256,1411.228Zm0,4.893q0-1.839.589-1.84h8.574q.626,0,.625,1.84t-.625,1.84h-8.574Q1486.256,1417.961,1486.256,1416.121Zm4.894-24.471q0-1.839.589-1.839h23.256q.625,0,.626,1.839t-.626,1.84h-23.256Q1491.149,1393.49,1491.15,1391.65Zm0,29.366q0-1.841.589-1.84h23.256q.625,0,.626,1.84t-.626,1.839h-23.256Q1491.149,1422.855,1491.15,1421.016Zm19.577-24.471q0-1.841.588-1.84h8.575q.625,0,.626,1.84t-.626,1.84h-8.575Q1510.727,1398.385,1510.727,1396.545Zm0,4.893q0-1.839.588-1.839h8.575q.625,0,.626,1.839c0,1.228-.209,1.84-.626,1.84h-8.575C1510.923,1403.278,1510.727,1402.666,1510.727,1401.438Zm0,4.9q0-1.841.588-1.84h8.575q.625,0,.626,1.84t-.626,1.84h-8.575Q1510.727,1408.173,1510.727,1406.333Zm0,4.9q0-1.841.588-1.841h8.575q.625,0,.626,1.841t-.626,1.839h-8.575Q1510.727,1413.067,1510.727,1411.228Zm0,4.893q0-1.839.588-1.84h8.575q.625,0,.626,1.84t-.626,1.84h-8.575Q1510.727,1417.961,1510.727,1416.121Z" fill="#fff" stroke="#000" stroke-width="1"/>
    <path id="路径_662" data-name="路径 662" d="M1525.409,1391.65q0-1.839.589-1.839h28.15q.625,0,.626,1.839t-.626,1.84H1526Q1525.408,1393.49,1525.409,1391.65Zm0,4.9q0-1.841.589-1.84h8.574q.625,0,.625,1.84t-.625,1.84H1526Q1525.408,1398.385,1525.409,1396.545Zm0,4.893q0-1.839.589-1.839h8.574q.625,0,.625,1.839c0,1.228-.208,1.84-.625,1.84H1526C1525.6,1403.278,1525.409,1402.666,1525.409,1401.438Zm0,4.9q0-1.841.589-1.84h8.574q.625,0,.625,1.84t-.625,1.84H1526Q1525.408,1408.173,1525.409,1406.333Zm0,4.9q0-1.841.589-1.841h23.257q.625,0,.625,1.841t-.625,1.839H1526Q1525.408,1413.067,1525.409,1411.228Zm0,4.893q0-1.839.589-1.84h8.574q.625,0,.625,1.84t-.625,1.84H1526Q1525.408,1417.961,1525.409,1416.121Zm0,4.9q0-1.841.589-1.84h8.574q.625,0,.625,1.84t-.625,1.839H1526Q1525.408,1422.855,1525.409,1421.016Zm14.683-4.9q0-1.839.589-1.84h13.467q.625,0,.626,1.84t-.626,1.84h-13.467Q1540.091,1417.961,1540.092,1416.121Zm4.894-9.788q0-1.841.589-1.84h13.468q.625,0,.626,1.84t-.626,1.84h-13.468Q1544.986,1408.173,1544.986,1406.333Zm0,14.683q0-1.841.589-1.84h13.468q.625,0,.626,1.84t-.626,1.839h-13.468Q1544.986,1422.855,1544.986,1421.016Zm4.894-24.471q0-1.841.589-1.84h8.574q.625,0,.626,1.84t-.626,1.84h-8.574Q1549.88,1398.385,1549.88,1396.545Zm0,4.893q0-1.839.589-1.839h8.574q.625,0,.626,1.839c0,1.228-.209,1.84-.626,1.84h-8.574C1550.076,1403.278,1549.88,1402.666,1549.88,1401.438Z" fill="#fff" stroke="#000" stroke-width="1"/>
    <path id="路径_663" data-name="路径 663" d="M1564.6,1391.65q0-1.839.588-1.839h8.574q.625,0,.626,1.839t-.626,1.84h-8.574Q1564.6,1393.49,1564.6,1391.65Zm0,4.9q0-1.841.588-1.84h8.574q.625,0,.626,1.84t-.626,1.84h-8.574Q1564.6,1398.385,1564.6,1396.545Zm0,4.893q0-1.839.588-1.839h8.574q.625,0,.626,1.839c0,1.228-.209,1.84-.626,1.84h-8.574C1564.8,1403.278,1564.6,1402.666,1564.6,1401.438Zm0,4.9q0-1.841.588-1.84h8.574q.625,0,.626,1.84t-.626,1.84h-8.574Q1564.6,1408.173,1564.6,1406.333Zm0,4.9q0-1.841.588-1.841h8.574q.625,0,.626,1.841t-.626,1.839h-8.574Q1564.6,1413.067,1564.6,1411.228Zm0,4.893q0-1.839.588-1.84h8.574q.625,0,.626,1.84t-.626,1.84h-8.574Q1564.6,1417.961,1564.6,1416.121Zm0,4.9q0-1.841.588-1.84h33.045q.625,0,.625,1.84t-.625,1.839h-33.045Q1564.6,1422.855,1564.6,1421.016Z" fill="#fff" stroke="#000" stroke-width="1"/>
    <path id="路径_664" data-name="路径 664" d="M1603.716,1391.65q0-1.839.589-1.839h23.257q.625,0,.625,1.839t-.625,1.84h-23.257Q1603.715,1393.49,1603.716,1391.65Zm0,4.9q0-1.841.589-1.84h8.574q.625,0,.625,1.84t-.625,1.84h-8.574Q1603.715,1398.385,1603.716,1396.545Zm0,4.893q0-1.839.589-1.839h8.574q.625,0,.625,1.839c0,1.228-.208,1.84-.625,1.84h-8.574C1603.912,1403.278,1603.716,1402.666,1603.716,1401.438Zm0,4.9q0-1.841.589-1.84h8.574q.625,0,.625,1.84t-.625,1.84h-8.574Q1603.715,1408.173,1603.716,1406.333Zm0,4.9q0-1.841.589-1.841h8.574q.625,0,.625,1.841t-.625,1.839h-8.574Q1603.715,1413.067,1603.716,1411.228Zm0,4.893q0-1.839.589-1.84h8.574q.625,0,.625,1.84t-.625,1.84h-8.574Q1603.715,1417.961,1603.716,1416.121Zm0,4.9q0-1.841.589-1.84h23.257q.625,0,.625,1.84t-.625,1.839h-23.257Q1603.715,1422.855,1603.716,1421.016Zm19.577-24.471q0-1.841.589-1.84h8.573q.625,0,.626,1.84t-.626,1.84h-8.573Q1623.291,1398.385,1623.293,1396.545Zm0,19.576q0-1.839.589-1.84h8.573q.625,0,.626,1.84t-.626,1.84h-8.573Q1623.291,1417.961,1623.293,1416.121Zm4.894-14.683q0-1.839.588-1.839h8.575q.625,0,.626,1.839c0,1.228-.209,1.84-.626,1.84h-8.575C1628.383,1403.278,1628.187,1402.666,1628.187,1401.438Zm0,4.9q0-1.841.588-1.84h8.575q.625,0,.626,1.84t-.626,1.84h-8.575Q1628.187,1408.173,1628.187,1406.333Zm0,4.9q0-1.841.588-1.841h8.575q.625,0,.626,1.841t-.626,1.839h-8.575Q1628.187,1413.067,1628.187,1411.228Z" fill="#fff" stroke="#000" stroke-width="1"/>
    <path id="路径_665" data-name="路径 665" d="M1642.869,1396.545q0-1.841.589-1.84h8.574q.625,0,.625,1.84t-.625,1.84h-8.574Q1642.868,1398.385,1642.869,1396.545Zm0,4.893q0-1.839.589-1.839h8.574q.625,0,.625,1.839c0,1.228-.208,1.84-.625,1.84h-8.574C1643.065,1403.278,1642.869,1402.666,1642.869,1401.438Zm0,14.683q0-1.839.589-1.84h8.574q.625,0,.625,1.84t-.625,1.84h-8.574Q1642.868,1417.961,1642.869,1416.121Zm4.9-24.471c0-1.226.195-1.839.589-1.839h18.362q.625,0,.625,1.839t-.625,1.84h-18.362C1647.959,1393.49,1647.764,1392.877,1647.764,1391.65Zm0,14.683c0-1.227.195-1.84.589-1.84h23.255q.625,0,.626,1.84t-.626,1.84h-23.255C1647.959,1408.173,1647.764,1407.56,1647.764,1406.333Zm0,14.683c0-1.227.195-1.84.589-1.84h23.255q.625,0,.626,1.84t-.626,1.839h-23.255C1647.959,1422.855,1647.764,1422.242,1647.764,1421.016Zm14.682-24.471q0-1.841.589-1.84h8.573q.625,0,.626,1.84t-.626,1.84h-8.573Q1662.445,1398.385,1662.446,1396.545Zm4.894,14.683q0-1.841.589-1.841h8.574q.625,0,.626,1.841t-.626,1.839h-8.574Q1667.34,1413.067,1667.34,1411.228Zm0,4.893q0-1.839.589-1.84h8.574q.625,0,.626,1.84t-.626,1.84h-8.574Q1667.34,1417.961,1667.34,1416.121Z" fill="#fff" stroke="#000" stroke-width="1"/>
    <path id="路径_666" data-name="路径 666" d="M1686.953,1416.121q0-1.839.589-1.84h8.574q.625,0,.626,1.84t-.626,1.84h-8.574Q1686.953,1417.961,1686.953,1416.121Zm0,4.9q0-1.841.589-1.84h8.574q.625,0,.626,1.84t-.626,1.839h-8.574Q1686.953,1422.855,1686.953,1421.016Z" fill="#fff" stroke="#000" stroke-width="1"/>
    <g id="矩形_25" data-name="矩形 25" transform="translate(194.233 1426.811)" fill="#ff3c00" stroke="#000" stroke-width="1">
      <rect width="778" height="7" stroke="none"/>
      <rect x="0.5" y="0.5" width="777" height="6" fill="none"/>
    </g>
  </g>
</svg>
