<svg id="图层_8" data-name="图层 8" xmlns="http://www.w3.org/2000/svg" viewBox="0 0 280.63186 233.29801"><defs><style>.cls-1{fill:#00ffdc;stroke:#000;stroke-miterlimit:10;stroke-width:5px;}</style></defs><path class="cls-1" d="M130.07984,65.61506s-16.08875-1.94388-23.4755,3.30459S63.8249,115.98031,63.8249,115.98031s-38.99314,54.02115-43.14009,60.63034-16.523,33.82353-3.88776,46.45875S75.11347,238.908,75.11347,238.908s24.03383,1.14822,36.607-8.02556,16.65978-40.51729,16.65978-40.51729,20.18952.19348,31.44283-6.65093c-.39378,6.50357,4.78388,17.933,15.30814,21.67848s21.86032.26106,21.86032.26106l34.66913-14.08173s9.07144-5.242,6.60919-14.18386-14.57021-29.25323-40.979-59.48275S130.07984,65.61506,130.07984,65.61506Z" transform="translate(-8.76142 -8.15604)"/><path class="cls-1" d="M160.12586,134.882a46.52875,46.52875,0,0,1-10.36736,2.07347,18.36371,18.36371,0,0,1-10.25113-2.07347s-2.96726-1.16633-2.70808-3.88776,5.96124-16.71738,8.68267-16.847,8.84466.20175,13.51,8.10318S160.12586,134.882,160.12586,134.882Z" transform="translate(-8.76142 -8.15604)"/><path class="cls-1" d="M218.70447,179.78634,213.37393,209.385s-.72222,10.05555,8.27778,14.38889,27.38888,10.36872,41.38888,9.40658,19.5-2.62881,23.16667-7.79547-8.39761-64.94445-11.80992-94.94445-16.69008-32.61111-16.69008-32.61111a28.66861,28.66861,0,0,0-18-.77778c-9.33333,2.91667-12.04645,17.76039-12.04645,17.76039Z" transform="translate(-8.76142 -8.15604)"/><path class="cls-1" d="M246.90033,72.71059s-14.24323-.83333-21.90989-9.66666S211.1571,17.21059,250.6571,11.21059s36.16667,38.66667,36.16667,38.66667S288.1571,77.71059,246.90033,72.71059Z" transform="translate(-8.76142 -8.15604)"/><line class="cls-1" x1="119.61884" y1="182.20914" x2="90.23858" y2="180.62173"/></svg>