<svg id="图层_1" data-name="图层 1" xmlns="http://www.w3.org/2000/svg" viewBox="0 0 2152.34685 1529.71533"><defs><style>.cls-1{fill:none;stroke:#b79191;stroke-miterlimit:10;stroke-width:7px;}</style></defs><path id="路径_316-2" data-name="路径 316-2" class="cls-1" d="M27.66315,1536.6325c12.419-24.5,103.814-186.448,178.433-323.19995L784.696,157.84051l74.6-139.855,774.20007,1518.64294h-663.257l-101.933-209.251h-320.04l-281.951-1.03894-47.636-1.03894-115.214,211.33289Zm534.3-838.08691-166.991,304.48486-133.588,250.80005,285.07294,4.146,286.006-4.146Z" transform="translate(-21.96503 -10.41716)"/><path id="路径_316-3" data-name="路径 316-3" class="cls-1" d="M42.02612,1536.6325c12.419-24.5,103.814-186.448,178.433-323.19995L799.059,157.84051l74.6-139.855,774.20007,1518.64294h-663.257l-101.933-209.251h-320.04l-281.951-1.03894-47.636-1.03894-115.214,211.33289Zm534.3-838.08691-166.991,304.48486-133.588,250.80005,285.072,4.146,286.006-4.146Z" transform="translate(-21.96503 -10.41716)"/><path id="路径_316-4" data-name="路径 316-4" class="cls-1" d="M56.38812,1536.6325c12.419-24.5,103.814-186.448,178.433-323.19995L813.421,157.84051l74.6-139.855,774.20007,1518.64294h-663.257l-101.933-209.251h-320.04l-281.951-1.03894-47.636-1.03894-115.214,211.33289Zm534.3-838.08691-166.991,304.48486-133.589,250.80005,285.07294,4.146,286.006-4.146Z" transform="translate(-21.96503 -10.41716)"/><path id="路径_316-5" data-name="路径 316-5" class="cls-1" d="M70.75116,1536.6325c12.419-24.5,103.814-186.448,178.433-323.19995l578.59992-1055.592,74.6-139.855,774.20008,1518.64294h-663.257l-101.932-209.251h-320.042l-281.951-1.03894-47.636-1.03894-115.213,211.33289Zm534.295-838.08691-166.986,304.48486-133.588,250.80005,285.072,4.146,286.006-4.146Z" transform="translate(-21.96503 -10.41716)"/><path id="路径_316-6" data-name="路径 316-6" class="cls-1" d="M85.11414,1536.6325c12.419-24.5,103.814-186.448,178.433-323.19995L842.147,157.84051l74.6-139.855,774.20007,1518.64294h-663.257l-101.933-209.251h-320.04l-281.951-1.03894-47.636-1.03894-115.214,211.33289Zm534.3-838.08691-166.991,304.48486-133.588,250.80005,285.072,4.146,286.006-4.146Z" transform="translate(-21.96503 -10.41716)"/><path id="路径_316-7" data-name="路径 316-7" class="cls-1" d="M99.47711,1536.6325c12.419-24.5,103.814-186.448,178.434-323.19995l578.6-1055.592,74.6-139.855,774.2,1518.64294H1042.0531l-101.933-209.251h-320.04l-281.951-1.03894-47.637-1.03894-115.213,211.33289Zm534.3-838.08691-166.991,304.48486-133.588,250.80005,285.072,4.146,286.006-4.146Z" transform="translate(-21.96503 -10.41716)"/><path id="路径_316-8" data-name="路径 316-8" class="cls-1" d="M113.84015,1536.6325c12.419-24.5,103.814-186.448,178.433-323.19995l578.59992-1055.592,74.6-139.855L1719.6731,1536.62847h-663.257l-101.933-209.251h-320.04l-281.951-1.03894-47.636-1.03894-115.214,211.33289Zm534.3-838.08691-166.991,304.48486L347.5611,1253.8305l285.072,4.146,286.006-4.146Z" transform="translate(-21.96503 -10.41716)"/><path id="路径_316-9" data-name="路径 316-9" class="cls-1" d="M128.20215,1536.6325c12.419-24.5,103.814-186.448,178.433-323.19995l578.59992-1055.592,74.6-139.855,774.20007,1518.64294h-663.257l-101.933-209.251h-320.04l-281.951-1.03894-47.636-1.03894-115.214,211.33289Zm534.3-838.08691-166.991,304.48486-133.589,250.80005,285.072,4.146,286.006-4.146Z" transform="translate(-21.96503 -10.41716)"/><path id="路径_316-10" data-name="路径 316-10" class="cls-1" d="M142.56512,1536.6325c12.419-24.5,103.814-186.448,178.433-323.19995L899.598,157.84051l74.6-139.855,774.20007,1518.64294h-663.257l-101.932-209.251h-320.041l-281.951-1.03894-47.636-1.03894-115.214,211.33289Zm534.3-838.08691-166.991,304.48486-133.588,250.80005,285.072,4.146,286.006-4.146Z" transform="translate(-21.96503 -10.41716)"/><path id="路径_316-11" data-name="路径 316-11" class="cls-1" d="M156.9281,1536.6325c12.419-24.5,103.814-186.448,178.433-323.19995L913.961,157.84051l74.6-139.855,774.20008,1518.64294h-663.257l-101.933-209.251h-320.04l-281.951-1.03894-47.637-1.03894L232.7301,1536.6325Zm534.3-838.08691-166.991,304.48486-133.588,250.80005,285.07293,4.146,286.006-4.146Z" transform="translate(-21.96503 -10.41716)"/><path id="路径_317-2" data-name="路径 317-2" class="cls-1" d="M2041.49915,763.34949v39.66l-5.731,310.446,5.731,423.176h-584.949l5.736-462.831-6.693-282.683.957-27.768Z" transform="translate(-21.96503 -10.41716)"/><path id="路径_317-3" data-name="路径 317-3" class="cls-1" d="M2055.86105,763.34949v39.66l-5.73,310.446,5.73,423.176h-584.947l5.736-462.831-6.693-282.683.958-27.768Z" transform="translate(-21.96503 -10.41716)"/><path id="路径_317-4" data-name="路径 317-4" class="cls-1" d="M2070.22516,763.34949v39.66l-5.73,310.446,5.73,423.176H1485.2771l5.735-462.831-6.693-282.683.958-27.768Z" transform="translate(-21.96503 -10.41716)"/><path id="路径_317-5" data-name="路径 317-5" class="cls-1" d="M2084.58606,763.34949v39.66l-5.731,310.446,5.731,423.176H1499.63812l5.735-462.831-6.693-282.683.958-27.768Z" transform="translate(-21.96503 -10.41716)"/><path id="路径_317-6" data-name="路径 317-6" class="cls-1" d="M2098.94907,763.34949v39.66l-5.731,310.446,5.731,423.176h-584.947l5.735-462.831-6.693-282.683.958-27.768Z" transform="translate(-21.96503 -10.41716)"/><path id="路径_317-7" data-name="路径 317-7" class="cls-1" d="M2113.312,763.34949v39.66l-5.731,310.446,5.731,423.176H1528.3641l5.736-462.831-6.693-282.683.957-27.768Z" transform="translate(-21.96503 -10.41716)"/><path id="路径_317-8" data-name="路径 317-8" class="cls-1" d="M2127.67505,763.34949v39.66l-5.73,310.446,5.73,423.176h-584.947l5.735-462.831-6.693-282.683.958-27.768Z" transform="translate(-21.96503 -10.41716)"/><path id="路径_317-9" data-name="路径 317-9" class="cls-1" d="M2142.03705,763.34949v39.66l-5.73,310.446,5.73,423.176H1557.08911l5.735-462.831-6.693-282.683.958-27.768Z" transform="translate(-21.96503 -10.41716)"/><path id="路径_317-10" data-name="路径 317-10" class="cls-1" d="M2156.40005,763.34949v39.66l-5.731,310.446,5.731,423.176H1571.45212l5.735-462.831-6.693-282.683.958-27.768Z" transform="translate(-21.96503 -10.41716)"/><path id="路径_317-11" data-name="路径 317-11" class="cls-1" d="M2170.76416,763.34949v39.66l-5.731,310.446,5.731,423.176h-584.949l5.735-462.831-6.693-282.683.958-27.768Z" transform="translate(-21.96503 -10.41716)"/></svg>