<svg id="图层_1" data-name="图层 1" xmlns="http://www.w3.org/2000/svg" viewBox="0 0 654.53003 654.53003"><defs><style>.cls-1{fill:#af4a73;}.cls-2{fill:#fff;}</style></defs><circle id="椭圆_5" data-name="椭圆 5" class="cls-1" cx="327.26501" cy="327.26501" r="327.26501"/><path id="路径_306" data-name="路径 306" d="M1516.77663,407.04065v59.507h-19.342v53.723h-67.111v-143.483q0-41.652,22.72705-64.711t63.891-23.059q39.66906,0,58.67895,20.909t19.01,64.549v145.795h-67.10706v-141.331q0-13.221-3.142-18.348t-11.239-5.124q-15.7,0-15.69995,23.472v28.1Z" transform="translate(-1292.04252 -217.71364)"/><rect id="矩形_24" data-name="矩形 24" class="cls-2" x="138.2821" y="302.558" width="67.121" height="225.634"/><ellipse id="椭圆_1" data-name="椭圆 1" class="cls-2" cx="269.08207" cy="351.58201" rx="33.507" ry="34.492"/><g id="组_19" data-name="组 19"><path id="路径_307" data-name="路径 307" d="M1527.6226,617.89566h24.743q21.99993,0,22,16.992,0,8.421-7.53406,14,10.92389,4.653,10.926,16.6,0,9.159-6.436,14.592a18.56128,18.56128,0,0,1-6.734,3.624,36.495,36.495,0,0,1-9.678,1.028h-3.84094v-17.189h3.442a8.759,8.759,0,0,0,4.29-.76,2.864,2.864,0,0,0,1.24695-2.668q0-3.23-5.088-3.23h-3.89v-17.825q5.58709,0,5.58606-3.77,0-3.476-5.037-3.477h-3.741v48.916H1527.6226Z" transform="translate(-1292.04252 -217.71364)"/><path id="路径_308" data-name="路径 308" d="M1580.4506,636.59467h18.657v27.568q0,4.164,3.543,4.162,3.49292,0,3.49-4.162v-27.568h18.658v27.226a21.97811,21.97811,0,0,1-6.434,16.035,21.2679,21.2679,0,0,1-15.765,6.538q-10.62507,0-17.111-7.59-5.035-5.923-5.03894-16.451Z" transform="translate(-1292.04252 -217.71364)"/><path id="路径_309" data-name="路径 309" d="M1650.24662,635.91068v48.814h-18.658v-48.814Zm-9.27795-21.79a9.22992,9.22992,0,0,1,6.561,2.619,8.55513,8.55513,0,0,1,.51563,12.08761q-.17761.19328-.36658.3754a10.419,10.419,0,0,1-13.41895,0,8.555,8.555,0,0,1-.22631-12.09647q.182-.189.37536-.36654a9.22406,9.22406,0,0,1,6.55982-2.615Z" transform="translate(-1292.04252 -217.71364)"/><path id="路径_310" data-name="路径 310" d="M1675.79154,617.89566v66.839h-18.657v-66.839Z" transform="translate(-1292.04252 -217.71364)"/><path id="路径_311" data-name="路径 311" d="M1713.26054,617.89566h18.656v40.691q0,11.216-5.986,18.264a24.4307,24.4307,0,0,1-8.754,6.464,27.03,27.03,0,0,1-29.65906-4.946,24.032,24.032,0,0,1-7.63195-18.018,24.36312,24.36312,0,0,1,7.583-17.873,24.618,24.618,0,0,1,17.958-7.539q1.64594,0,4.99.292v20.165a7.52725,7.52725,0,0,0-4.59-1.761,6.753,6.753,0,0,0-4.96106,2.08,6.84567,6.84567,0,0,0-2.072,5.02,6.48114,6.48114,0,0,0,2.144,4.871,7.206,7.206,0,0,0,5.139,2.033q7.18506,0,7.18505-9.744Z" transform="translate(-1292.04252 -217.71364)"/><path id="路径_312" data-name="路径 312" d="M1786.54765,663.28168h-28.28406a13.179,13.179,0,0,1-.649-3.868,13.36535,13.36535,0,0,1,.9-4.8h9.478q-.99993-5.43705-6.234-5.435a6.805,6.805,0,0,0-5.687,2.914,12.05935,12.05935,0,0,0-2.2,7.466,12.834,12.834,0,0,0,2.12,7.688,6.552,6.552,0,0,0,5.563,2.938,7.47594,7.47594,0,0,0,5.387-2.742l10.626,12.535a26.4,26.4,0,0,1-16.51306,5.729,25.7,25.7,0,0,1-18.60705-7.3,25.4,25.4,0,0,1-.18958-35.92053q.13128-.1327.26453-.26346a25.77111,25.77111,0,0,1,18.682-7.394,24.94909,24.94909,0,0,1,18.18726,7.225,23.95894,23.95894,0,0,1,7.358,17.8Q1786.74766,660.93166,1786.54765,663.28168Z" transform="translate(-1292.04252 -217.71364)"/><path id="路径_313" data-name="路径 313" d="M1817.48161,635.41965v19.587a7.43409,7.43409,0,0,0-3.542-1.079q-5.089,0-5.088,7.639v23.161h-18.658v-26.684q0-10.579,5.887-16.87t15.714-6.291A39.024,39.024,0,0,1,1817.48161,635.41965Z" transform="translate(-1292.04252 -217.71364)"/></g></svg>