<svg xmlns="http://www.w3.org/2000/svg" width="1929.961" height="2186.013" viewBox="0 0 1929.961 2186.013">
  <g id="CF1" transform="translate(-39.34 -27.333)">
    <path id="Ear" d="M398.629,987.87s130.661,77.714,278.739,17.678S838.46,799.612,834,720.193,765.657,451.849,623.37,426.058,348.528,469.958,333.5,566.979,277.918,927.744,398.629,987.87Z" transform="translate(693.956 996.419)" fill="#f2067c" stroke="#000" stroke-miterlimit="10" stroke-width="10"/>
    <path id="Face" d="M503.742,2052.411s-189.628-25.01-246.79-187.317-34.521-320.824-45.84-406.462-192.31-224-163.766-460.009,104.468-377.1,319.544-468.489C489.038,304.827,803.115-43.514,1319.548,47.071s626.538,497.172,626.538,497.172,63.022,226.83-45.408,434.867-309.851,371.517-605.43,436.454c-13.167,125.062-105.605,270.733-105.605,270.733S971.678,2059.49,503.742,2052.411Z" transform="translate(0 0)" fill="#3cc" stroke="#000" stroke-miterlimit="10" stroke-width="10"/>
    <path id="Eye" d="M396.144,273.47s89.732,142.594,116.724,247.614,63.524,181.383,38.647,327.767S465.1,1075.867,465.1,1075.867,350.415,900.212,334.9,811.153s-5.249-298.221,13.1-368.19S396.144,273.47,396.144,273.47Z" transform="translate(726.294 618.728)" fill="#6f3" stroke="#000" stroke-miterlimit="10" stroke-width="10"/>
    <path id="Nose" d="M759.352,276.219l-112.031,429.1s105.384,14.293,112.031,97.332S705.92,907.782,685.4,907.668s-76.548-27.649-76.548-27.649-2.735,12.967-79.258,18.2-145.236-30-178.526-114.185c-57.883,16.929-154.858-3.755-164.636-90.346s67.29-134.43,127.334-146.816S485.984,574.12,485.984,574.12Z" transform="translate(362.572 625.782)" fill="#fff" stroke="#000" stroke-miterlimit="10" stroke-width="10"/>
    <path id="MouthOut" d="M936.776,520.705s-170.413-77.122-304.209-75.136-139.473,50.176-139.473,50.176-119.952-32.427-231.145,76.306-119.731,197.3-119.731,197.3,90.335,463.835,588.762,364.827C1080,1054.3,931.915,634.32,932.846,593.78S936.776,520.705,936.776,520.705Z" transform="translate(251.28 1060.268)" fill="#fa0" stroke="#000" stroke-miterlimit="10" stroke-width="10"/>
    <path id="MouthIn" d="M142.217,718.722s94.022-21.1,144.359-27.838,91.251,11.7,130.882-13.583,69.751-76.894,134.292-106.657S626.308,563.651,666.4,550.9s110.766-107.884,270.381-80.817c-74.512,114.524-91.6,301.353-91.6,301.353s-1.277,40.925-41.746,51.859S524.276,925.325,524.276,925.325s-16.3,11.112-39.906-9.875S373.58,820.811,317.035,785.56,142.217,718.722,142.217,718.722Z" transform="translate(251.28 1110.891)" fill="#1a4be5" stroke="#000" stroke-miterlimit="10" stroke-width="10"/>
    <path id="Tooth" d="M208.991,642.209s49.844,94.211,78.634,98.341,240.193-44.513,293.953-143.817-53.963-112.77-53.963-112.77L511.706,494.6l-16.665,8.3-35.148,4.08-49.919,4.329-50.707,22.513-60.971,49.3-35.2,33.458-32.727,20.57Z" transform="translate(422.634 1158.89)" fill="#fff" stroke="#000" stroke-miterlimit="10" stroke-width="10"/>
    <path id="ToothLine" d="M255.9,495.408s38.943,39.617,54.316,65.579,44.991,86.362,44.991,86.362" transform="translate(543.006 1188.26)" fill="none" stroke="#000" stroke-miterlimit="10" stroke-width="10"/>
    <path id="EyeLine" d="M416.542,727.44S14.637,589.657,122,358.794,495.387,254.187,540.938,397.4" transform="translate(152.625 510.784)" fill="none" stroke="#000" stroke-miterlimit="10" stroke-width="10"/>
    <path id="FaceLine" d="M494.126,216.114s-10.709,217.369-39.01,329.875-68.988,208.839-68.988,208.839" transform="translate(877.199 471.542)" fill="none" stroke="#000" stroke-miterlimit="10" stroke-width="10"/>
    <path id="EarLine" d="M375.971,480.954s97.792-2.183,176.141,62.493" transform="translate(851.134 1151.147)" fill="none" stroke="#000" stroke-miterlimit="10" stroke-width="10"/>
    <path id="X2" d="M302.182,243.018s-79.964,28.6-111.653,90.806S156.108,483.5,156.108,483.5" transform="translate(286.927 540.582)" fill="none" stroke="#000" stroke-miterlimit="10" stroke-width="10"/>
    <path id="X1" d="M126.219,302.6s79.975-36.871,146.121-36.657S404.991,302.6,404.991,302.6" transform="translate(210.226 599.404)" fill="none" stroke="#000" stroke-miterlimit="10" stroke-width="10"/>
    <path id="Eyeball" d="M1233.206,1292.988c-7.075-20.438-44.02-50.308-80.179-36.159s-59.742,55.025-45.592,90.4,57.384,51.88,97.473,37.731S1240.281,1313.425,1233.206,1292.988Z" transform="translate(13 10)" fill="#fff" stroke="#000" stroke-width="10"/>
    <path id="Forehead" d="M1663.935,791.024s-297.684-113.492-400.012-140.934-326.056-70.7-326.056-70.7" fill="none" stroke="#000" stroke-width="10"/>
  </g>
</svg>
