<svg xmlns="http://www.w3.org/2000/svg" width="1900.479" height="3116.624" viewBox="0 0 1900.479 3116.624">
  <g id="CFO-1" transform="translate(-18.324 -25.363)">
    <path id="Ear" d="M-532.174,1400.1c143.475,43.84,1081.378-348.06,1231.5-457S396.43,483.455,179.888,456.885s-216.542,6.642-320.162,75.723S37.742,730.551,101.509,799.632-665.021,1320.394-532.174,1400.1Z" transform="translate(649.659 1073.399)" fill="#777"/>
    <path id="Face" d="M563.435,1471.793s-215.34,133.879-303.417,177.054-153.7,44.9-181.336,24.178S56.229,1498.6,116.675,1248.181,398.38,594.827,613.456,503.441c111.592-35.869,215.212,38.526,341.417,337.431s596.483,167.387,645.636,158.088,104.949,3.985,62.438,86.351-508.17,146.547-783.8,123.548c-46.956,48.336-111.335,101.475-111.335,101.475S668.69,1411.5,563.435,1471.793Z" transform="translate(-44.297 76.98)" fill="#eaeaea"/>
    <path id="Eye" d="M425.988,837.342s16.893,8.728,50.651,18.9,38.6,13,63.686,20.473c7.514,10.8-89.161,255.49-131.88,228.891s-123.461-257.852-120.225-260.1,6.533-4.779,19.845-8.807S425.988,837.342,425.988,837.342Z" transform="translate(228.512 635.874) rotate(-19)" fill="#969696"/>
    <path id="Nose" d="M630.115,454.118c47.988,26.383,51.147,92.756,51.147,92.756s2.684,74.884-35.373,158c34.335,7.584,71.886,24.892,53.281,32.406s-69.054,16.458-69.054,16.458S542.208,867.673,488.07,867.161s-178.793-40.979-226.7-123.772c2.328-63.489,11.814-77.249,23.908-126.553s12.172-44.021,28.489-69.961,104.447-87.647,175.542-105.53S582.126,427.735,630.115,454.118Z" transform="translate(355.275 -251.238)" fill="#4f4f4f"/>
    <path id="MouthOut" d="M895.564,1101.51S714.228,742.291,669.325,666.3,459.162,358.165,382.111,403.333,245.279,510.939,123.059,580.02s-231.1,71.9-257.213,97.975c-6.113,61.175,420.082,504.685,635.959,606.579,34.54,217.6,340.222,699.441,447.3,720.165C1128.711,1939.112,895.564,1101.51,895.564,1101.51Z" transform="translate(206.983 1137.248)" fill="#ccc"/>
    <path id="MouthIn" d="M341.736,665.9s6.87-63.759,94.887-90.236c14.312-31.844,58.32-81.219,122.008-90.164,11.43-9.921,20.923-14.257,74.317,9.137s22.984,9.565,71.525,36.3c21.019-13.995,167.746-155.75,230.539,23.327,13.607,78.608-20.116,113.144-55.233,142.8s-108.744,66.12-166.286,72.677S568,773.267,568,773.267s-52.752,122.268-88.084,112.16S360.132,814.316,345.27,771.106,341.736,665.9,341.736,665.9Z" transform="translate(222.983 -439.129)" fill="#d8d8d8"/>
    <path id="Tooth" d="M213.143,817.315s42.932,44.142,67.42,60.92c55.026,13.3,48.374,5.442,179.33-129.4S573.227,605.525,558.11,578.315c-42.374-18.7-86.1-35.909-86.1-35.909l-66.049-23.722L345.5,583.121,308.75,621.479l-43.258,39.537-41.4,34.768-34.42,31.164-32.56,30.7Z" transform="translate(1350.337 309.87)" fill="#5e5e5e"/>
    <path id="ToothLine" d="M471.448,453.94S383.165,565.2,345.07,607.529,200.552,747.814,200.552,747.814" transform="translate(1436.708 439.24)" fill="#fff"/>
    <path id="EyeLine" d="M320.419,1518.542s-137.989-330.9-41.448-371.31S574.292,1200.769,662.3,1255.35" transform="translate(129.328 36.763)" fill="#fff"/>
    <path id="FaceLine" d="M458.279,216.114s-7.155,145.22-26.062,220.383-46.089,139.521-46.089,139.521" transform="translate(206.875 712.586)" fill="none"/>
    <path id="EarLine" d="M31.231,526.266S675.033,761.3,120.058,798.25" transform="translate(746.7 1277.907) rotate(-10)" fill="#2b2b2b"/>
    <path id="X2" d="M302.182,243.018s-79.964,28.6-111.653,90.806S156.108,483.5,156.108,483.5" transform="translate(242.63 617.562)" fill="none"/>
    <path id="X1" d="M126.219,302.6s79.975-36.871,146.121-36.657S404.991,302.6,404.991,302.6" transform="translate(165.929 676.384)" fill="none"/>
    <path id="Eyeball" d="M1147.761,1243.588c-21.826-.358-86.23-3.22-86.23-3.22s-17.89,21.826-49.376,44.725c9.3,20.395,159.314,195.945,179.752,193.587S1165.841,1260.1,1147.761,1243.588Z" transform="translate(-226.297 45.98)" fill="#727272"/>
    <path id="Forehead" d="M1422.938,720.778s-198.877-75.822-267.24-94.156S937.866,579.39,937.866,579.39" transform="translate(-562.297 276.98)" fill="none"/>
  </g>
</svg>
