<svg id="图层_6" data-name="图层 6" xmlns="http://www.w3.org/2000/svg" viewBox="0 0 1239.63684 438.64373"><defs><style>.cls-1{fill:#1781d3;stroke:#000;stroke-miterlimit:10;stroke-width:5px;}</style></defs><path class="cls-1" d="M407.88056,395.12107s-83.3687,41.28592-205.01768,14.73951S43.67048,311.29308,33.14209,288.38225c-11.92819-25.957-24.33-152.12553,92.07181-170.06808,59.22719-9.12947,128.83006-10.22065,202.33333,0,0,0,6.33333-87,181.66667-96.33333,210.31088-11.19526,242,64,242,64s107.77777-88,268.66666-64.88889c144.10607,20.70032,185.66443,97.22222,185.66443,97.22222s6.02877,14.44445,6.18217,24.44445-3.53888,21.85059-3.53888,21.85059,6.69406-3.809,19.19317,6.67019,43.148,47.43983,29.65688,105.2373-60.139,79.64818-92.48172,90.72282-108.47086-2.56236-108.47086-2.56236-65.1111,46.03184-165.82481,58.66776-180.72543-14.913-180.72543-14.913-50.02026,53.69128-171.50427,40.28674S407.88056,395.12107,407.88056,395.12107Z" transform="translate(-23.26285 -14.72382)"/></svg>