<svg id="图层_1" data-name="图层 1" xmlns="http://www.w3.org/2000/svg" viewBox="0 0 1626.33333 914.8125"><defs><style>.cls-1{fill:#fff;}.cls-2{fill:#d1d1d1;}.cls-3{fill:#6d6d6d;}.cls-4{fill:#999;}.cls-5{fill:#c9c9c9;}.cls-6{fill:#eaeaea;}.cls-7{fill:#dbdbdb;}.cls-8{fill:#939393;}.cls-9{fill:#efefef;}</style></defs><rect class="cls-1" width="1626.33333" height="914.8125" rx="37.51753"/><rect class="cls-2" x="62.47837" y="48.32734" width="1502.1266" height="187.87439" rx="19.73791"/><rect class="cls-3" x="9.75" y="10.21812" width="1607.58333" height="55.18544" rx="27.59269"/><circle class="cls-1" cx="35.68106" cy="37.81084" r="16.18106"/><circle class="cls-1" cx="81.40328" cy="37.81084" r="16.18106"/><circle class="cls-1" cx="127.1255" cy="37.81084" r="16.18106"/><rect class="cls-4" x="184.54299" y="274.07292" width="420" height="271" rx="19.33333"/><rect class="cls-5" x="280.61111" y="584.90625" width="275.22222" height="11"/><rect class="cls-5" x="280.61111" y="605.23958" width="249.44444" height="11"/><rect class="cls-5" x="1593.49998" y="262.20173" width="23.83336" height="361.33333" rx="11.91667"/><rect class="cls-5" x="280.61111" y="625.57292" width="323.93188" height="11"/><rect class="cls-4" x="184.54299" y="727.3788" width="420" height="172.15626" rx="19.33333"/><circle class="cls-5" cx="220.54299" cy="610.73958" r="36"/><rect class="cls-6" x="184.54299" y="680.89253" width="1380.06197" height="12.33333" rx="2.00811"/><rect class="cls-7" x="1284.5" y="600.38546" width="265.33333" height="66.66667" rx="8.90813"/><rect class="cls-8" x="1294.92303" y="610.82406" width="45.78948" height="45.78948" rx="5.83333"/><path class="cls-8" d="M1589.00455,1153.66818h-38.57127a4.66558,4.66558,0,0,0-4.04051,6.99837l19.28563,33.4037a4.66558,4.66558,0,0,0,8.081,0l19.28564-33.40369A4.66559,4.66559,0,0,0,1589.00455,1153.66818Z" transform="translate(-186.83333 -542.59375)"/><rect class="cls-8" x="1606.97055" y="1172.55951" width="60.09212" height="7.50608" rx="2.31774" transform="translate(1124.41631 -1355.60533) rotate(45)"/><rect class="cls-8" x="1606.97055" y="1172.55951" width="60.09212" height="7.50608" rx="2.31774" transform="translate(3439.50741 307.95182) rotate(135)"/><circle class="cls-8" cx="1517.49536" cy="634.37886" r="23.5548"/><rect class="cls-9" x="23.16667" y="274.07292" width="141" height="625.46215" rx="18.39774"/></svg>