<svg xmlns="http://www.w3.org/2000/svg" width="928.137" height="56.398" viewBox="0 0 928.137 56.398">
  <g id="组_58" data-name="组 58" transform="translate(-30.141 -112.689)">
    <path id="路径_667" data-name="路径 667" d="M30.641,113.189H52.014V122.9H43.26v9.2h7.794v9.232H43.26v20.386H30.641Z" transform="translate(0 0)" fill="none" stroke="#000" stroke-width="1"/>
    <path id="路径_668" data-name="路径 668" d="M73.849,133.112v9.743a41.018,41.018,0,0,1-.54,7.869A11.046,11.046,0,0,1,71,155.4a10.421,10.421,0,0,1-4.542,3.206,18.13,18.13,0,0,1-6.37,1.035,22.733,22.733,0,0,1-6.805-.884,9.262,9.262,0,0,1-4.331-2.668,10.522,10.522,0,0,1-2.2-4.317,32.4,32.4,0,0,1-.66-7.6V133.983a24.939,24.939,0,0,1,1.2-8.664,9.966,9.966,0,0,1,4.317-5.007,15.2,15.2,0,0,1,7.973-1.888,18.215,18.215,0,0,1,7,1.214,10.965,10.965,0,0,1,6.686,7.18A24.95,24.95,0,0,1,73.849,133.112Zm-12.111-3a13.231,13.231,0,0,0-.33-3.852A1.361,1.361,0,0,0,60,125.469a1.421,1.421,0,0,0-1.438.794,12.167,12.167,0,0,0-.361,3.852v17.956a11.636,11.636,0,0,0,.361,3.673,1.639,1.639,0,0,0,2.833.075,10.208,10.208,0,0,0,.344-3.358Z" transform="translate(8.263 2.8)" fill="none" stroke="#000" stroke-width="1"/>
    <path id="路径_669" data-name="路径 669" d="M78.884,119.144l-.479,5.231q2.636-5.62,7.644-5.951v14a10.143,10.143,0,0,0-4.887.9,3.774,3.774,0,0,0-1.919,2.5,44.929,44.929,0,0,0-.359,7.389v15.709H66.773v-39.78Z" transform="translate(19.325 2.8)" fill="none" stroke="#000" stroke-width="1"/>
    <path id="路径_670" data-name="路径 670" d="M111.189,113.189l7.217,48.535h-12.9L104.83,153h-4.514l-.758,8.724H86.51l6.437-48.535ZM104.5,144.4q-.96-8.244-1.922-20.384-1.929,13.94-2.424,20.384Z" transform="translate(29.881 0)" fill="none" stroke="#000" stroke-width="1"/>
    <path id="路径_671" data-name="路径 671" d="M121.308,113.189v48.535H108.687V113.189Z" transform="translate(41.742 0)" fill="none" stroke="#000" stroke-width="1"/>
    <path id="路径_672" data-name="路径 672" d="M128.416,138.365v9.894h-9.143v-9.894Z" transform="translate(47.404 13.465)" fill="none" stroke="#000" stroke-width="1"/>
    <path id="路径_673" data-name="路径 673" d="M127.594,113.189h12.59a33.244,33.244,0,0,1,9.039.929,8.97,8.97,0,0,1,4.961,3.76q1.888,2.832,1.888,9.123,0,4.252-1.334,5.931t-5.26,2.575q4.374.992,5.935,3.285t1.558,7.034v4.5a17.879,17.879,0,0,1-1.123,7.289,6.062,6.062,0,0,1-3.582,3.24q-2.459.87-10.073.87h-14.6Zm12.619,8.3v10.791c.54-.02.959-.031,1.26-.031q1.858,0,2.368-.913t.51-5.232a8.468,8.468,0,0,0-.421-3.192,2.016,2.016,0,0,0-1.094-1.154A9.747,9.747,0,0,0,140.213,121.494Zm0,18.346v13.579q2.668-.09,3.4-.838t.735-3.688v-4.526q0-3.117-.66-3.777T140.213,139.84Z" transform="translate(51.854 0)" fill="none" stroke="#000" stroke-width="1"/>
    <path id="路径_674" data-name="路径 674" d="M177.241,118.893v39.78H164.92l.21-3.306a8.443,8.443,0,0,1-3.1,3.019,8.718,8.718,0,0,1-4.242,1.005,9.543,9.543,0,0,1-4.526-.959,6.218,6.218,0,0,1-2.654-2.548,9.314,9.314,0,0,1-1.064-3.312q-.212-1.724-.21-6.85V118.893h12.111v27.068a28.2,28.2,0,0,0,.284,5.516q.285.87,1.544.869,1.349,0,1.6-.9a34.613,34.613,0,0,0,.255-5.786V118.893Z" transform="translate(63.48 3.051)" fill="none" stroke="#000" stroke-width="1"/>
    <path id="路径_675" data-name="路径 675" d="M182.819,113.189v6.327H170.348v-6.327Zm0,8.755v39.78H170.348v-39.78Z" transform="translate(74.72 0)" fill="none" stroke="#000" stroke-width="1"/>
    <path id="路径_676" data-name="路径 676" d="M193.776,113.189v48.535H181.3V113.189Z" transform="translate(80.581 0)" fill="none" stroke="#000" stroke-width="1"/>
    <path id="路径_677" data-name="路径 677" d="M219.936,113.189v48.535H207.825v-2.885a12.483,12.483,0,0,1-3.658,2.7,9.348,9.348,0,0,1-4.017.9,8.161,8.161,0,0,1-4.885-1.483,6.611,6.611,0,0,1-2.654-3.433,24.429,24.429,0,0,1-.585-6.354V132.556a25.058,25.058,0,0,1,.585-6.506,6.465,6.465,0,0,1,2.683-3.372,8.576,8.576,0,0,1,5.007-1.453,9.89,9.89,0,0,1,7.524,3.245v-11.28Zm-12.111,18.766a7.565,7.565,0,0,0-.375-2.938,1.5,1.5,0,0,0-1.484-.749,1.513,1.513,0,0,0-1.453.674,7.5,7.5,0,0,0-.375,3.013V151.44a8.982,8.982,0,0,0,.359,3.192,1.379,1.379,0,0,0,1.38.764,1.537,1.537,0,0,0,1.558-.853,13.193,13.193,0,0,0,.39-4.182Z" transform="translate(86.315 0)" fill="none" stroke="#000" stroke-width="1"/>
    <path id="路径_678" data-name="路径 678" d="M240.6,139.738H224.919v8.6a9.566,9.566,0,0,0,.39,3.478,1.513,1.513,0,0,0,1.5.778,1.819,1.819,0,0,0,1.843-1.033,11.316,11.316,0,0,0,.465-4v-5.246H240.6v2.938a26.3,26.3,0,0,1-.465,5.667,11.55,11.55,0,0,1-2.173,4.227,10.585,10.585,0,0,1-4.331,3.372,16.777,16.777,0,0,1-6.58,1.124,19.136,19.136,0,0,1-6.775-1.108,10.855,10.855,0,0,1-4.572-3.044,10.979,10.979,0,0,1-2.262-4.256,27.443,27.443,0,0,1-.629-6.761v-11.6a19.722,19.722,0,0,1,1.409-8.228,9.669,9.669,0,0,1,4.615-4.617,16.27,16.27,0,0,1,7.375-1.6,16.5,16.5,0,0,1,8.409,1.934,10.641,10.641,0,0,1,4.646,5.125,24.05,24.05,0,0,1,1.334,8.979Zm-12.141-6.475v-2.909a14.655,14.655,0,0,0-.33-3.986,1.3,1.3,0,0,0-1.349-.9q-1.259,0-1.558.764a15.836,15.836,0,0,0-.3,4.121v2.909Z" transform="translate(97.43 2.8)" fill="none" stroke="#000" stroke-width="1"/>
    <path id="路径_679" data-name="路径 679" d="M245.6,119.144l-.48,5.231q2.638-5.62,7.645-5.951v14a10.139,10.139,0,0,0-4.887.9,3.769,3.769,0,0,0-1.919,2.5,44.929,44.929,0,0,0-.359,7.389v15.709H233.492v-39.78Z" transform="translate(108.492 2.8)" fill="none" stroke="#000" stroke-width="1"/>
    <path id="路径_680" data-name="路径 680" d="M252.436,138.619v4.347a16.382,16.382,0,0,1-.809,5.607,8.229,8.229,0,0,1-2.8,3.716,10.865,10.865,0,0,1-4.512,2.04V150.85a3.691,3.691,0,0,0,2.04-2.727h-2.04v-9.5Z" transform="translate(114.279 13.601)" fill="none" stroke="#000" stroke-width="1"/>
    <path id="路径_681" data-name="路径 681" d="M281.833,113.189l7.218,48.535h-12.9L275.475,153H270.96l-.758,8.724H257.154l6.439-48.535ZM275.144,144.4q-.958-8.244-1.922-20.384-1.929,13.94-2.422,20.384Z" transform="translate(121.148 0)" fill="none" stroke="#000" stroke-width="1"/>
    <path id="路径_682" data-name="路径 682" d="M291.208,119.144l-.479,5.231q2.636-5.62,7.644-5.951v14a10.132,10.132,0,0,0-4.885.9,3.765,3.765,0,0,0-1.919,2.5,44.683,44.683,0,0,0-.361,7.389v15.709H279.1v-39.78Z" transform="translate(132.884 2.8)" fill="none" stroke="#000" stroke-width="1"/>
    <path id="路径_683" data-name="路径 683" d="M307.6,115.436V121.7h3.268V128H307.6v21.284q0,3.928.405,4.377t3.372.45v6.416h-4.887a34.851,34.851,0,0,1-5.9-.345,6.29,6.29,0,0,1-3.119-1.589,5.282,5.282,0,0,1-1.678-2.849,50.306,50.306,0,0,1-.33-7.539V128h-2.608V121.7h2.608v-6.265Z" transform="translate(140.238 1.202)" fill="none" stroke="#000" stroke-width="1"/>
    <path id="路径_684" data-name="路径 684" d="M318.795,113.189v6.327H306.324v-6.327Zm0,8.755v39.78H306.324v-39.78Z" transform="translate(147.446 0)" fill="none" stroke="#000" stroke-width="1"/>
    <path id="路径_685" data-name="路径 685" d="M333.43,113.189v6.145a15.029,15.029,0,0,0-4.422.345q-.675.345-.674,1.963v1.26h5.1V129.2h-2.878v32.526H318.441V129.2h-2.488V122.9h2.488a32.2,32.2,0,0,1,.27-5.246,4.509,4.509,0,0,1,1.334-2.354,6.861,6.861,0,0,1,2.982-1.573,23.994,23.994,0,0,1,5.966-.54Z" transform="translate(152.595 0)" fill="none" stroke="#000" stroke-width="1"/>
    <path id="路径_686" data-name="路径 686" d="M341.315,113.189v6.327H328.844v-6.327Zm0,8.755v39.78H328.844v-39.78Z" transform="translate(159.49 0)" fill="none" stroke="#000" stroke-width="1"/>
    <path id="路径_687" data-name="路径 687" d="M366.7,134.162H355.275v-4.588a9.008,9.008,0,0,0-.39-3.252,1.44,1.44,0,0,0-1.44-.853,1.41,1.41,0,0,0-1.409.749,9.62,9.62,0,0,0-.359,3.357v18.766a7.3,7.3,0,0,0,.54,3.192,1.708,1.708,0,0,0,1.589,1.064,1.637,1.637,0,0,0,1.664-1.108,13.4,13.4,0,0,0,.434-4.2v-4.736H366.7a62.773,62.773,0,0,1-.344,7.151,11.477,11.477,0,0,1-2.009,4.885,10.718,10.718,0,0,1-4.422,3.777,15.908,15.908,0,0,1-6.744,1.274,16.078,16.078,0,0,1-8.124-1.753,9.649,9.649,0,0,1-4.242-4.916,25.446,25.446,0,0,1-1.245-8.979v-11.3a21.909,21.909,0,0,1,1.019-7.645,9.919,9.919,0,0,1,4.347-4.6,15.3,15.3,0,0,1,8.095-2.023,15.491,15.491,0,0,1,8.093,2.008,9.867,9.867,0,0,1,4.468,5.066A26.514,26.514,0,0,1,366.7,134.162Z" transform="translate(165.225 2.8)" fill="none" stroke="#000" stroke-width="1"/>
    <path id="路径_688" data-name="路径 688" d="M372.057,113.189v6.327H359.586v-6.327Zm0,8.755v39.78H359.586v-39.78Z" transform="translate(175.932 0)" fill="none" stroke="#000" stroke-width="1"/>
    <path id="路径_689" data-name="路径 689" d="M381.553,134.552H370.191v-2.669a18.784,18.784,0,0,1,1.065-7.119,9.868,9.868,0,0,1,4.271-4.422,16.081,16.081,0,0,1,8.334-1.919q6.145,0,9.263,2.173a8.468,8.468,0,0,1,3.747,5.335q.631,3.163.629,13.026v19.965H385.72v-3.545a7.389,7.389,0,0,1-7.045,4.264,10.225,10.225,0,0,1-5.831-1.783q-2.652-1.782-2.654-7.809v-3.268q0-4.466,1.409-6.084t6.985-3.777q5.965-2.339,6.385-3.148a8.374,8.374,0,0,0,.421-3.3,11.1,11.1,0,0,0-.465-4.061,1.6,1.6,0,0,0-1.544-.944q-1.229,0-1.529.794a16.162,16.162,0,0,0-.3,4.123Zm3.837,5.455q-2.908,2.13-3.374,3.569a14.161,14.161,0,0,0-.464,4.136,12.1,12.1,0,0,0,.4,3.988,1.583,1.583,0,0,0,1.6.9,1.482,1.482,0,0,0,1.484-.7,11.346,11.346,0,0,0,.345-3.7Z" transform="translate(181.604 2.8)" fill="none" stroke="#000" stroke-width="1"/>
    <path id="路径_690" data-name="路径 690" d="M403.17,113.189v48.535H390.7V113.189Z" transform="translate(192.572 0)" fill="none" stroke="#000" stroke-width="1"/>
    <path id="路径_691" data-name="路径 691" d="M421.562,113.189v48.535H408.941V113.189Z" transform="translate(202.329 0)" fill="none" stroke="#000" stroke-width="1"/>
    <path id="路径_692" data-name="路径 692" d="M432.552,119.144l-.21,3.664a9.08,9.08,0,0,1,3.223-3.288,8.638,8.638,0,0,1,4.391-1.1,8.326,8.326,0,0,1,5.1,1.469,6.525,6.525,0,0,1,2.548,3.7,33.768,33.768,0,0,1,.571,7.449v27.88H436.059v-27.55a25.628,25.628,0,0,0-.27-5.005q-.269-.9-1.5-.9a1.5,1.5,0,0,0-1.619,1.034,25.9,25.9,0,0,0-.33,5.53v26.89H420.23v-39.78Z" transform="translate(208.367 2.8)" fill="none" stroke="#000" stroke-width="1"/>
    <path id="路径_693" data-name="路径 693" d="M454.609,115.436V121.7h3.268V128h-3.268v21.284q0,3.928.4,4.377t3.374.45v6.416H453.5a34.883,34.883,0,0,1-5.906-.345,6.292,6.292,0,0,1-3.117-1.589,5.284,5.284,0,0,1-1.679-2.849,50.6,50.6,0,0,1-.328-7.539V128h-2.609V121.7h2.609v-6.265Z" transform="translate(218.865 1.202)" fill="none" stroke="#000" stroke-width="1"/>
    <path id="路径_694" data-name="路径 694" d="M480.89,139.738H465.212v8.6a9.566,9.566,0,0,0,.39,3.478,1.513,1.513,0,0,0,1.5.778,1.819,1.819,0,0,0,1.843-1.033,11.354,11.354,0,0,0,.465-4v-5.246H480.89v2.938a26.3,26.3,0,0,1-.465,5.667,11.549,11.549,0,0,1-2.173,4.227,10.585,10.585,0,0,1-4.331,3.372,16.777,16.777,0,0,1-6.58,1.124,19.136,19.136,0,0,1-6.775-1.108,10.845,10.845,0,0,1-4.572-3.044,10.98,10.98,0,0,1-2.262-4.256,27.446,27.446,0,0,1-.629-6.761v-11.6a19.723,19.723,0,0,1,1.409-8.228,9.669,9.669,0,0,1,4.615-4.617,16.269,16.269,0,0,1,7.375-1.6,16.5,16.5,0,0,1,8.409,1.934,10.641,10.641,0,0,1,4.646,5.125,24.051,24.051,0,0,1,1.334,8.979Zm-12.141-6.475v-2.909a14.654,14.654,0,0,0-.33-3.986,1.3,1.3,0,0,0-1.349-.9q-1.259,0-1.559.764a15.939,15.939,0,0,0-.3,4.121v2.909Z" transform="translate(225.948 2.8)" fill="none" stroke="#000" stroke-width="1"/>
    <path id="路径_695" data-name="路径 695" d="M486.256,113.189v48.535H473.785V113.189Z" transform="translate(237.01 0)" fill="none" stroke="#000" stroke-width="1"/>
    <path id="路径_696" data-name="路径 696" d="M497.213,113.189v48.535H484.742V113.189Z" transform="translate(242.87 0)" fill="none" stroke="#000" stroke-width="1"/>
    <path id="路径_697" data-name="路径 697" d="M508.17,113.189v6.327H495.7v-6.327Zm0,8.755v39.78H495.7v-39.78Z" transform="translate(248.73 0)" fill="none" stroke="#000" stroke-width="1"/>
    <path id="路径_698" data-name="路径 698" d="M534.3,119.144v30.637a67.554,67.554,0,0,1-.285,8.018,8,8,0,0,1-2.023,3.837,10.862,10.862,0,0,1-4.841,3.088,24.408,24.408,0,0,1-7.809,1.064,19.007,19.007,0,0,1-9.293-1.963q-3.506-1.964-3.627-7.719h11.751q0,2.638,1.919,2.637a1.906,1.906,0,0,0,1.829-.809,8.215,8.215,0,0,0,.448-3.392v-3a11.546,11.546,0,0,1-3.281,2.135,9.274,9.274,0,0,1-3.613.72,10.009,10.009,0,0,1-5.381-1.318,6.742,6.742,0,0,1-2.892-3.463,18.607,18.607,0,0,1-.78-6.1V129.065q0-5.666,2.038-8.153t6.205-2.488a9.21,9.21,0,0,1,4.152.93,9.864,9.864,0,0,1,3.343,2.795l.869-3.005ZM522.16,129.7a11.553,11.553,0,0,0-.315-3.478,1.346,1.346,0,0,0-1.4-.749,1.526,1.526,0,0,0-1.483.853,8.567,8.567,0,0,0-.436,3.374v13.37a11.188,11.188,0,0,0,.33,3.461,1.334,1.334,0,0,0,1.38.8,1.485,1.485,0,0,0,1.558-.959,15.754,15.754,0,0,0,.361-4.347Z" transform="translate(254.465 2.8)" fill="none" stroke="#000" stroke-width="1"/>
    <path id="路径_699" data-name="路径 699" d="M554.954,139.738H539.275v8.6a9.529,9.529,0,0,0,.39,3.478,1.51,1.51,0,0,0,1.5.778,1.818,1.818,0,0,0,1.843-1.033,11.317,11.317,0,0,0,.465-4v-5.246h11.482v2.938a26.392,26.392,0,0,1-.465,5.667,11.549,11.549,0,0,1-2.173,4.227,10.586,10.586,0,0,1-4.331,3.372,16.786,16.786,0,0,1-6.581,1.124,19.135,19.135,0,0,1-6.775-1.108,10.839,10.839,0,0,1-4.571-3.044,11,11,0,0,1-2.264-4.256,27.522,27.522,0,0,1-.629-6.761v-11.6a19.747,19.747,0,0,1,1.409-8.228,9.672,9.672,0,0,1,4.617-4.617,16.264,16.264,0,0,1,7.375-1.6,16.489,16.489,0,0,1,8.408,1.934,10.626,10.626,0,0,1,4.646,5.125,24.047,24.047,0,0,1,1.335,8.979Zm-12.142-6.475v-2.909a14.677,14.677,0,0,0-.328-3.986,1.3,1.3,0,0,0-1.349-.9q-1.259,0-1.559.764a15.939,15.939,0,0,0-.3,4.121v2.909Z" transform="translate(265.559 2.8)" fill="none" stroke="#000" stroke-width="1"/>
    <path id="路径_700" data-name="路径 700" d="M560.168,119.144l-.21,3.664a9.08,9.08,0,0,1,3.223-3.288,8.642,8.642,0,0,1,4.391-1.1,8.334,8.334,0,0,1,5.1,1.469,6.54,6.54,0,0,1,2.548,3.7,33.883,33.883,0,0,1,.569,7.449v27.88H563.675v-27.55a25.49,25.49,0,0,0-.27-5.005q-.269-.9-1.5-.9a1.5,1.5,0,0,0-1.619,1.034,26.006,26.006,0,0,0-.33,5.53v26.89h-12.11v-39.78Z" transform="translate(276.622 2.8)" fill="none" stroke="#000" stroke-width="1"/>
    <path id="路径_701" data-name="路径 701" d="M595.661,134.162H584.24v-4.588a9.009,9.009,0,0,0-.39-3.252,1.44,1.44,0,0,0-1.44-.853,1.409,1.409,0,0,0-1.409.749,9.617,9.617,0,0,0-.359,3.357v18.766a7.326,7.326,0,0,0,.539,3.192,1.711,1.711,0,0,0,1.59,1.064,1.636,1.636,0,0,0,1.664-1.108,13.4,13.4,0,0,0,.434-4.2v-4.736h10.791a62.338,62.338,0,0,1-.345,7.151,11.455,11.455,0,0,1-2.008,4.885,10.717,10.717,0,0,1-4.422,3.777,15.91,15.91,0,0,1-6.746,1.274,16.086,16.086,0,0,1-8.124-1.753,9.653,9.653,0,0,1-4.241-4.916,25.447,25.447,0,0,1-1.245-8.979v-11.3a21.873,21.873,0,0,1,1.019-7.645,9.918,9.918,0,0,1,4.347-4.6,15.3,15.3,0,0,1,8.095-2.023,15.491,15.491,0,0,1,8.093,2.008,9.864,9.864,0,0,1,4.466,5.066A26.468,26.468,0,0,1,595.661,134.162Z" transform="translate(287.684 2.8)" fill="none" stroke="#000" stroke-width="1"/>
    <path id="路径_702" data-name="路径 702" d="M616.106,139.738H600.427v8.6a9.565,9.565,0,0,0,.39,3.478,1.512,1.512,0,0,0,1.5.778,1.82,1.82,0,0,0,1.845-1.033,11.363,11.363,0,0,0,.464-4v-5.246h11.482v2.938a26.3,26.3,0,0,1-.465,5.667,11.55,11.55,0,0,1-2.173,4.227,10.585,10.585,0,0,1-4.331,3.372,16.783,16.783,0,0,1-6.58,1.124,19.135,19.135,0,0,1-6.775-1.108,10.846,10.846,0,0,1-4.572-3.044,10.979,10.979,0,0,1-2.262-4.256,27.429,27.429,0,0,1-.631-6.761v-11.6a19.746,19.746,0,0,1,1.409-8.228,9.679,9.679,0,0,1,4.617-4.617,16.27,16.27,0,0,1,7.375-1.6,16.489,16.489,0,0,1,8.408,1.934,10.636,10.636,0,0,1,4.647,5.125,24.048,24.048,0,0,1,1.334,8.979Zm-12.141-6.475v-2.909a14.654,14.654,0,0,0-.33-3.986,1.3,1.3,0,0,0-1.349-.9q-1.259,0-1.56.764a15.938,15.938,0,0,0-.3,4.121v2.909Z" transform="translate(298.265 2.8)" fill="none" stroke="#000" stroke-width="1"/>
    <path id="路径_703" data-name="路径 703" d="M615.914,122.9h28.838v7.315H615.914Zm0,11.451h28.838v7.315H615.914Z" transform="translate(313.026 5.192)" fill="none" stroke="#000" stroke-width="1"/>
  </g>
</svg>
