<svg xmlns="http://www.w3.org/2000/svg" width="547.275" height="69.272" viewBox="0 0 547.275 69.272">
  <g id="Hide" transform="translate(-371.576 -1149.615)">
    <path id="路径_773" data-name="路径 773" d="M453.281,1149.615h80.894l-25.425,16.138v36.894l25.425,16.24H453.281l19.64-16.24V1191.33H432.779v11.317l19.64,16.24H371.576L397,1202.647v-36.894l-25.425-16.138h80.843l-19.64,16.138v8.272h40.142v-8.272Z" fill="#5d00ff"/>
    <path id="路径_774" data-name="路径 774" d="M537.93,1149.615h85.411l-25.375,16.138V1202.7l25.375,16.189H537.93l25.426-16.189v-36.945Z" fill="#5d00ff"/>
    <path id="路径_775" data-name="路径 775" d="M627.248,1149.615h91.044q15.579,0,24.486,2.207a53.191,53.191,0,0,1,17.432,8.095q16.443,11.52,16.443,25.425,0,14.869-16.9,24.207t-43.847,9.338H627.248l25.425-16.037v-37.1Zm61.2,55.57h17q17.965,0,23.877-3.933t5.913-15.808q0-23.548-29.435-23.548H688.451Z" fill="#5d00ff"/>
    <path id="路径_776" data-name="路径 776" d="M916.821,1149.615v29.942l-25.983-18.524H841.966v15.124h26.847l19.081-8.12V1199.3l-19.081-9.439H841.966v15.326h48.872l28.013-19.894v33.6H780.763l25.426-16.037V1165.7l-25.426-16.087Z" fill="#5d00ff"/>
  </g>
</svg>
