<svg id="图层_1" data-name="图层 1" xmlns="http://www.w3.org/2000/svg" viewBox="0 0 302.57953 212.28428"><defs><style>.cls-1{fill:#db2896;}.cls-1,.cls-2,.cls-3{stroke:#000;stroke-miterlimit:10;stroke-width:3px;}.cls-2{fill:#0cc;}.cls-3{fill:#fff;}</style></defs><path class="cls-1" d="M31.59069,22.506a11.27721,11.27721,0,0,0-2.64755,2.426C27.73438,26.47536,13.69389,44.37632,5.7452,94.67006s4.27353,63.07153,4.27353,63.07153l1.73612,1.41666s28.837,25.56909,96.93931,43.65955,103.13015,4.25418,107.13969,2.53787,16.07377-6.7252,19.90711-8.94742,5.94141-4.07714,7.3973-6.49419,11.07444-24.71,11.07444-24.71l20.1172-9.88135a8.69143,8.69143,0,0,0,2.79995-2.3034c1.05555-1.44444,11.48307-29.62071,15.923-44.73831s9.43887-35.31724,9.43887-35.31724a8.38632,8.38632,0,0,0-.41747-4.57618c-.94444-1.86827-11.38889-18.97938-21.83333-29.2016S251.40127,12.72249,239.71,8.34315s-69.0246,4.954-69.0246,4.954S146.35207,4.08747,133.01873,2.97008,103.182,5.25215,103.182,5.25215s-33.1355,6.4061-40.96883,8.1561S31.59069,22.506,31.59069,22.506Z" transform="translate(-1.55881 -1.24464)"/><path class="cls-2" d="M45.89621,57.00566s-7.33024,15.32487-10.59,26.98873a157.8671,157.8671,0,0,0-5.50865,30.525c-.77886,9.33334.61,21,.61,21s-.22222,1.33334,5.44445,4.94445,53.94223,31.88585,92.33222,41.19292S171.26337,186.38,171.26337,186.38s10.73887-13.73142,13.80267-31.01827,3.93764-58.45352,3.93764-58.45352-.04738-4.13019-7.64423-8.03507a212.1363,212.1363,0,0,0-52.43069-18.563C104.33035,65.313,82.24237,60.71261,68.9251,59.18406S45.89621,57.00566,45.89621,57.00566Z" transform="translate(-1.55881 -1.24464)"/><path class="cls-1" d="M202.12985,45.8527s33.55555,14.88889,44,25.77777,8,32.77778,8,32.77778" transform="translate(-1.55881 -1.24464)"/><line class="cls-1" x1="248.2993" y1="75.64223" x2="270.21966" y2="72.99695"/><path class="cls-3" d="M51.57028,72.19575s2.45372-3.28061,4.37918-2.63784,3.2369,1.31325,4.09759,5.097.3753,24.82976-.93412,33.72223-1.9775,19.06907-10.51052,20.39238-9.32153-9.604-9.32153-9.604,1.67969-14.35941,3.429-23.05695S51.57028,72.19575,51.57028,72.19575Z" transform="translate(-1.55881 -1.24464)"/><path class="cls-3" d="M75.85082,77.90085c-2.47354.95137-4.94709,5.13736-6.08872,8.94282s-8.94282,42.43079-7.61091,46.99733,8.372,4.75682,11.03581,0,3.61518-31.77552,3.61518-31.77552,1.71246,35.96152,6.46927,41.47943,9.32336-3.99573,11.22609-13.8899,8.09391-38.05453,6.13995-43.76271-8.42322-2.85409-8.42322-2.85409S87.838,84.56039,86.12554,93.31294s-1.52218,11.29023-1.52218,11.29023.95137-13.38323-1.52218-20.04278S75.85082,77.90085,75.85082,77.90085Z" transform="translate(-1.55881 -1.24464)"/><path class="cls-3" d="M117.32905,91.14886s-2.18286,0-4.05388,2.80653-9.99232,22.45228-12.48025,32.27515-4.203,17.93064-2.48794,21.51677,8.16775,6.08082,11.80185,2.96245,6.12879-26.0384,6.12879-26.0384,3.11837,2.96245,9.82287,3.27429,7.01634-5.14532,7.01634-5.14532,1.09143-3.43021-4.9894-6.39266-7.32817-2.96245-7.32817-2.96245.77959-4.05389.93551-5.769.15592-4.00389.15592-4.00389,7.79593,7.27818,14.65635,5.87491,7.17225-6.86041,6.7045-10.60246-6.08083-8.10777-13.25308-8.73144A38.50032,38.50032,0,0,0,117.32905,91.14886Z" transform="translate(-1.55881 -1.24464)"/><path class="cls-3" d="M166.76572,102.56362s-10.88889-.16456-16.66667,7.61322-14.66666,24.22222-15.11111,34.88889,5.77778,15.11111,9.11111,17.55556,13.77778,3.11111,20-2,10.22223-23.77778,10-39.11111S166.76572,102.56362,166.76572,102.56362Z" transform="translate(-1.55881 -1.24464)"/><ellipse class="cls-2" cx="160.66667" cy="120" rx="6.16667" ry="4" transform="translate(11.60432 254.61001) rotate(-79.4015)"/></svg>