<svg xmlns="http://www.w3.org/2000/svg" width="510.606" height="75.106" viewBox="0 0 510.606 75.106">
  <g id="Info" transform="translate(-977.431 -1146.698)">
    <path id="路径_592" data-name="路径 592" d="M977.431,1149.034H1062.9l-25.39,16.149v36.968l25.39,16.2H977.431l25.442-16.2v-36.968Z" fill="#5d00ff"/>
    <path id="路径_593" data-name="路径 593" d="M1128.607,1149.034l43.164,37.426v-21.277l-25.492-16.149h71.043l-25.441,16.149v53.168h-35.852l-43.672-39.407v23.207l25.493,16.2h-71.043l25.441-16.2v-36.968l-25.441-16.149Z" fill="#5d00ff"/>
    <path id="路径_594" data-name="路径 594" d="M1214.529,1149.034h136.043v33.516l-27.168-21.227h-47.633v14.27h25.848l20.11-8.328v33.769l-20.11-10.359h-25.848V1202.2l25.645,16.149h-86.887l25.442-16.149v-37.324Z" fill="#5d00ff"/>
    <path id="路径_595" data-name="路径 595" d="M1422.986,1146.7q26.3,0,45.678,11.68t19.373,27.473q0,14.676-19.525,25.314t-46.389,10.639q-26.355,0-46.312-10.791T1355.854,1186q0-16.1,19.83-27.7T1422.986,1146.7Zm-1.015,11.985q-10.816,0-17.647,7.033t-6.83,18.154q0,11.071,6.7,17.748t17.774,6.678q11.121,0,17.8-6.652t6.677-17.774q0-11.07-6.855-18.129T1421.971,1158.683Z" fill="#5d00ff"/>
  </g>
</svg>
