<svg id="图层_10" data-name="图层 10" xmlns="http://www.w3.org/2000/svg" viewBox="0 0 541.3915 613.16052"><defs><style>.cls-1{fill:#fff;}.cls-1,.cls-2{stroke:#000;stroke-miterlimit:10;stroke-width:3px;}.cls-2{fill:none;}</style></defs><path class="cls-1" d="M338.25029,579.706s36.639,21.79217,78.16147,4.95662,45.17186-57.74618,43.922-80.01664-19.16436-75.24675-59.064-82.4794-77.06912,12.31008-81.28422,39.51663S304.4011,562.84559,338.25029,579.706Z" transform="translate(-42.79748 -30.8616)"/><path class="cls-2" d="M173.13119,598.80753s-53.17441-7.01294-69.203-52.5259-9.6804-89.9631-12.85449-113.9764S37.148,369.49356,45.15249,303.31346,74.44636,197.56891,134.75584,171.943C169.00833,108.76442,257.079,11.08514,401.8929,36.48627S577.58244,175.89913,577.58244,175.89913s17.67165,63.60545-12.73305,121.94215-86.886,104.17808-169.77071,122.38654c-3.69191,35.06887-29.6129,75.91722-29.6129,75.91722S304.34567,600.79322,173.13119,598.80753Z" transform="translate(-42.79748 -30.8616)"/><path class="cls-1" d="M346.62068,273.47015s25.16227,39.985,32.73166,69.43343,17.813,50.86264,10.83634,91.91016-24.2304,63.65793-24.2304,63.65793-32.15989-49.25568-36.51016-74.22895-1.47173-83.62509,3.67281-103.24428S346.62068,273.47015,346.62068,273.47015Z" transform="translate(-42.79748 -30.8616)"/><path class="cls-1" d="M269.82148,359.75443s-31.4556-11.11253-48.29234-7.6401-38.44891,16.88678-35.70654,41.16823,29.935,30.08155,46.16676,25.33418c9.3343,23.60875,28.60159,33.48669,50.06028,32.01891s22.22507-5.10387,22.22507-5.10387,15.71082,7.72122,21.465,7.75327,22.602-6.1631,20.73777-29.44737-31.41574-27.29256-31.41574-27.29256l31.41574-120.3263" transform="translate(-42.79748 -30.8616)"/><path class="cls-1" d="M365.02127,466.61094s-47.78587-21.62628-85.30468-21.06856S240.607,459.61209,240.607,459.61209s-33.63609-9.09288-64.81563,21.39652-33.57484,55.32445-33.57484,55.32445,25.33151,130.0652,165.09606,102.30216c97.869-22.39837,56.34564-140.1657,56.60662-151.53369S365.02127,466.61094,365.02127,466.61094Z" transform="translate(-42.79748 -30.8616)"/><path class="cls-2" d="M255.89842,495.40847s10.91938,11.10806,15.23028,18.38869,12.61584,24.21692,12.61584,24.21692" transform="translate(-42.79748 -30.8616)"/><path class="cls-2" d="M142.21656,536.33306s26.365-5.91851,40.4802-7.80651,25.58864,3.28058,36.70117-3.80845,19.55929-21.56189,37.65678-29.90855,20.90756-1.96016,32.14783-5.53661,31.06008-30.25182,75.81873-22.662c-20.89471,32.114-25.686,84.50345-25.686,84.50345s-.35815,11.47574-11.706,14.54126-78.27854,28.61159-78.27854,28.61159-4.57062,3.11557-11.18956-2.76922-31.0674-26.5379-46.92291-36.42326S142.21656,536.33306,142.21656,536.33306Z" transform="translate(-42.79748 -30.8616)"/><path class="cls-2" d="M208.99133,528.33663s13.97716,26.41847,22.05007,27.5766,67.3523-12.48265,82.42718-40.32785-15.13132-31.62287-15.13132-31.62287l-4.46164,2.98333-4.67308,2.3271-9.85517,1.14367-13.9988,1.2141L251.13028,497.944,234.0326,511.76843,224.16214,521.15l-9.177,5.76808Z" transform="translate(-42.79748 -30.8616)"/><path class="cls-2" d="M191.47745,370.49952S78.77831,331.86423,108.885,267.12747s104.7012-29.33385,117.47422,10.82652" transform="translate(-42.79748 -30.8616)"/><circle class="cls-1" cx="323.71212" cy="363.19629" r="23.55837"/><line class="cls-1" x1="285.24483" y1="149.20683" x2="434.6549" y2="210.15147"/><path class="cls-1" d="M416.41176,216.11449s-3.00314,60.95242-10.93847,92.5008A453.97294,453.97294,0,0,1,386.12774,367.176" transform="translate(-42.79748 -30.8616)"/><path class="cls-1" d="M375.97068,480.94824s27.42273-.61212,49.39234,17.52343" transform="translate(-42.79748 -30.8616)"/><path class="cls-2" d="M197.06936,243.01822s-22.42293,8.01833-31.30917,25.46322-9.65261,41.9691-9.65261,41.9691" transform="translate(-42.79748 -30.8616)"/><path class="cls-2" d="M126.21869,276.21882s22.42646-10.33888,40.97439-10.27865,37.19654,10.27865,37.19654,10.27865" transform="translate(-42.79748 -30.8616)"/></svg>