<svg id="图层_1" data-name="图层 1" xmlns="http://www.w3.org/2000/svg" viewBox="0 0 75.32525 69.86972"><defs><style>.cls-1{fill:#af4a73;}.cls-2{fill:none;stroke:#fff;stroke-miterlimit:10;stroke-width:8px;}</style></defs><path class="cls-1" d="M47.84278,0H27.48247A17.3023,17.3023,0,0,0,12.49823,8.65116L2.31807,26.28371a17.30231,17.30231,0,0,0,0,17.30231L12.49823,61.21857a17.30231,17.30231,0,0,0,14.98424,8.65115H47.84278A17.30233,17.30233,0,0,0,62.827,61.21857L73.00718,43.586a17.30231,17.30231,0,0,0,0-17.30231L62.827,8.65116A17.3023,17.3023,0,0,0,47.84278,0Z" transform="translate(0)"/><circle cx="23.52014" cy="49.07735" r="7.69362"/><path class="cls-2" d="M18.97888,34.93486A18.68375,18.68375,0,1,1,37.66263,53.61861" transform="translate(0)"/></svg>