<svg id="图层_1" data-name="图层 1" xmlns="http://www.w3.org/2000/svg" viewBox="0 0 69.86974 69.86972"><defs><style>.cls-1{fill:#af4a73;}.cls-2{fill:none;stroke:#fff;stroke-miterlimit:10;stroke-width:8px;}</style></defs><path class="cls-1" d="M37.66265,0h0A34.93483,34.93483,0,0,0,7.40816,17.46741l0,0a34.93481,34.93481,0,0,0,0,34.93483l0,0A34.93483,34.93483,0,0,0,37.66261,69.86972h0A34.93484,34.93484,0,0,0,67.9171,52.40231l0,0a34.93486,34.93486,0,0,0,0-34.93483l0,0A34.93484,34.93484,0,0,0,37.66265,0Z" transform="translate(-2.72776 0)"/><circle cx="20.79238" cy="49.07735" r="7.69362"/><path class="cls-2" d="M18.97888,34.93486A18.68551,18.68551,0,1,1,37.66263,53.61861" transform="translate(-2.72776 0)"/></svg>