<svg xmlns="http://www.w3.org/2000/svg" width="346.688" height="157.106" viewBox="0 0 346.688 157.106">
  <g id="Reset" transform="translate(-143.505 -96.966)">
    <path id="路径_745" data-name="路径 745" d="M154.405,98.891a9.094,9.094,0,0,0,.809-1.072,1.328,1.328,0,0,1,1.143-.618q.166,0,1.332.167a1.907,1.907,0,0,1,.357,1l1.285,8.068c.063.428.1.682.1.761a.628.628,0,0,1-.25.6,3.521,3.521,0,0,1-1.321.143,2.633,2.633,0,0,1-1.57-.31,10.863,10.863,0,0,1-1.357-2.57q-2.119-4.784-3.784-4.784-1.191,0-1.19,1.666,0,2.07,3.594,8.139a86.951,86.951,0,0,1,5.366,10.127,18.766,18.766,0,0,1,1.249,7.009q0,4.594-2.166,7.045a6.4,6.4,0,0,1-4.879,2.451,6.249,6.249,0,0,1-3.308-.976,2.08,2.08,0,0,0-.976-.38c-.206,0-.373.151-.5.452q-.381.9-1.857.9a1.216,1.216,0,0,1-.773-.178,1.665,1.665,0,0,1-.3-.94l-1.19-7.925q-.238-1.523-.238-1.619,0-.69,1.262-.69,1.713,0,2.023.452a10.917,10.917,0,0,1,.881,2.07q2.095,5.783,4.213,5.783a1.593,1.593,0,0,0,1.273-.571,2.121,2.121,0,0,0,.488-1.427,7.934,7.934,0,0,0-1.083-3.558q-1.083-2.058-2.654-4.582a79.265,79.265,0,0,1-5.319-9.651,18.4,18.4,0,0,1-1.559-7.366,11.158,11.158,0,0,1,1.857-6.76,5.494,5.494,0,0,1,4.545-2.522A8.922,8.922,0,0,1,154.405,98.891Z" transform="translate(0 -0.044)" fill="#ffddf8"/>
    <path id="路径_746" data-name="路径 746" d="M176.781,104.876a9.019,9.019,0,0,1,7.473,4.011q3,4.01,3,11.912,0,8.52-3.046,12.887t-7.592,4.367a8.056,8.056,0,0,1-5.45-2,12.841,12.841,0,0,1-3.558-5.331,26.752,26.752,0,0,1-1.249-9.115q0-8.258,2.868-12.495A8.752,8.752,0,0,1,176.781,104.876Zm1.713,5.974q0-2.95-1.713-2.951-1.856,0-1.856,3.617v19.778q0,3.593,1.69,3.594,1.879,0,1.88-3.594Z" transform="translate(-4.288 -1.484)" fill="#ffddf8"/>
    <path id="路径_747" data-name="路径 747" d="M215.625,108.589q3.4-3.713,6.4-3.713a5.838,5.838,0,0,1,2.487.548,4.161,4.161,0,0,1,1.916,2.011,7.014,7.014,0,0,1,.738,3.2v22.538a1.834,1.834,0,0,0,.524,1.214,2.015,2.015,0,0,1,.595,1.332v1.142q0,.858-.785.857h-6.783a4.141,4.141,0,0,1-1.428-3.474V111.826a1.431,1.431,0,0,0-1.595-1.642,2.134,2.134,0,0,0-1.535.512,1.688,1.688,0,0,0-.536,1.273V133.46a1.6,1.6,0,0,0,.714,1.237.99.99,0,0,1,.429.738v1.427q0,.858-.809.857h-6.926a4.647,4.647,0,0,1-1.309-3.474V111.826q0-1.571-1.285-1.57a4.768,4.768,0,0,0-1.809.69q-.119.072-.357.191V133.46a1.576,1.576,0,0,0,.738,1.214,1.087,1.087,0,0,1,.476.9v1.285a.757.757,0,0,1-.857.857h-8.948q-.643,0-.643-.571v-1.571q0-.357.643-1.023.69-.69.69-1.094V109.445a1.3,1.3,0,0,0-.833-1.308.908.908,0,0,1-.5-.936v-1.223q0-.768.928-.768h7.473q.833,0,.833.761v2.4q3.141-3.5,6.331-3.5Q213.816,104.876,215.625,108.589Z" transform="translate(-9.67 -1.484)" fill="#ffddf8"/>
    <path id="路径_748" data-name="路径 748" d="M247.619,120.988v9.734a5.291,5.291,0,0,0,.75,3.023,2.245,2.245,0,0,0,1.916,1.094,3.373,3.373,0,0,0,2.892-1.535,7.548,7.548,0,0,0,1.154-4.2,3.422,3.422,0,0,1,.274-1.714q.25-.285,1.725-.285a3.16,3.16,0,0,1,1.63.262q.345.262.345,1.309a9.907,9.907,0,0,1-2.379,6.522,7.8,7.8,0,0,1-6.307,2.855,9.362,9.362,0,0,1-7.639-4.081q-3.143-4.082-3.142-12.293t2.9-12.506a8.826,8.826,0,0,1,7.616-4.3,7.514,7.514,0,0,1,6.5,3.618q2.45,3.618,2.451,10.281v2.213Zm3.213-2.975v-7.877q0-2.236-1.595-2.237-1.618,0-1.618,2.237v7.877Z" transform="translate(-17.888 -1.484)" fill="#ffddf8"/>
    <path id="路径_749" data-name="路径 749" d="M266.635,107.09h-.929a.874.874,0,0,1-.512-.1q-.107-.1-.107-.523v-1.714a1.166,1.166,0,0,1,.107-.619q.107-.143.631-.214a6.591,6.591,0,0,0,3.451-1.9,6.415,6.415,0,0,0,2.07-3.522,1.579,1.579,0,0,1,.3-.821,1.178,1.178,0,0,1,.725-.154h1.548q.618,0,.618.833v5.474h1.476q.832,0,.833.785v1.714q0,.762-.833.761h-1.476v24.657a1.869,1.869,0,0,0,1.119,1.808,1.38,1.38,0,0,1,.714.643,3.9,3.9,0,0,1,.167,1.381q0,.619-.083.69a1.269,1.269,0,0,1-.583.071h-7.521a5.829,5.829,0,0,1-1.713-4.593Z" transform="translate(-22.814 -0.105)" fill="#ffddf8"/>
    <path id="路径_750" data-name="路径 750" d="M291.083,106.97q3.641-3.379,6.4-3.38a4.89,4.89,0,0,1,3.569,1.523,5.439,5.439,0,0,1,1.523,4.023v22.7a1.484,1.484,0,0,0,.5,1.262,1.861,1.861,0,0,1,.714,1.57,3.809,3.809,0,0,1-.167,1.452q-.166.31-.761.31h-6.069q-.785,0-1.452-1.142a5.292,5.292,0,0,1-.666-2.713V110.421a1.754,1.754,0,0,0-.417-1.131,1.241,1.241,0,0,0-.988-.512,3.708,3.708,0,0,0-2.189,1.1V131.84a1.9,1.9,0,0,0,.643,1.4,1.759,1.759,0,0,1,.643,1.1,9.092,9.092,0,0,1-.1,1.868q-.1.227-.929.226H282.73a.938.938,0,0,1-.738-.226,1.866,1.866,0,0,1-.191-1.059,4.651,4.651,0,0,1,.107-1.3,1.7,1.7,0,0,1,.583-.63,1.61,1.61,0,0,0,.69-1.38v-29.2q0-1.6-1.023-1.786a.608.608,0,0,1-.548-.643v-1.69q0-.5.595-.5h8a.768.768,0,0,1,.881.857Z" transform="translate(-25.914 -0.198)" fill="#ffddf8"/>
    <path id="路径_751" data-name="路径 751" d="M311.2,106.081V104.51q0-.785.952-.785h7.591a.7.7,0,0,1,.809.785v27.37a2.389,2.389,0,0,0,.07.738.733.733,0,0,0,.422.31,1.41,1.41,0,0,1,.842,1.475,5.608,5.608,0,0,1-.119,1.571q-.118.262-.76.262h-9.213a.486.486,0,0,1-.428-.3,5.247,5.247,0,0,1-.094-1.321q0-1.286.618-1.5a.968.968,0,0,0,.762-.952V108.437q0-1.379-1.024-1.665Q311.2,106.653,311.2,106.081Zm6.664-9.115q2.689,0,2.689,1.809a2.84,2.84,0,0,1-1.8,2.416,8.336,8.336,0,0,1-4.081.987q-2.951,0-2.951-1.975,0-1.571,2.071-2.4A10.847,10.847,0,0,1,317.865,96.966Z" transform="translate(-31.467)" fill="#ffddf8"/>
    <path id="路径_752" data-name="路径 752" d="M335.933,108.446q2.832-3.57,6.474-3.57a4.633,4.633,0,0,1,3.8,1.607,6.16,6.16,0,0,1,1.314,4.034v22.8a1.325,1.325,0,0,0,.6,1.167q.547.334.548,1.713a2.68,2.68,0,0,1-.179,1.309.969.969,0,0,1-.75.214H341.05a3.956,3.956,0,0,1-1.428-3.165V111.921q0-1.856-1.523-1.856a3.385,3.385,0,0,0-2.166,1.047v22.2a1.472,1.472,0,0,0,.833,1.333,1.1,1.1,0,0,1,.5,1.047v1.214q0,.809-1.167.809h-8.449a1.143,1.143,0,0,1-.786-.179,1.489,1.489,0,0,1-.167-.892v-.881a1.085,1.085,0,0,1,.428-.976,2.161,2.161,0,0,0,.738-.762,4.561,4.561,0,0,0,.167-1.57V109.184a1.267,1.267,0,0,0-.809-1.214.771.771,0,0,1-.452-.761v-1.262q0-.737.666-.738H335.2c.333,0,.539.047.618.142a1.008,1.008,0,0,1,.119.6Z" transform="translate(-34.375 -1.484)" fill="#ffddf8"/>
    <path id="路径_753" data-name="路径 753" d="M369.783,103.786q.785-.786.786-1.238,0-.642-.952-1.19a2.182,2.182,0,0,1-1.285-1.856q0-2.213,3.046-2.213a4.017,4.017,0,0,1,2.713.761,2.393,2.393,0,0,1,.856,1.856q0,2.095-3.093,4.927a11.865,11.865,0,0,1,5.259,10.21q0,5.546-3.034,8.78a9.37,9.37,0,0,1-7.009,3.239,10.323,10.323,0,0,1-2.713-.4,5.86,5.86,0,0,0-1.214-.19,2.889,2.889,0,0,0-1.606.571,1.564,1.564,0,0,0-.846,1.237q0,1.166,2.595,1.167h6.5a10.342,10.342,0,0,1,5.688,1.429,5.058,5.058,0,0,1,2.213,4.592q0,6.712-11.423,6.711a23.253,23.253,0,0,1-7.081-.881q-2.677-.88-2.678-2.784a2.253,2.253,0,0,1,.548-1.607,7.07,7.07,0,0,1,1.928-1.273l.571-.286a4.872,4.872,0,0,1-3.26-4.736q0-3.736,4.665-5.593a11.365,11.365,0,0,1-4.4-9.424,12.857,12.857,0,0,1,2.987-8.747,9.259,9.259,0,0,1,7.246-3.439A14.855,14.855,0,0,1,369.783,103.786Zm-7.116,32.391q-1.548.618-1.547,1.523t1.106,1.357a14.674,14.674,0,0,0,4.582.452q6,0,6-2.094,0-1.191-2.024-1.19H364.19Q363.405,136.225,362.667,136.177Zm5.9-26.418q0-3.093-1.714-3.093a1.514,1.514,0,0,0-1.357.987,4.6,4.6,0,0,0-.5,2.106v11.829a2.65,2.65,0,0,0,.488,1.63,1.493,1.493,0,0,0,1.249.654,1.57,1.57,0,0,0,1.321-.7,2.974,2.974,0,0,0,.512-1.8Z" transform="translate(-39.927 -0.061)" fill="#ffddf8"/>
    <path id="路径_754" data-name="路径 754" d="M414.255,109.273l-1.113-6.183a3.175,3.175,0,0,0-.928-1.69,1.472,1.472,0,0,1-.524-1V98.735q0-.714.689-.714h9.737q.475,0,.605.238a2.711,2.711,0,0,1,.131,1.071,4.774,4.774,0,0,1-.13,1.512,1.46,1.46,0,0,1-.6.512q-.71.381-.711.762a8.484,8.484,0,0,0,.191,1.478l2.736,15.345,2.844-15.843a4.923,4.923,0,0,0,.024-.5,1.807,1.807,0,0,0-1.212-1.669q-.618-.285-.642-1.618a3.6,3.6,0,0,0-.024-.5v-.214q0-.571.854-.571h5.457a.959.959,0,0,1,.735.2,1.511,1.511,0,0,1,.166.868,4,4,0,0,1-.024.429l-.072.928a1.512,1.512,0,0,1-.762.976,2.075,2.075,0,0,0-.856,1.452l-5.736,31.415a9.554,9.554,0,0,1-.548,2.214.838.838,0,0,1-.785.357h-4q-.643,0-.809-1.356c-.016-.175-.033-.31-.048-.4l-3.02-16.791-3,17.076a3.219,3.219,0,0,1-.357,1.249.764.764,0,0,1-.618.226H407.74q-.714,0-1.024-2.5c-.033-.3-.063-.531-.1-.69l-5.688-30.8a1.984,1.984,0,0,0-1-1.428,1.132,1.132,0,0,1-.666-1.047V98.569q0-.547.666-.548h9.425a.788.788,0,0,1,.666.25,2.2,2.2,0,0,1,.191,1.154,6.834,6.834,0,0,1-.071,1.285,1.36,1.36,0,0,1-.448.595,1.3,1.3,0,0,0-.472.928,8.061,8.061,0,0,0,.143,1.356l3.016,16.068Z" transform="translate(-47.992 -0.198)" fill="#ffddf8"/>
    <path id="路径_755" data-name="路径 755" d="M449.38,111.541a12.9,12.9,0,0,0,.69-2q.9-3.094,1.773-3.88a2.794,2.794,0,0,1,1.916-.786,2.318,2.318,0,0,1,2.154,1.357,7.158,7.158,0,0,1,.726,3.4q0,4.4-2.475,4.4a2.086,2.086,0,0,1-1.9-1.452q-.4-.833-.833-.833-1.071,0-1.071,2.357v19.016a1.405,1.405,0,0,0,.833,1.332,1.363,1.363,0,0,1,.833,1.31v1.071a1.283,1.283,0,0,1-.131.726q-.13.155-.75.154h-8.973q-.927,0-.928-.881V135.53a.9.9,0,0,1,.4-.881,1.313,1.313,0,0,0,.809-1.238V109.446a1.269,1.269,0,0,0-.571-1.166,1.912,1.912,0,0,1-.714-.56,4.274,4.274,0,0,1-.1-1.225q0-.857.249-1.072a1.308,1.308,0,0,1,.845-.214h6.427a.69.69,0,0,1,.618.249,2.649,2.649,0,0,1,.167,1.2Z" transform="translate(-55.836 -1.484)" fill="#ffddf8"/>
    <path id="路径_756" data-name="路径 756" d="M471.537,104.876a9.019,9.019,0,0,1,7.473,4.011q3,4.01,3,11.912,0,8.52-3.046,12.887t-7.591,4.367a8.055,8.055,0,0,1-5.45-2,12.841,12.841,0,0,1-3.558-5.331,26.732,26.732,0,0,1-1.249-9.115q0-8.258,2.868-12.495A8.752,8.752,0,0,1,471.537,104.876Zm1.713,5.974q0-2.95-1.713-2.951-1.857,0-1.856,3.617v19.778q0,3.593,1.69,3.594,1.879,0,1.88-3.594Z" transform="translate(-59.597 -1.484)" fill="#ffddf8"/>
    <path id="路径_757" data-name="路径 757" d="M498.824,108.446q2.832-3.57,6.473-3.57a4.63,4.63,0,0,1,3.8,1.607,6.156,6.156,0,0,1,1.315,4.034v22.8a1.323,1.323,0,0,0,.6,1.167q.547.334.547,1.713a2.694,2.694,0,0,1-.178,1.309.97.97,0,0,1-.75.214H503.94a3.955,3.955,0,0,1-1.427-3.165V111.921q0-1.856-1.523-1.856a3.383,3.383,0,0,0-2.166,1.047v22.2a1.472,1.472,0,0,0,.833,1.333,1.1,1.1,0,0,1,.5,1.047v1.214q0,.809-1.166.809h-8.449a1.146,1.146,0,0,1-.786-.179,1.5,1.5,0,0,1-.167-.892v-.881a1.083,1.083,0,0,1,.429-.976,2.176,2.176,0,0,0,.738-.762,4.583,4.583,0,0,0,.167-1.57V109.184a1.268,1.268,0,0,0-.809-1.214.771.771,0,0,1-.453-.761v-1.262q0-.737.667-.738h7.758q.5,0,.619.142a1.008,1.008,0,0,1,.119.6Z" transform="translate(-64.94 -1.484)" fill="#ffddf8"/>
    <path id="路径_758" data-name="路径 758" d="M532.674,103.786q.785-.786.785-1.238,0-.642-.952-1.19a2.183,2.183,0,0,1-1.285-1.856q0-2.213,3.046-2.213a4.015,4.015,0,0,1,2.713.761,2.394,2.394,0,0,1,.857,1.856q0,2.095-3.094,4.927a11.864,11.864,0,0,1,5.26,10.21q0,5.546-3.034,8.78a9.372,9.372,0,0,1-7.009,3.239,10.322,10.322,0,0,1-2.713-.4,5.861,5.861,0,0,0-1.214-.19,2.892,2.892,0,0,0-1.607.571,1.565,1.565,0,0,0-.845,1.237q0,1.166,2.594,1.167h6.5a10.337,10.337,0,0,1,5.687,1.429,5.056,5.056,0,0,1,2.214,4.592q0,6.712-11.423,6.711a23.252,23.252,0,0,1-7.081-.881q-2.677-.88-2.678-2.784a2.253,2.253,0,0,1,.547-1.607,7.071,7.071,0,0,1,1.928-1.273l.571-.286a4.873,4.873,0,0,1-3.261-4.736q0-3.736,4.665-5.593a11.368,11.368,0,0,1-4.4-9.424,12.861,12.861,0,0,1,2.987-8.747,9.262,9.262,0,0,1,7.247-3.439A14.862,14.862,0,0,1,532.674,103.786Zm-7.116,32.391q-1.548.618-1.548,1.523t1.107,1.357a14.668,14.668,0,0,0,4.581.452q6,0,6-2.094,0-1.191-2.023-1.19h-6.592Q526.295,136.225,525.558,136.177Zm5.9-26.418q0-3.093-1.713-3.093a1.513,1.513,0,0,0-1.357.987,4.6,4.6,0,0,0-.5,2.106v11.829a2.655,2.655,0,0,0,.487,1.63,1.5,1.5,0,0,0,1.25.654,1.57,1.57,0,0,0,1.321-.7,2.98,2.98,0,0,0,.511-1.8Z" transform="translate(-70.492 -0.061)" fill="#ffddf8"/>
    <path id="路径_759" data-name="路径 759" d="M557.135,124.176h-1.666a.958.958,0,0,1-.773-.25,3.411,3.411,0,0,1-.2-1.582,21.513,21.513,0,0,1,1.238-7.687q.785-2.022,1.13-3.129a13.24,13.24,0,0,0,.345-3.582l-.024-2.357v-1.38a6.181,6.181,0,0,0-.476-3.118,1.513,1.513,0,0,0-1.262-.619,1.565,1.565,0,0,0-1.392.75,3.137,3.137,0,0,0-.487,1.75,12.988,12.988,0,0,0,.214,1.785,8.606,8.606,0,0,1,.143,1.332q0,2.928-3.189,2.928-3.165,0-3.165-3.784a7.592,7.592,0,0,1,2.356-5.7,8.869,8.869,0,0,1,6.426-2.273,9.538,9.538,0,0,1,6.962,2.642,8.848,8.848,0,0,1,2.7,6.592,10.125,10.125,0,0,1-.762,3.88A16.525,16.525,0,0,1,561.4,115.2a11.718,11.718,0,0,0-2.51,3.034,9,9,0,0,0-.536,3.154,8.685,8.685,0,0,1-.262,2.439Q557.9,124.176,557.135,124.176Zm-.809,2.713a3.618,3.618,0,0,1,2.928,1.392,5.174,5.174,0,0,1,1.142,3.392,5.406,5.406,0,0,1-1.19,3.439,3.557,3.557,0,0,1-2.88,1.511,3.355,3.355,0,0,1-2.725-1.344,5.189,5.189,0,0,1-1.083-3.367,6.042,6.042,0,0,1,1.035-3.522A3.211,3.211,0,0,1,556.326,126.89Z" transform="translate(-75.819 -0.055)" fill="#ffddf8"/>
    <path id="路径_760" data-name="路径 760" d="M176.111,193.154h2.475a1.441,1.441,0,0,1,1.285.643,9.187,9.187,0,0,1,.618,3.451l1.1,15.327q.048.476.048.9a3.628,3.628,0,0,1-.572,2.332,2.967,2.967,0,0,1-2.284.667,3.39,3.39,0,0,1-2.9-1.1q-.81-1.094-1.571-5.189-1.952-10.376-5.569-10.376-3,0-3,7.473V260.84q0,5.332,3.141,5.332,4,0,4.474-8.9a6.135,6.135,0,0,1,1-3.57q.857-1,3.522-1a4.069,4.069,0,0,1,2.784.738,3.956,3.956,0,0,1,.786,2.88,16.16,16.16,0,0,1-4.093,11.3,13.212,13.212,0,0,1-10.186,4.5,15.644,15.644,0,0,1-10.376-3.76q-4.476-3.76-7.735-12.971t-3.26-23.585q0-13.566,2.737-21.682t7-12.536a13.417,13.417,0,0,1,9.925-4.432,9.768,9.768,0,0,1,5.95,1.856,2.978,2.978,0,0,0,1.428.666q.571,0,1.618-1.332Q175.349,193.155,176.111,193.154Z" transform="translate(-0.429 -18.049)" fill="#ffddf8"/>
    <path id="路径_761" data-name="路径 761" d="M193.72,198.639v-2.38q0-1.523,2-1.523h14.709a4.151,4.151,0,0,1,1.57.19q.38.191.381,1.618v66.5q0,2.19,1.428,2.713a1.551,1.551,0,0,1,1,1.618v2.713q0,1.476-2.141,1.475H195.2a1.3,1.3,0,0,1-1.476-1.475v-2.713A2.647,2.647,0,0,1,195.2,264.9a2.894,2.894,0,0,0,1.189-.881,3.4,3.4,0,0,0,.238-1.547V203.494a2.207,2.207,0,0,0-1.285-2.237A2.727,2.727,0,0,1,193.72,198.639Z" transform="translate(-9.422 -18.346)" fill="#ffddf8"/>
    <path id="路径_762" data-name="路径 762" d="M225.068,210.857v-3.141q0-1.571,1.9-1.571h15.184a1.41,1.41,0,0,1,1.618,1.571v54.738a4.758,4.758,0,0,0,.14,1.476,1.465,1.465,0,0,0,.842.619,2.817,2.817,0,0,1,1.683,2.951,11.269,11.269,0,0,1-.238,3.142q-.236.524-1.519.523H226.256a.969.969,0,0,1-.855-.595,10.4,10.4,0,0,1-.189-2.642q0-2.571,1.237-3a1.933,1.933,0,0,0,1.523-1.9V215.569q0-2.76-2.046-3.332Q225.067,212,225.068,210.857ZM238.4,192.626q5.379,0,5.379,3.618,0,2.855-3.594,4.831a16.662,16.662,0,0,1-8.163,1.975q-5.9,0-5.9-3.951,0-3.141,4.141-4.808A21.723,21.723,0,0,1,238.4,192.626Z" transform="translate(-15.305 -17.95)" fill="#ffddf8"/>
    <path id="路径_763" data-name="路径 763" d="M274.251,217.773v46.083a4.836,4.836,0,0,0,.976,2.973,3.216,3.216,0,0,0,2.737,1.307q2.38,0,3.689-2.927a18.753,18.753,0,0,0,1.309-7.592l-.047-1.333q0-2.521.928-3a7.516,7.516,0,0,1,3.166-.476,3.779,3.779,0,0,1,2.665.714q.714.714.714,3a21.635,21.635,0,0,1-3.855,12.828,12.614,12.614,0,0,1-10.948,5.45q-8.33-.007-13.661-8.375t-5.331-23.731q0-11.51,2.713-19.144t6.592-11.365a13.449,13.449,0,0,1,9.687-3.738q6.9,0,10.924,4.593a15.662,15.662,0,0,1,4.023,10.639,10.072,10.072,0,0,1-1.333,5.331,4.418,4.418,0,0,1-4.046,2.19,4.972,4.972,0,0,1-4.308-2.1,8.762,8.762,0,0,1-1.5-5.236,19.572,19.572,0,0,1,.286-3.093,18.8,18.8,0,0,0,.38-3.237,2.775,2.775,0,0,0-.9-2.094,2.956,2.956,0,0,0-2.094-.857,2.437,2.437,0,0,0-1.951,1A3.4,3.4,0,0,0,274.251,217.773Z" transform="translate(-21.22 -20.919)" fill="#ffddf8"/>
    <path id="路径_764" data-name="路径 764" d="M321.092,250.664v12.757a2.211,2.211,0,0,0,1.238,2,1.934,1.934,0,0,1,.952,1.856V269.8a1.578,1.578,0,0,1-1.809,1.761H304.242q-1.713,0-1.713-2.142v-2.236q0-.809,1.38-1.857a4.091,4.091,0,0,0,1.262-1.285,4.35,4.35,0,0,0,.119-1.19V205.874a5.02,5.02,0,0,0-1.856-4.379,1.64,1.64,0,0,1-.691-.857,14.043,14.043,0,0,1-.071-1.856,26.824,26.824,0,0,1,.119-3.57q.118-.475,1.452-.476h15.089q1.189,0,1.476.357a3.273,3.273,0,0,1,.285,1.737V238.08l8.724-20.038a8.094,8.094,0,0,0,.856-2.562q0-1.565-2.222-2.466a2.468,2.468,0,0,1-1.317-.952,5.368,5.368,0,0,1-.329-2.332,5.018,5.018,0,0,1,.428-2.69,2.076,2.076,0,0,1,1.618-.5h13.137q1.094.143,1.1,2.523a7,7,0,0,1-.4,2.9,4.067,4.067,0,0,1-1.786,1.475,6.193,6.193,0,0,0-3,2.808l-3.322,7.02L344.7,262.421a4.585,4.585,0,0,0,2,2.809,2.259,2.259,0,0,1,1.047,2.047V269.8q0,1.762-1.952,1.761H332.993q-2.429,0-3.142-3.141l-5.425-24.365Z" transform="translate(-29.84 -18.346)" fill="#ffddf8"/>
    <path id="路径_765" data-name="路径 765" d="M376.908,251.09h-.928a.872.872,0,0,1-.512-.1q-.107-.1-.107-.523v-1.714a1.166,1.166,0,0,1,.107-.619c.071-.1.281-.167.63-.214a6.591,6.591,0,0,0,3.451-1.9,6.422,6.422,0,0,0,2.071-3.522,1.588,1.588,0,0,1,.3-.821,1.18,1.18,0,0,1,.726-.154h1.547q.619,0,.619.833v5.474h1.475q.833,0,.833.785v1.714q0,.762-.833.761H384.81v24.657a1.868,1.868,0,0,0,1.119,1.808,1.38,1.38,0,0,1,.714.643,3.9,3.9,0,0,1,.167,1.381c0,.413-.028.643-.084.69a1.268,1.268,0,0,1-.583.072h-7.52a5.827,5.827,0,0,1-1.714-4.593Z" transform="translate(-43.506 -27.125)" fill="#ffddf8"/>
    <path id="路径_766" data-name="路径 766" d="M402.66,248.876a9.019,9.019,0,0,1,7.473,4.011q3,4.01,3,11.912,0,8.52-3.046,12.887t-7.591,4.367a8.056,8.056,0,0,1-5.45-2,12.841,12.841,0,0,1-3.558-5.331,26.752,26.752,0,0,1-1.249-9.115q0-8.258,2.868-12.495A8.752,8.752,0,0,1,402.66,248.876Zm1.713,5.974q0-2.95-1.713-2.951-1.857,0-1.856,3.617v19.778q0,3.593,1.69,3.594,1.879,0,1.88-3.594Z" transform="translate(-46.672 -28.505)" fill="#ffddf8"/>
    <path id="路径_767" data-name="路径 767" d="M446.032,263.535v11.805a3.815,3.815,0,0,0,.106,1.119,1.376,1.376,0,0,0,.6.595,1.488,1.488,0,0,1,.631,1.357,3.432,3.432,0,0,1-.249,1.7,1.1,1.1,0,0,1-.915.321H436.154q-.855,0-.855-1.237a9.995,9.995,0,0,1,.071-1.535.659.659,0,0,1,.476-.488,2,2,0,0,0,1.31-2.048v-27.89q0-1.549-1.143-1.881a1.566,1.566,0,0,1-.713-.378,2.432,2.432,0,0,1-.143-1.111q0-1.842,1-1.843h13.161a9.863,9.863,0,0,1,7.009,2.951,10.457,10.457,0,0,1,3.082,7.925q0,7.067-7.211,9.234,6.592,1.451,6.593,8.353v5.665a1.193,1.193,0,0,0,.547,1.071,1.464,1.464,0,0,1,.643,1.309,4.39,4.39,0,0,1-.167,1.643q-.166.262-.881.262h-6.378a2.159,2.159,0,0,1-1.881-1.3,6.391,6.391,0,0,1-.738-3.2v-9.592a2.493,2.493,0,0,0-2.832-2.808Zm0-18.8v16.041h1.548q2.355,0,2.356-4.736v-7.664a4.166,4.166,0,0,0-.75-2.82,3.027,3.027,0,0,0-2.344-.821Z" transform="translate(-54.726 -27.218)" fill="#ffddf8"/>
    <path id="路径_768" data-name="路径 768" d="M476.926,264.988v9.734a5.291,5.291,0,0,0,.749,3.023,2.247,2.247,0,0,0,1.916,1.094,3.372,3.372,0,0,0,2.891-1.535,7.535,7.535,0,0,0,1.154-4.2,3.423,3.423,0,0,1,.274-1.714q.25-.285,1.725-.285a3.161,3.161,0,0,1,1.63.262q.345.262.345,1.309a9.9,9.9,0,0,1-2.38,6.522,7.8,7.8,0,0,1-6.306,2.855,9.364,9.364,0,0,1-7.64-4.081q-3.141-4.082-3.141-12.293t2.9-12.506a8.828,8.828,0,0,1,7.616-4.3,7.512,7.512,0,0,1,6.5,3.618q2.452,3.618,2.452,10.281v2.213Zm3.213-2.975v-7.877q0-2.236-1.595-2.237-1.619,0-1.618,2.237v7.877Z" transform="translate(-60.916 -28.505)" fill="#ffddf8"/>
    <path id="路径_769" data-name="路径 769" d="M507.352,249.757l1.309,6.593a3.662,3.662,0,0,1,.048.548q0,.665-1.285.666a2.737,2.737,0,0,1-1.25-.214,2.868,2.868,0,0,1-.892-1.142,17.953,17.953,0,0,0-1.738-2.594q-1.166-1.5-2.094-1.5a.8.8,0,0,0-.63.333,1.2,1.2,0,0,0-.274.785q0,1.212,3.474,6.873a51.822,51.822,0,0,1,4.07,7.728,17.638,17.638,0,0,1,1.071,6.327,9.266,9.266,0,0,1-1.618,5.814,4.733,4.733,0,0,1-3.808,2.08,5.333,5.333,0,0,1-2.9-1,2.861,2.861,0,0,0-1.119-.548c-.223,0-.348.183-.38.548a1.518,1.518,0,0,1-.286.821,2.386,2.386,0,0,1-1.237.178,1.568,1.568,0,0,1-1.047-.238,1.507,1.507,0,0,1-.334-.833l-1.189-6.64a5.664,5.664,0,0,1-.072-.595q0-.667,1.595-.667a2.214,2.214,0,0,1,1.154.214,3.486,3.486,0,0,1,.821,1.237q1.857,3.88,3.522,3.88,1.071,0,1.071-1.284a6.957,6.957,0,0,0-.8-2.83q-.8-1.686-3.106-5.54a49.515,49.515,0,0,1-3.51-6.849,15.036,15.036,0,0,1-1.084-5.54q0-3.781,1.619-5.636a5.028,5.028,0,0,1,3.927-1.855,5.961,5.961,0,0,1,2.76.833,2.948,2.948,0,0,0,1.071.428c.253,0,.405-.167.452-.5q.1-.523.381-.643a3.844,3.844,0,0,1,1.214-.119,1.483,1.483,0,0,1,.773.132A1.405,1.405,0,0,1,507.352,249.757Z" transform="translate(-65.924 -28.505)" fill="#ffddf8"/>
    <path id="路径_770" data-name="路径 770" d="M523.8,264.988v9.734a5.291,5.291,0,0,0,.749,3.023,2.247,2.247,0,0,0,1.916,1.094,3.372,3.372,0,0,0,2.891-1.535,7.534,7.534,0,0,0,1.154-4.2,3.423,3.423,0,0,1,.274-1.714q.25-.285,1.725-.285a3.161,3.161,0,0,1,1.63.262q.345.262.345,1.309a9.9,9.9,0,0,1-2.38,6.522,7.8,7.8,0,0,1-6.306,2.855,9.364,9.364,0,0,1-7.64-4.081q-3.141-4.082-3.141-12.293t2.9-12.506a8.828,8.828,0,0,1,7.616-4.3,7.512,7.512,0,0,1,6.5,3.618q2.452,3.618,2.452,10.281v2.213Zm3.213-2.975v-7.877q0-2.236-1.595-2.237-1.619,0-1.618,2.237v7.877Z" transform="translate(-69.712 -28.505)" fill="#ffddf8"/>
    <path id="路径_771" data-name="路径 771" d="M542.816,251.09h-.928a.873.873,0,0,1-.512-.1q-.107-.1-.107-.523v-1.714a1.166,1.166,0,0,1,.107-.619q.107-.143.63-.214a6.588,6.588,0,0,0,3.451-1.9,6.417,6.417,0,0,0,2.071-3.522,1.587,1.587,0,0,1,.3-.821,1.18,1.18,0,0,1,.726-.154H550.1q.619,0,.619.833v5.474h1.475q.833,0,.833.785v1.714q0,.762-.833.761h-1.475v24.657a1.868,1.868,0,0,0,1.119,1.808,1.38,1.38,0,0,1,.714.643,3.9,3.9,0,0,1,.167,1.381q0,.619-.084.69a1.263,1.263,0,0,1-.582.072H544.53a5.827,5.827,0,0,1-1.714-4.593Z" transform="translate(-74.637 -27.125)" fill="#ffddf8"/>
    <path id="路径_772" data-name="路径 772" d="M563.388,277.734a3.643,3.643,0,0,1,2.916,1.38,5.13,5.13,0,0,1,1.154,3.4,5.406,5.406,0,0,1-1.19,3.439,3.557,3.557,0,0,1-2.88,1.511,3.355,3.355,0,0,1-2.725-1.344,5.189,5.189,0,0,1-1.083-3.367,6.118,6.118,0,0,1,1.023-3.511A3.2,3.2,0,0,1,563.388,277.734Z" transform="translate(-78.073 -33.92)" fill="#ffddf8"/>
  </g>
</svg>
