<svg id="图层_4" data-name="图层 4" xmlns="http://www.w3.org/2000/svg" viewBox="0 0 774.3017 717.58898"><defs><style>.cls-1{fill:#af4a73;stroke:#000;stroke-miterlimit:10;stroke-width:5px;}.cls-2{fill:#fff;}</style></defs><path class="cls-1" d="M340,44.66667s54.98045,64.99714,110.65689,68.8319,156.56533-97.8319,156.56533-97.8319-22.88889,113.66666-19.88889,127.66666.67374,15.74584,12.84348,25.53959,88.37875-5.20625,88.37875-5.20625-44.31079,42.618-29.25686,66.613S709,265,739,270.33333s86.66667,4,86.66667,4S709.88889,346.55556,709,385s52.66667,63.33333,52.66667,63.33333-54.05445-5.19712-66.44753,25.85164S688,558,709,608s54,92,54,92S620.38055,599.10753,563.69027,630.55376s-70.24583,88.224-70.24583,88.224-30.294-54.04021-77.36921-56.35344-65.29745,21.24233-65.29745,21.24233,4.68081-28.61492-22.43812-41.70293S263,626,176,663,69,714,69,714s117.993-189.9661,99.66316-253.483-68.32983-86.18362-68.32983-86.18362,54.25373-17.46305,67.66628-56.35665S77.44444,128.11111,77.44444,128.11111s148.2059,73.54921,176.44911,52.07,11.99534-70.29226,11.99534-70.29226,42.04928,31.17365,65.20805,23.01453S340,44.66667,340,44.66667Z" transform="translate(-60.43957 -7.98985)"/><path d="M350.737,273.60024v49.64128H334.60312v44.81409h-55.9825V248.36492q0-34.74717,18.95889-53.98251t53.29568-19.23535q33.09276,0,48.95014,17.4427t15.85739,53.84644V368.05561h-55.9825V250.15973q0-11.0302-2.61986-15.30664t-9.37578-4.27428q-13.09929,0-13.0993,19.58092v23.44051Z" transform="translate(-60.43957 -7.98985)"/><rect class="cls-2" x="218.18104" y="360.06684" width="55.99114" height="188.22066"/><ellipse id="椭圆_1" data-name="椭圆 1" class="cls-2" cx="327.29242" cy="400.96231" rx="27.95073" ry="28.77269"/><path d="M359.78126,449.48954h20.64066q18.35189,0,18.35188,14.17367,0,7.02651-6.28375,11.68206,9.11352,3.88086,9.11352,13.8469a15.11638,15.11638,0,0,1-5.36824,12.17221,15.47053,15.47053,0,0,1-5.61792,3.02263,30.40443,30.40443,0,0,1-8.07316.85777H379.34V490.90772h2.87138a7.31912,7.31912,0,0,0,3.57883-.63312,2.39011,2.39011,0,0,0,1.04035-2.22612q0-2.69586-4.24465-2.69586H379.34V470.48455q4.66175,0,4.6608-3.14517,0-2.89916-4.203-2.90009h-3.12107v40.80549H359.78126Z" transform="translate(-60.43957 -7.98985)"/><path d="M403.85452,465.09284h15.56373v22.99648q0,3.47287,2.95461,3.47194,2.91395,0,2.913-3.47194V465.09284h15.56373V487.8034a18.33583,18.33583,0,0,1-5.36824,13.37717,18.93094,18.93094,0,0,1-27.42379-.8782q-4.20209-4.94193-4.203-13.72436Z" transform="translate(-60.43957 -7.98985)"/><path d="M462.07663,464.521v40.72379H446.51291V464.521Zm-7.74025-18.17662a7.69732,7.69732,0,0,1,5.47228,2.18528,7.13513,7.13513,0,0,1,.12484,10.39539,8.69079,8.69079,0,0,1-11.19423,0,7.13513,7.13513,0,0,1,.12484-10.39539A7.69413,7.69413,0,0,1,454.33638,446.34437Z" transform="translate(-60.43957 -7.98985)"/><path d="M483.38691,449.48954v55.75524H467.82318V449.48954Z" transform="translate(-60.43957 -7.98985)"/><path d="M514.6411,449.48954h15.56373v33.9433q0,9.35474-4.99371,15.23568a20.38742,20.38742,0,0,1-7.30141,5.39172,22.5475,22.5475,0,0,1-24.74156-4.12548,20.05,20.05,0,0,1-6.367-15.03145,20.32326,20.32326,0,0,1,6.32537-14.90891,20.53432,20.53432,0,0,1,14.98112-6.29034q1.37328,0,4.16143.24508v16.82869a6.2742,6.2742,0,0,0-3.82851-1.47047,5.63162,5.63162,0,0,0-4.13873,1.736,5.71308,5.71308,0,0,0-1.72888,4.18675,5.40524,5.40524,0,0,0,1.78941,4.06421,6.009,6.009,0,0,0,4.28627,1.69512q5.99246,0,5.99245-8.12842Z" transform="translate(-60.43957 -7.98985)"/><path d="M575.7781,487.35409H552.18282a11.01111,11.01111,0,0,1-.541-3.22686,11.13307,11.13307,0,0,1,.74905-4.00294h7.90671q-.83418-4.53395-5.20178-4.53395a5.67833,5.67833,0,0,0-4.744,2.43036,10.06307,10.06307,0,0,0-1.831,6.22907,10.701,10.701,0,0,0,1.7686,6.41287,5.46657,5.46657,0,0,0,4.64,2.45078,6.23731,6.23731,0,0,0,4.49434-2.28739l8.86384,10.45666a22.02921,22.02921,0,0,1-13.77432,4.779,21.4421,21.4421,0,0,1-15.52211-6.08611,21.19339,21.19339,0,0,1,.06242-30.18544,21.50411,21.50411,0,0,1,15.58453-6.16779,20.81379,20.81379,0,0,1,15.1684,6.02483,19.98951,19.98951,0,0,1,6.1381,14.84764Q575.94456,485.39439,575.7781,487.35409Z" transform="translate(-60.43957 -7.98985)"/><path d="M601.58271,464.11252v16.33854a6.21,6.21,0,0,0-2.95461-.89862q-4.24466,0-4.24465,6.372v19.32031H578.81972V482.98353q0-8.82281,4.91048-14.07156,4.9086-5.24829,13.10849-5.24876A32.57491,32.57491,0,0,1,601.58271,464.11252Z" transform="translate(-60.43957 -7.98985)"/></svg>