<svg id="图层_3" data-name="图层 3" xmlns="http://www.w3.org/2000/svg" viewBox="0 0 359.085 286.51372"><defs><style>.cls-1{fill:#0c9;}.cls-1,.cls-2,.cls-3,.cls-4{stroke:#000;stroke-miterlimit:10;stroke-width:5px;}.cls-3{fill:none;}.cls-4{fill:#daea47;}</style></defs><path class="cls-1" d="M64.64457,129.89994a51.96087,51.96087,0,0,0,11.784,13.15651c7.16016,5.3912,14.5714,12.19435,25.23807,16.40228S219.06455,173.6735,219.06455,173.6735s119.04656,13.3169,132.37989,12.76615,27.77441-6.14554,33.12088-32.14821,24.41157-108.44662,32.92313-166.0357S348-95,348-95L125.66667-63.33333,82.76544-18.12323,68.87956,73.30212,64.92874,116.1144Z" transform="translate(-61.55262 97.55744)"/><path class="cls-1" d="M84-25.66667,79.79938,0s-8.97,53.94485-11.30972,76.88833-4.42305,49.945-4.42305,49.945a5.91716,5.91716,0,0,0,.578,3.06661,6.72693,6.72693,0,0,0,4.46428,3.017c2.10674.29166,193.25824,20.08645,193.25824,20.08645s65.63291,7.35976,72.744,6.73376,7.88977-.98711,10.84766-3.15378,5.17588-5.70429,7.822-20.38552,17.433-97.85873,21.40943-140.3616-44.35691-48.00288-44.35691-48.00288Z" transform="translate(-61.55262 97.55744)"/><path class="cls-2" d="M168.79582,157.0564a5.68367,5.68367,0,0,1,4.98706-4.07809c4.106-.42275,21.95937.956,21.95937.956L216.88889,156.5s6.35077.35405,5.78649,5.84369-15.3,3.15987-15.3,3.15987l-30.26422-3.61467S168.7583,162.00169,168.79582,157.0564Z" transform="translate(-61.55262 97.55744)"/><polygon class="cls-3" points="298.558 197.41 330.343 217.847 328.475 226.436 296.744 208.365 298.558 197.41"/><path class="cls-4" d="M89.66667-8.66667s-12.33334,71.66667-14,96-1.77778,27.11111-1.77778,27.11111-2.33333,12.44445,8.66667,13.66667,249.77777,24.78664,249.77777,24.78664,6.44445,1.76427,8.88889-6.17785S361.44444,35.22222,365.44444,4.33333s-9.33333-32.66666-9.33333-32.66666Z" transform="translate(-61.55262 97.55744)"/></svg>