<svg id="图层_9" data-name="图层 9" xmlns="http://www.w3.org/2000/svg" viewBox="0 0 407.16104 177.28312"><defs><style>.cls-1{fill:#ff00a0;stroke:#000;stroke-miterlimit:10;stroke-width:5px;}</style></defs><path class="cls-1" d="M99.84776,105.89258l4.02789-25.09132s.92045-6.872-2.93651-9.49279-32.892-10.93912-32.892-10.93912S57.05981,84.30623,51.977,102.06646s-14.29865,51.7348-13.696,64.06814,8.42412,20.45744,30.26337,15.03427,54.00523-36.05287,60.38752-48.245c10.42395,2.09958,26.57852-10.26392,30.73735-23.27661s4.85092-13.68345-3.80069-26.51474S141.16278,65.26142,135.6343,64.92023s-11.69516,5.18659-11.69516,5.18659-3.21281,1.48845-1.75,13.25,3.5,21.38524,3.5,21.38524-4.5-6.61043-12.58333-6.1645S99.84776,105.89258,99.84776,105.89258Z" transform="translate(-35.75281 -42.39453)"/><path class="cls-1" d="M182.59847,111.783s-2.63581-4.50728-5.91573-6.303-5.59274-2.6647-8.68374-2.83235-20.14655,2.69346-27.591,14.1379a30.07462,30.07462,0,0,0-3.75,23.46s5,20.85364,16.75,20.37737,29.19047-7.22626,29.19047-7.22626-2.44047,9.53549,5.55953,9.80941,14.17305-5.20151,14.21153-8.42213-3.73931-38.665-3.73931-38.665-1.11111-3.87933-4.55555-4.57856S182.59847,111.783,182.59847,111.783Z" transform="translate(-35.75281 -42.39453)"/><path class="cls-1" d="M165.869,122.01156s-10.88889,6.11111-4.22222,8.66667,11.22222-3.35316,11.22222-3.35316,2.27778-2.4486.83333-4.29772S169.289,120.36323,165.869,122.01156Z" transform="translate(-35.75281 -42.39453)"/><path class="cls-1" d="M221.86654,111.83963s12.16667,2.7649,14.66667,2.75745,7.43791-1.00745,7.67729-13.92412S239.58455,86.41348,234.061,83.00629s-15.88976-10.24011-21.4171-4.70339-18.61067,21.78673-18.61067,21.78673-10.9811,12.19444,2.88445,23.75,15.11555,12.42456,15.11555,12.42456l-9.02778,1.96433s-4.14207.89031-5.11111,11.33333-.54306,14.87455-.54306,14.87455,14.29981,4.99852,23.07421,3.53421,31.60774-20.39249,30.2744-27.3034S221.86654,111.83963,221.86654,111.83963Z" transform="translate(-35.75281 -42.39453)"/><path class="cls-1" d="M268.07541,137.6029l-3.41315,26.6583s-1,4.09157-8.22222,3.59157-8.61112-3.94445-8.61112-3.94445L230.38478,68.68073s-3.72252-15.42784,18.36081-22.68345,24.36111,23.18882,23.80556,35.9666-2.33334,36.98018-2.33334,36.98018,12.73326-8.98018,19.95-8.7024,13.03681,2.69011,12.12675,12.40061-8.23964,35.965-8.23964,35.965-2.19439,10.79451-10.64768,9.96445-7.50277-14.03621-7.50277-14.03621l1.0356-13.905s.47222-3.69445-2.58334-4.44445S268.59967,135.51969,268.07541,137.6029Z" transform="translate(-35.75281 -42.39453)"/><path class="cls-1" d="M297.03454,117.90874s-4.68427,23.3022,1.00157,39.49438,5.79049,21.61946,12.95716,20.50991,21.408-5.22337,23.0929-9.74979-24.81512-60.919-24.81512-60.919a5.66,5.66,0,0,0-5.50441-2.27841C299.93771,105.41459,297.03454,117.90874,297.03454,117.90874Z" transform="translate(-35.75281 -42.39453)"/><path class="cls-1" d="M310.60581,95.3112s-19.21747.79993-20.31707-6.91056,2.04919-15.22418,4.7248-16.30067,12.1756-1.32648,16.50894,1.59018,3.15329,15.25,2.57664,17.41667S310.60581,95.3112,310.60581,95.3112Z" transform="translate(-35.75281 -42.39453)"/><path class="cls-1" d="M325.8587,94.25892s-.10264,22.48813.89036,34.28573,2.70634,29.62786,4.40523,30.6294.91876,5.58151,14.61438-2.6807,10.19561-15.42888,8.69561-22.20665-6.00575-19.12486-.78065-20.368,7.1001,4.75687,7.1001,4.75687,4.36691,14.65791,6.37095,15.66229,7.11516-.60673,10.17071-5.85673,7.02181-10.76016,3.16369-20.86619S370.18651,86.45336,365.01984,83.62s-14.44445-1.58714-18.27778-.26579-12,12.3769-12,12.3769Z" transform="translate(-35.75281 -42.39453)"/><path class="cls-1" d="M433.1537,106.44968a19.92992,19.92992,0,0,0-12.14646-16.76106c-11.77778-5.041-23.66667-2.81875-33.22222,4.959s-19.11111,22.11112-20.77778,27.88889-3.66667,19.48355,6.11111,23.57511,21.116,2.8431,21.116,2.8431l-16.87407,20.16784-21.89674-8.25972a5.016,5.016,0,0,0-4.852,1.15191c-2.27094,2.07732-11.25352,33.77176-11.25352,33.77176s-1.573,5.66667,6.927,9.83334,27.72222,15.63847,50.38889,10.05535S440.00724,108.4759,440.00724,108.4759Z" transform="translate(-35.75281 -42.39453)"/><path class="cls-1" d="M407.77248,107.02065s-2.22222-.59571-3.44445,0-5.11111,4.46482-1.88889,7.08582,5.66667,3.5099,10,1.5099S407.77248,107.02065,407.77248,107.02065Z" transform="translate(-35.75281 -42.39453)"/></svg>